Coelacanth.sfdir
StartChar: asterisk
Encoding: 42 42 87
GlifName: asterisk
Width: 362
Flags: HW
LayerCount: 2
Fore
SplineSet
188 522 m 1
 162 468 169 444 137 387 c 1
 114 383 80 416 75 434 c 1
 112 487 132 487 169 533 c 1
 109 540 89 528 26 540 c 1
 14 563 38 605 50 614 c 1
 112 596 118 576 173 555 c 1
 162 614 142 628 135 692 c 1
 150 708 198 703 214 691 c 1
 215 627 200 616 196 557 c 1
 249 587 256 608 315 635 c 1
 331 628 347 587 338 561 c 1
 278 540 262 551 205 536 c 1
 249 494 272 493 316 446 c 1
 314 426 275 402 252 402 c 1
 213 454 220 473 188 522 c 1
EndSplineSet
EndChar
StartChar: comma
Encoding: 44 44 46
GlifName: comma
Width: 200
Flags: HW
LayerCount: 2
Fore
SplineSet
43 -133 m 1
 27 -108 l 1
 61 -87 104 -45 90 -14 c 0
 80 8 58 23 37 34 c 0
 32 36 30 43 30 49 c 3
 30 55 32 60 37 62 c 0
 58 73 74 89 85 110 c 0
 87 115 93 119 99 119 c 3
 105 119 111 115 113 110 c 0
 124 89 142 73 163 62 c 0
 168 60 171 55 171 49 c 3
 171 43 161 -68 43 -133 c 1
EndSplineSet
Position2: "Extra space for context kern-1" dx=78 dy=0 dh=156 dv=0
Position2: "cpsp-1" dx=0 dy=0 dh=7 dv=14
EndChar
StartChar: six
Encoding: 54 54 69
GlifName: six
Width: 487
Flags: HW
LayerCount: 2
Fore
SplineSet
369 630 m 9
 369 630 377.099609375 612.459960938 381 607 c 1
 228 538 143 413.28515625 143 244 c 27
 143 142.525390625 188.8828125 30 291 30 c 3
 339.225585938 30 375 82.2705078125 375 142 c 3
 375 245.787109375 323.599609375 320 258 320 c 3
 230.620117188 320 214 304 194 282 c 1
 173 296 l 1
 191 336 235.845703125 364 291 364 c 3
 366 364 439 276.702148438 439 178 c 3
 439 75.951171875 345.0234375 -10 257 -10 c 3
 131.85546875 -10 71 121.913085938 71 214 c 3
 71 413.572265625 195 572 369 630 c 9
EndSplineSet
Substitution2: "case-1" six.proportionallining
Substitution2: "lnum-1" six.proportionallining
Substitution2: "tnum-1" six.tabulartext
Substitution2: "numr-1" six.numerator
Substitution2: "dnom-1" six.denom
EndChar
StartChar: question
Encoding: 63 63 74
GlifName: question
Width: 378
Flags: HW
LayerCount: 2
Fore
SplineSet
38 556.8 m 1
 40.004833655 573.545373103 40.8164204084 588.176249895 40.8164204084 600.982038936 c 3
 40.8164204084 655.444150344 26.1369221359 676.895160528 26.1369221359 687.59766363 c 3
 26.1369221359 694.46213426 32.1757769697 696.904881972 52 700.8 c 1
 73 645.8 80 645.8 110 645.8 c 3
 206.132 645.8 301 565.837 301 444.8 c 3
 301 276.485 186.449 267.419 172 261.8 c 0
 144.69 247.8 130.667 225.8 128 185 c 9
 128 185 114.8 183.8 110 183.8 c 1
 106.776632964 214.303528103 103.82423636 242.461492248 103.82423636 266.457131635 c 3
 103.82423636 302.015713954 110.307578181 328.434001862 132 339.8 c 0
 158.928 353.909 274 321.545 274 435.8 c 3
 274 513.494315351 201.403177297 559.439212105 87.3039357441 559.439212105 c 3
 71.6259866427 559.439212105 55.1644520351 558.571750493 38 556.8 c 1
EndSplineSet
Refer: 48 46 N 1 0 0 1 18 0 2
Position2: "cpsp-1" dx=0 dy=0 dh=50 dv=100
Substitution2: "smcp-1" question.smcp
Substitution2: "pcap-1" question.pcap
EndChar
StartChar: at
Encoding: 64 64 874
GlifName: at
Width: 802
Flags: HW
LayerCount: 2
Fore
SplineSet
564.755 335 m 1
 539.555 278.3 520.869 211.186 510.755 150.5 c 0
 505.822 120.901 501.64 87.547 501.64 75.1396 c 3
 501.64 56.5948 506.697 48.7998 515.255 48.7998 c 3
 536.667 48.7998 581.1 56.0977 613.5 83.5 c 0
 670.796 131.958 713 199 713 285 c 3
 713 435.003 578.205 517 422 517 c 3
 248.443 517 106 367.01 106 157 c 3
 106 -16.493 253.56 -132 409 -132 c 3
 533.221 -132 638.753 -81.1985 714 -11 c 1
 720.63 -17.63 724.37 -21.37 731 -28 c 1
 659 -108 535.675 -184 398 -184 c 3
 215.848 -184 37 -52.6006 37 157 c 3
 37 379.824 218.625 561 442 561 c 3
 602.303 561 760 456.039 760 288 c 3
 760 187.436 682.662 103.668 629.5 65.5 c 0
 593.246 39.4713 536.574 1.09961 478.355 1.09961 c 3
 439.181 1.09961 436.86 44.567 439.655 89.2998 c 1
 395.555 42.4999 337.055 6.5 301.955 6.5 c 3
 255.02 6.5 222.851 50.7988 222.851 103.97 c 3
 222.851 201.658 297.9 289.633 360.455 322.4 c 0
 401.855 344.9 452.255 353 519.755 368.3 c 0
 531.919 371.057 544.824 385.269 549.455 394.4 c 1
 596.255 398.9 l 1
 585.463 377.317 575.358 356.207 564.755 335 c 1
479.155 314.8 m 1
 470.155 316.6 445.855 318.4 437.755 318.4 c 3
 409.855 318.4 377.455 303.1 358.556 289.6 c 0
 323.189 264.337 286.949 213.234 286.949 145.586 c 3
 286.949 102.981 305.419 65 351.455 65 c 3
 379.355 65 417.155 91.3378 442.355 116.7 c 1
 451.355 154.163 463.055 195.981 472.955 237.8 c 0
 478.177 259.858 483.105 283.587 483.105 298.967 c 3
 483.105 306.389 481.962 311.994 479.155 314.8 c 1
EndSplineSet
Position2: "'case' vertical ajustments for all-caps-1" dx=0 dy=160 dh=0 dv=0
Position2: "cpsp-1" dx=0 dy=0 dh=50 dv=100
EndChar
StartChar: L
Encoding: 76 76 37
GlifName: L_
Width: 655
Flags: HW
AnchorPoint: "Bottom" 326 -15 basechar 0
AnchorPoint: "TopRight" 374.5 581 basechar 0
AnchorPoint: "Top" 183 699 basechar 0
LayerCount: 2
Fore
SplineSet
312 693 m 1
 316 652 l 1
 229 641 215 660 211 576 c 0
 209 528.333442348 208 147 208 147 c 0
 208 88 210 50 251 50 c 0
 283 50 441 50 464 51 c 0
 534 55 563 89 588 164 c 1
 623 157 l 1
 623 100 611 120 584 -23 c 1
 562 -14 556 -5 512 -3 c 0
 501 -3 412 0 310 0 c 3
 95 0 60 -9 49 -9 c 1
 44 35 l 1
 103 41 117 43 118 74 c 0
 118 78.0357142857 120 176.910714286 120 300 c 3
 120 454.967773438 115 603.858398438 114 615 c 0
 112 643 100 648 38 650 c 1
 42 696 l 1
 82.373046875 686.141601562 128 682 172 682 c 3
 222 682 271.677734375 687.1640625 312 693 c 1
EndSplineSet
Position2: "cpsp-1" dx=0 dy=0 dh=50 dv=100
Substitution2: "c2pc-1" l.pcap
Substitution2: "c2sc-1" l.smcp
EndChar
StartChar: R
Encoding: 82 82 43
GlifName: R_
Width: 763
Flags: HMW
AnchorPoint: "Bottom" 380 -15 basechar 0
AnchorPoint: "Top" 307 692 basechar 0
LayerCount: 2
Fore
SplineSet
201 367 m 1
 242 366 263 363 304 363 c 3
 450 363 479 453.25390625 479 507 c 3
 479 565.562027269 418 657 302 657 c 3
 271 657 208 650 204 607 c 0
 197 532.128099697 199 441.871900303 201 367 c 1
35 685 m 1
 78 684 103 683 146 683 c 0
 215 683 244 699 323 699 c 0
 456 699 566 618.215098279 566 518 c 0
 566 430.016601562 496 369.338867188 416 339 c 1
 535 138.395507812 629 5.9765625 763 4 c 1
 756 -33 l 1
 578 -37.943359375 404 150.91015625 330 319 c 1
 321 318 313 318 306 318 c 0
 265 318 242 322 201 323 c 1
 206 227 209 158 213 77 c 0
 215 42.3617021277 240 37.6808510638 295 33 c 1
 287 -11 l 1
 244 -3.92857142857 201 0 158 0 c 3
 121 0 83 -4 46 -11 c 1
 39 30 l 1
 92 35 110 44 111 65 c 1
 116 190 119 274 119 357 c 3
 119 428.794660931 117 499.564524291 114 597 c 1
 109 634 98 646 35 648 c 1
 35 685 l 1
EndSplineSet
Position2: "cpsp-1" dx=0 dy=0 dh=50 dv=100
Substitution2: "salt-1" R.alt
Substitution2: "c2pc-1" r.pcap
Substitution2: "c2sc-1" r.smcp
EndChar
StartChar: S
Encoding: 83 83 44
GlifName: S_
Width: 605
Flags: HW
AnchorPoint: "Bottom" 307 -15 basechar 0
AnchorPoint: "Top" 329 699 basechar 0
LayerCount: 2
Fore
SplineSet
51 194 m 1
 85 200 l 1
 103 141 107.877929688 120.866210938 131 100 c 0
 172 63 262 33 326 33 c 3
 428 33 470 107 470 164 c 3
 470 286 303.776367188 306.192382812 214 347 c 0
 192 357 89 397 89 510 c 3
 89 601.200195312 167 702 331 702 c 3
 389 702 438.3828125 689.106445312 460 681 c 0
 476 675 486 663 504 693 c 1
 534 684 l 1
 517 604 520.868164062 602.962890625 536 550 c 0
 542 529 536 511 503 517 c 1
 496 533 492.791015625 554.907226562 484 575 c 0
 463 623 392 664 318 664 c 3
 265 664 171 641.352539062 171 530 c 3
 171 429 264.830078125 432.615234375 418 365 c 0
 529 316 550 231 550 181 c 3
 550 101 495 -10 303 -10 c 3
 248 -10 190.158203125 0.4443359375 140 18 c 0
 120 25 121 24 111 -4 c 1
 79 0 l 1
 80 69 77 87 51 194 c 1
EndSplineSet
Position2: "cpsp-1" dx=0 dy=0 dh=50 dv=100
Substitution2: "c2pc-1" s.pcap
Substitution2: "c2sc-1" s.smcp
EndChar
StartChar: T
Encoding: 84 84 45
GlifName: T_
Width: 746
Flags: HMW
AnchorPoint: "Bottom" 366 -15 basechar 0
AnchorPoint: "Top" 366 699 basechar 0
LayerCount: 2
Fore
SplineSet
133 685 m 0
 258.158203125 683.5859375 383 682 509 682 c 3
 561 682 612.865234375 682.4140625 665 683 c 0
 681 683 696 689 703 698 c 1
 728 682 l 1
 714 646 697 606 695 559 c 1
 658 565 l 1
 664 595 l 0
 675 644 479 633 422 633 c 1
 417.81640625 510.056640625 416.063476562 389.049804688 416.063476562 265.927734375 c 3
 416.063476562 212.4609375 416.39453125 158.595703125 417 104 c 0
 418 41 421 47 528 37 c 1
 521 -7 l 1
 482.745117188 -2.32934570312 433 0 383 0 c 3
 320 0 255.969726562 -3.77319335938 211 -11 c 1
 203 37 l 1
 320 47.4345703125 319 57 320 77 c 0
 323.541015625 148.546875 327.779296875 308.040039062 327.779296875 439.509765625 c 3
 327.779296875 530.783203125 325.736328125 608.548828125 320 634 c 1
 256 635 194 633 132 628 c 0
 85 624 82 628 45 554 c 1
 6 573 l 1
 26 612 55 691 66 713 c 1
 89 695 111 685 133 685 c 0
EndSplineSet
Position2: "cpsp-1" dx=0 dy=0 dh=50 dv=100
Substitution2: "c2pc-1" t.pcap
Substitution2: "c2sc-1" t.smcp
EndChar
StartChar: W
Encoding: 87 87 55
GlifName: W_
Width: 1138
Flags: HW
AnchorPoint: "Bottom" 580 -15 basechar 0
AnchorPoint: "Top" 585 699 basechar 0
LayerCount: 2
Fore
SplineSet
1127 693 m 1
 1133 657 l 1
 1057 628.323242188 1052 600.708007812 1006 486 c 0
 877 176 836 81 820 42 c 0
 810 19 801 7 799 -15 c 1
 763 -16 l 1
 762 2 759 19 743 58 c 0
 691.33984375 177 640.672851562 296 591 415 c 1
 483.323242188 151 446.088867188 60 432 23 c 0
 425 3 420 -7 419 -21 c 1
 382 -21 l 1
 378 -1 373 24 346 89 c 0
 243 345.071289062 138 550.932617188 129 567 c 0
 123 579.173828125 118 588.913085938 95 623 c 0
 69 654 39 652 11 654 c 1
 17 695 l 1
 48 686 99 682 151 682 c 3
 203 682 256.5 686 291 693 c 1
 299 659 l 1
 241 659 218 638.53125 218 600 c 0
 218 588 221 576 226 565 c 10
 427 107 l 1
 569 461 l 1
 516.428710938 586.375 482.0546875 623.561523438 477 631 c 1
 459 656 430 656 405 661 c 1
 411 690 l 1
 444.916992188 684.958007812 487 682 531 682 c 3
 583 682 636.958007812 685.958007812 683 693 c 1
 687 658 l 1
 681 658 635 657 625 656 c 0
 588 651 589 627 596 609 c 2
 806 107 l 1
 865 250 918 390 961 515 c 0
 991 607.514648438 979 663.455078125 871 657 c 1
 871 688 l 1
 897.424804688 684.105859374 934 682 975 682 c 3
 1022 682 1075.50488281 684.739257812 1127 693 c 1
EndSplineSet
Position2: "cpsp-1" dx=0 dy=0 dh=50 dv=100
Substitution2: "c2pc-1" w.pcap
Substitution2: "c2sc-1" w.smcp
EndChar
StartChar: h
Encoding: 104 104 7
GlifName: h
Width: 531
Flags: HMW
AnchorPoint: "Bottom" 275 -15 basechar 0
AnchorPoint: "Top" 120 733 basechar 0
LayerCount: 2
Fore
SplineSet
161 330 m 1
 159 290.477272727 157 239.204545455 157 189 c 3
 157 128.251851852 159.092390223 71.8070733258 162 50 c 0
 164 35 183.085896873 30.4253562504 194 28 c 0
 203 26 222 24 232 23 c 1
 228 -11 l 1
 189 -5 159 0 117 0 c 3
 87 0 51 -5 21 -9 c 1
 18 24 l 1
 29 26 35.1817100136 26.1778373948 46 29 c 0
 69 35 81.3659550466 44.0525169794 84 72 c 0
 89 125.050505051 92 207.686868687 92 274 c 3
 92 511 90.315871388 604.946057792 89 626 c 0
 88 642 82 656 65 656 c 3
 59 656 33 650 23 649 c 1
 15 681 l 1
 67 692 127 720 170 754 c 1
 189 738 l 1
 183 724 176.604406058 696.928214914 175 686 c 0
 165 617.886227545 162 471.928143713 161 361 c 1
 214 394.48 288 415 330 415 c 3
 403 415 440.73192969 367.108393691 444 301 c 0
 445 280.771428571 446 234.695238095 446 183 c 3
 446 124.23255814 445 67.5271317829 445 50 c 0
 445 35 462.992256522 29.9569321738 474 28 c 0
 483 26.4 510 24.6 520 24 c 1
 515 -10 l 1
 476 -1.81818181818 450 0 408 0 c 3
 378 0 349 -4.09090909091 323 -9 c 1
 320 24 l 1
 331 25.6 336.101569523 26.1678000938 347 28 c 0
 370 31.8666666667 372.783506377 44.731815259 376 72 c 0
 378 88.9552238806 379 127.104477612 379 143 c 3
 379 191.46875 377.600156558 264.399147626 374 284 c 0
 365 333 343 366 288 366 c 3
 240 366 194 350.25 161 330 c 1
EndSplineSet
Substitution2: "smcp-1" h.smcp
Substitution2: "pcap-1" h.pcap
EndChar
StartChar: p
Encoding: 112 112 15
GlifName: p
Width: 513
Flags: HMW
AnchorPoint: "Bottom" 286 -15 basechar 0
AnchorPoint: "Top" 251 465 basechar 0
LayerCount: 2
Fore
SplineSet
89 31 m 3
 89 153 85 273 81 293 c 0
 76 320 62 331 48 331 c 3
 38 331 15 322 6 322 c 1
 0 353 l 1
 37 360 94 385 136 424 c 1
 148 419.652173913 153 418.782608696 155 364 c 1
 198 385 258 411 308 411 c 3
 405 411 481 308.474226804 481 216 c 3
 481 78.119266055 361 -10 244 -10 c 3
 213 -10 183 -2 157 7 c 1
 157 -75 157 -247 162 -284 c 0
 164 -299 183 -303 194 -304 c 0
 210 -305 229 -307 243 -308 c 1
 242 -342 l 1
 203 -341 172 -339 130 -339 c 3
 100 -339 52 -344 22 -348 c 1
 19 -316 l 1
 30 -315 38 -313 49 -311 c 0
 72 -305 78 -294 80 -266 c 0
 85 -214 89 -122 89 31 c 3
264 364 m 3
 212 364 181 345 153 330 c 1
 155 64 l 1
 188 46 225 31 274 31 c 3
 358 31 415 88.1079136691 415 178 c 3
 415 270.497297297 355 364 264 364 c 3
EndSplineSet
Substitution2: "smcp-1" p.smcp
Substitution2: "pcap-1" p.pcap
EndChar
StartChar: AE
Encoding: 198 198 319
GlifName: A_E_
Width: 1067
Flags: HW
AnchorPoint: "Top" 580.585 699 basechar 0
AnchorPoint: "Bottom" 569.957 -15 basechar 0
LayerCount: 2
Fore
SplineSet
396 692 m 1
 459.272012394 686.532048312 556.561190777 684.572593564 653.192821453 684.572593564 c 0
 803.974281922 684.572593564 953.154767421 689.343407866 969 693 c 1
 980.145145837 683.247997393 984.133414459 677.741599913 984.133414459 669.087387512 c 0
 984.133414459 652.893580795 970.168856119 625.677987617 963 539 c 1
 933 536 l 1
 922 572 941 619 905 630 c 0
 863.488636507 641.860389569 801.137444756 648.076658986 740.260246011 648.076658986 c 3
 708.746754637 648.076658986 677.628246937 646.410894684 650 643 c 0
 632 641 619 627 618 609 c 0
 614 526.970338983 609 445.953389831 608 370 c 1
 672 372 824 372 838 373 c 0
 875 378 880 404 896 448 c 1
 930 441 l 1
 921.800908316 410.132831309 918.486685813 379.498275435 918.486685813 348.871954284 c 0
 918.486685813 315.997648821 922.305294619 283.132831309 928 250 c 1
 892 241 l 1
 872 312 879 325 838 329 c 0
 794 334 701 333 608 334 c 1
 607 236.227091633 611 147.525896414 623 81 c 0
 627 64 636 50 653 49 c 0
 698.831179232 44.5647245905 737.376555516 40.3723092792 773.782518979 40.3723092792 c 0
 811.251037011 40.3723092792 846.453436792 44.8130178498 885 58 c 0
 944 78 954 101 993 177 c 1
 1021 170 l 1
 1005 104 994 62 982 0 c 1
 877.083081066 1.45355771389 767.073393242 3.06987648348 667.598205869 3.06987648348 c 0
 584.624915197 3.06987648348 509.225266505 0.552582785989 451 -9 c 1
 441 26 l 1
 494 36 527 49 527 77 c 1
 528.380926187 103.914026086 529.284877868 166.790357996 529.630859375 241.087890625 c 1
 467.278003094 249.660049211 355.177385742 253.494120142 272.916992188 247 c 1
 235.500997091 184.6 209.014082931 147.759493671 176.979 87 c 0
 158.157 51 172.988 29 244.937 34 c 1
 239.599 -10 l 1
 207.9511992 -3.42116167511 156.803289353 0.296115413079 108.669988834 0.296115413079 c 0
 76.3230769561 0.296115413079 45.3376267038 -1.38268590218 22.5469 -5 c 1
 22.5469 -5 18.2832 20 19.9365 34 c 1
 71.5889 48 102.294 57 117.652 80 c 0
 245.893953454 285.468704307 363.399910804 480.400810666 462.046875 648.923828125 c 1
 441.407911312 652.540879605 417.029954203 656.00792895 391 661 c 1
 396 692 l 1
499.977539062 640.265625 m 1
 473.026905511 593.239042544 345.505326951 370.882231497 296.875 289 c 1
 347.043311173 284.20133642 475.957582399 285.850220822 529.76953125 285.991210938 c 1
 529.972511301 417.75573903 528.516654383 568.318110715 525 618 c 0
 524.612992871 628.452823952 515.381822824 635.158711011 499.977539062 640.265625 c 1
EndSplineSet
Position2: "cpsp-1" dx=0 dy=0 dh=50 dv=100
Substitution2: "c2pc-1" ae.pcap
Substitution2: "c2sc-1" ae.smcp
EndChar
StartChar: eogonek
Encoding: 281 281 253
GlifName: eogonek
Width: 409
UnlinkRmOvrlpSave: 1
Flags: HW
AnchorPoint: "Top" 209 465 basechar 0
LayerCount: 2
Back
SplineSet
366.630859375 52.54296875 m 1xd0
 276.377929688 -47.1502175719 262.771484375 -94.5674013864 262.771484375 -186 c 3
 262.771484375 -236.143554688 288.107421875 -265.872070312 320.166015625 -265.872070312 c 3
 339.918945312 -265.872070312 363.635742188 -255.18359375 387.97265625 -231.599609375 c 9
 387.97265625 -231.599609375 399.081054688 -241.926757812 401.771484375 -250 c 1
 374.767578125 -302.788085938 329.271484375 -326 287.771484375 -326 c 3
 237.798828125 -326 193.561523438 -284.413085938 193.561523438 -214.834960938 c 3
 193.561523438 -150.617750838 236.666992188 -26.3930451996 359.931640625 73.76171875 c 1
 366.630859375 52.54296875 l 1xd0
EndSplineSet
Fore
SplineSet
363.98046875 49.884765625 m 1
 273.727539062 -43.5393374647 260.12109375 -87.9747324245 260.12109375 -173.658203125 c 3
 260.12109375 -217.5234375 285.45703125 -243.530273438 317.515625 -243.530273438 c 3
 330.34375 -243.530273438 345.74609375 -239.079101562 361.55078125 -229.2578125 c 1
 361.55078125 -229.2578125 372.66015625 -239.584960938 375.349609375 -247.658203125 c 1
 353.9765625 -286.5546875 317.967773438 -303.658203125 285.12109375 -303.658203125 c 3
 235.149414062 -303.658203125 190.912109375 -265.8125 190.912109375 -202.493164062 c 3
 190.912109375 -141.613760624 234.016601562 -23.8457629693 357.282226562 71.103515625 c 1
 363.98046875 49.884765625 l 1
EndSplineSet
Refer: 4 101 N 1 0 0 1 0 0 2
Substitution2: "pcap-1" eogonek.pcap
Substitution2: "smcp-1" eogonek.smcp
EndChar
StartChar: dotlessi
Encoding: 305 305 50
GlifName: dotlessi
Width: 263
Flags: HMW
AnchorPoint: "Bottom" 144 -15 basechar 0
AnchorPoint: "Ogonek" 196 6 basechar 0
AnchorPoint: "Top" 136 465 basechar 0
LayerCount: 2
Fore
SplineSet
168 196 m 3
 168 155.901408451 172.137631404 88.2043246845 177 50 c 0
 179 34.2857142857 198.905002779 29.6180204281 210 28 c 0
 226 26.6 244 25.5 258 25 c 1
 254 -9 l 1
 215 -4.09090909091 171 0 129 0 c 3
 99 0 63 -5.09090909091 33 -8 c 1
 30 25 l 1
 41 25.8 56.9619180083 27.6882279372 68 29 c 0
 91 31.7333333333 91.9422174226 45.248826494 94 72 c 0
 96 98 97 148.96 97 176 c 3
 97 196 96.9421892434 237.924972105 93 301 c 0
 92 317 87 330 70 330 c 3
 64 330 49 326 40 325 c 1
 33 357 l 1
 85 369 122 383 175 431 c 1
 195 415 l 1
 189 401 184.477799264 373.902316763 182 363 c 0
 172 319 168 213 168 196 c 3
EndSplineSet
Substitution2: "smcp-1" i.smcp
Substitution2: "pcap-1" i.pcap
EndChar
StartChar: kgreenlandic
Encoding: 312 312 345
GlifName: kgreenlandic
Width: 520
Flags: HW
LayerCount: 2
Fore
SplineSet
179 211 m 1
 169 204 l 1
 169 140.25 171.723635175 78.5727361869 175 54 c 0
 177 39 185.619315018 37.1522739927 196 33 c 0
 206 29 216 28 230 27 c 1
 225 -7 l 1
 191 -1 172 4 130 4 c 3
 100 4 64 -3 34 -5 c 1
 32 28 l 1
 43 29 54.2438024311 30.030722479 64 33 c 0
 87 40 93.3132247115 48.0575369992 96 76 c 0
 101 128 105 170 105 235 c 3
 105 253.368013699 103.27297056 281.632471039 101 318 c 0
 100 334 94 348 77 348 c 3
 71 348 51 345 41 344 c 1
 36 373 l 1
 88 381.884615385 124 387.538461538 167 415 c 1
 187 399 l 1
 181 385 174.184346429 357.982026431 173 347 c 0
 171 328.454705882 168 273.908529412 167 227 c 1
 201.5858 255.29682906 250.733796152 297.620653704 285 330 c 0
 291.596571429 336.233333333 301 348.518518519 301 355 c 3
 301 373 277 372 267 374 c 1
 269 401 l 1
 295 399 330 399 357 399 c 3
 388.166666667 399 428.777777778 399 459 403 c 1
 461 371 l 1
 400.820895522 364.000222222 364.689666047 341.369176033 333 319 c 2
 231 247 l 1
 297.824402928 186.179636497 367.532605558 122.858938129 446 52 c 1
 462 37 490 29 504 28 c 1
 501 -6 l 1
 467 0 449 4 407 4 c 3
 377 4 345 -3 315 -5 c 1
 312 28 l 1
 348 33 348 37 359 38 c 1
 296.777686305 99.8038948798 205.773756239 186.901875399 179 211 c 1
EndSplineSet
EndChar
StartChar: Eng
Encoding: 330 330 468
GlifName: E_ng
Width: 836
Flags: HW
LayerCount: 2
Fore
SplineSet
628 -189 m 0
 589 -216 552 -241 493 -241 c 3
 461 -241 411 -230 386 -208 c 1
 387.224489796 -178.046875 386 -178.046875 446 -137 c 1
 485 -155 508.349151158 -179 554 -179 c 3
 640.616503398 -179 676.265625 -76.9678502479 676.265625 -13.4755859375 c 3
 676.265625 48.2626834417 640.03404243 103.097021502 604 139.090820312 c 0
 459.896 279.614068929 313.026 416.065410818 161 550 c 1
 152 154 l 2
 149.672574689 52.4216563039 186 44.674796748 277 35 c 1
 269 -11 l 1
 229.225006617 -2.55029543162 191.72886241 0.193359375 156.584960938 0.193359375 c 0
 107.789937357 0.193359375 63.5294692282 -6.59829339283 24 -10 c 1
 19 34 l 1
 77 34 94.2505340003 45.0370931165 97 93 c 0
 106 246.782786885 108.836453881 409.412965035 105 571 c 0
 104 614 69 649 12 648 c 1
 14 692 l 1
 53 688 104.987806691 684 146 684 c 0
 161 684 162.224003945 680.217054625 169 673 c 0
 318.792 516.927864326 473.300161891 367.004316767 636 223.227539062 c 0
 659.155 202.310678333 682.86 176.9488472 699 154 c 1
 708 281.98180798 710.135155394 409.964631854 709 545 c 0
 708 667 656 656 597 663 c 1
 602 701 l 1
 658.737273127 693.806776525 706.285370634 691.3984375 751.0625 691.3984375 c 0
 778.931628397 691.3984375 805.747514379 692.483615703 833 694 c 1
 837 655 l 1
 788 649 766.708243919 651.026764413 763 609 c 0
 748 442.189493433 745 264.596148366 745 86 c 0
 745 63 747 43 747 0 c 3
 747 -86.94 692.388915009 -144.42305884 628 -189 c 0
EndSplineSet
Position2: "cpsp-1" dx=0 dy=0 dh=50 dv=100
Substitution2: "c2sc-1" eng.smcp
Substitution2: "c2pc-1" eng.pcap
EndChar
StartChar: uni0191
Encoding: 401 401 1991
GlifName: uni0191
Width: 566
Flags: HW
LayerCount: 2
Fore
SplineSet
100 613 m 0
 99 640 85 640 12 654 c 1
 17 685 l 1
 72.5693359375 682.208007812 135.545898438 680.974609375 197.612304688 680.974609375 c 3
 357.814453125 680.974609375 511.955078125 689.188476562 517 700 c 1
 533.364257812 690.374023438 538 683 538 662 c 0
 538 640 532.59375 602.985351562 530 534 c 1
 499 531 l 1
 488 567 492.194335938 614.658203125 456 625 c 0
 393 643 292.116210938 650.012695312 211 641 c 0
 193 639 189.889648438 622.005859375 189 604 c 0
 185 523 186 446 186 371 c 1
 250 373 382.090820312 369.120117188 396 371 c 0
 433 376 439 402 455 446 c 1
 489 439 l 1
 480.80078125 408.1328125 477.486328125 377.498046875 477.486328125 346.872070312 c 3
 477.486328125 313.998046875 481.305664062 281.1328125 487 248 c 1
 451 239 l 1
 431 310 436.931640625 322.348632812 396 327 c 0
 352 332 278 331 185 332 c 1
 183.518987342 219 183.857421875 264.909513116 183.857421875 156 c 3
 183.857421875 -45.5189056133 181.691494061 -104.752042573 60 -189 c 0
 21 -216 -16 -241 -75 -241 c 3
 -107 -241 -157 -230 -182 -208 c 1
 -180.775510204 -178.046875 -182 -178.046875 -122 -137 c 1
 -83 -155 -59.650848842 -179 -14 -179 c 3
 123.758644643 -179 105.748046875 -3.25197176855 105.748046875 129 c 3
 105.748046875 269.484864474 102.712540065 539.779746226 100 613 c 0
EndSplineSet
EndChar
StartChar: uni0194
Encoding: 404 404 1372
GlifName: uni0194
Width: 749
UnlinkRmOvrlpSave: 1
Flags: HW
LayerCount: 2
Fore
SplineSet
125 608 m 0
 98 636 76 636 17 652 c 1
 21 692 l 1
 78 686 222 679 280 690 c 1
 285 651 l 1
 285 651 263 649 248 649 c 0
 230 649 214.844009904 638.898043821 226 622 c 0
 325.378973408 458.754267846 530 72.883537374 530 -80 c 3
 530 -160.120526714 495.109999894 -242 395 -242 c 3
 309.791732073 -242 272 -174.480377907 272 -94 c 3
 272 7.25500959342 451.830860347 420.853785411 547 589 c 0
 559 609 565 633 539 643 c 0
 527 648 508 650 492 652 c 1
 494 691 l 1
 532 685 675 674 740 690 c 1
 740 647 l 1
 675 645 649.293842756 627.713645513 622 600 c 0
 508.323947346 477.883142293 316 -5.88164981191 316 -86 c 3
 316 -139.983642578 343.017907694 -190 395 -190 c 3
 432.930571222 -190 448 -133.524263822 448 -84 c 3
 448 25.3077460043 246.832662671 471.233665558 125 608 c 0
EndSplineSet
EndChar
StartChar: uni0195
Encoding: 405 405 1749
GlifName: uni0195
Width: 724
Flags: HW
LayerCount: 2
Fore
SplineSet
284 362 m 3
 237.511811024 362 192.960629921 348 161 330 c 1
 159 290.477272727 157 239.204545455 157 189 c 3
 157 130 159.174662365 75.1900322616 162 54 c 0
 164 39 183.085896873 34.4253562504 194 32 c 0
 203 30 222 28 232 27 c 1
 228 -7 l 1
 189 -1 159 4 117 4 c 3
 87 4 51 -1 21 -5 c 1
 18 28 l 1
 29 30 35.1817100136 30.1778373948 46 33 c 0
 69 39 81.3132247115 48.0575369992 84 76 c 0
 89 128 92 209 92 274 c 3
 92 511 90.315871388 604.946057792 89 626 c 0
 88 642 82 656 65 656 c 3
 59 656 33 650 23 649 c 1
 15 681 l 1
 67 692 127 720 170 754 c 1
 189 738 l 1
 183 724 176.562049935 696.934349546 175 686 c 0
 165 617.886227545 162 471.928143713 161 361 c 1
 212.74556213 392 284.99408284 411 326 411 c 3
 402.232479641 411 436.71875 350.667590362 436.71875 269.390625 c 3
 436.71875 228.59375 426 203.875 426 147 c 3
 426 66 481.608247423 47 519 47 c 3
 614.037267081 47 662 139 662 224 c 3
 662 337 590.149253731 347 546 347 c 1
 544 350 542 353 542 361 c 3
 542 383 572 422 579 430 c 1
 649.2 430 696 314 696 220 c 3
 696 109 625.568720379 -9 503 -9 c 3
 422.141935484 -9 352 44 352 148 c 3
 352 199.055795116 366.641611384 223.199481798 366.641611384 258.253199738 c 3
 366.641611384 319.260915156 339.126181232 362 284 362 c 3
EndSplineSet
Substitution2: "smcp-1" uni0195.smcp
Substitution2: "pcap-1" uni0195.pcap
EndChar
StartChar: uni0196
Encoding: 406 406 1975
GlifName: uni0196
Width: 326
Flags: HW
LayerCount: 2
Fore
SplineSet
116.599609375 539 m 0
 115 565 105.637695312 597 82.400390625 597 c 3
 70.6728515625 597 48 588 30.2001953125 586.25 c 1
 22 622 l 1
 68.0712890625 631.827148438 116.142578125 647.166015625 176.400390625 695 c 1
 199.15234375 689.430664062 199.329101562 668.951171875 202 637 c 0
 203.436523438 619.815429688 204.200195312 609.422851562 204.200195312 592.5 c 0
 204.200195312 518.0078125 197.456054688 417.247070312 197.456054688 287.506835938 c 3
 197.456054688 230.994140625 196.682617188 168.198242188 200 99 c 0
 201.931640625 58.7138671875 226.203125 38 249 38 c 3
 267.307617188 38 290.223632812 55.2900390625 305.508789062 62.3857421875 c 1
 320 32 l 1
 263.69140625 0.3720703125 228.991210938 -32 192.883789062 -32 c 3
 129.415039062 -32 113.473632812 15.7177734375 113.473632812 77.9169921875 c 3
 113.473632812 161.350585938 123.151367188 240.983398438 123.151367188 333.733398438 c 3
 123.151367188 397.54296875 121.129882812 465.366210938 116.599609375 539 c 0
EndSplineSet
EndChar
StartChar: uni0198
Encoding: 408 408 1989
GlifName: uni0198
Width: 687
Flags: HW
LayerCount: 2
Fore
SplineSet
236 370 m 1
 576 87 l 0
 610 59 649 38 677 23 c 1
 673 -1 l 1
 645 1 606 4 578 4 c 0
 545 4 503 1 471 -4 c 1
 467 21 l 1
 497 30 513.454283452 33.4072133617 491 58 c 0
 470 81 280 232 178 316 c 1
 178 235 180.437873927 134.085710579 183 79 c 0
 185 36 217 34 276 20 c 1
 272 -10 l 1
 195 2 115 7 15 -5 c 1
 12 28 l 1
 67 29 88.8448476065 35.0089550282 91 71 c 0
 101 238 101.21927907 417.969825563 95 589 c 0
 93 644 78 645 15 657 c 1
 21 688 l 1
 101 678 190 681 269 689 c 1
 272 657 l 1
 214 652 189.572216385 651.213235274 187 608 c 0
 182 524 178 444 178 357 c 1
 220.488107554 401.675670719 283.863543539 476.459463654 347 543.189453125 c 0
 420.965761113 621.365117979 478.688704962 696.489257812 548.770507812 696.489257812 c 3
 619.689656377 696.489257812 662 654.763980872 662 594 c 3
 662 554.444658561 634.129127673 535.030273438 604.740234375 535.030273438 c 3
 582.598681853 535.030273438 559.595489704 547.806929751 547 573 c 1
 556.570921215 587.361991845 565 594.861661579 565 622 c 3
 565 633.888349158 550.656639289 643.274414062 533.823242188 643.274414062 c 3
 504.593942763 643.274414062 464.167926381 606.405004804 418.000002622 560.375045523 c 0
 355.786719522 498.34767555 274.781381017 411.818567198 236 370 c 1
EndSplineSet
EndChar
StartChar: uni019E
Encoding: 414 414 1970
GlifName: uni019E_
Width: 526
Flags: HW
AnchorPoint: "Top" 272 465 basechar 0
LayerCount: 2
Fore
SplineSet
515 -214 m 1
 510 -248 l 1
 471 -239 450 -237 408 -237 c 3
 378 -237 335 -242 309 -248 c 1
 305 -215 l 1
 343.064095077 -208.079255441 371.21600591 -212.92819944 373 -165 c 0
 375 -111.268656716 379 9.62686567164 379 60 c 3
 379 138.03125 377.588535002 255.239646208 374 287 c 0
 369 328.328358209 348 358 293 358 c 3
 245 358 203 344.4 170 324 c 1
 168 234.329113924 161 109.430379747 161 71 c 3
 161 27.80589946 195.795590225 30.6204409775 232 27 c 1
 228 -7 l 1
 189 -1 159 4 117 4 c 3
 87 4 51 -1 21 -5 c 1
 18 28 l 1
 55.449092135 34.8089258427 78.318284601 37.5524032329 87 76 c 0
 94 107 95 167 95 199 c 3
 95 219 92.9313485795 287.976104104 86 308 c 0
 77 334 72 336 54 336 c 3
 44 336 41 335 32 335 c 1
 30 364 l 1
 67 371 104 375 154 416 c 1
 175 401 l 1
 170 387.056338028 167 366.915492958 167 346 c 1
 215 377 267 415 330 415 c 3
 403 415 448 375 448 304 c 3
 448 239.885714285 446 169.942857143 446 100 c 3
 446 -26.8139534884 443.994358813 -149.457691099 449 -187 c 0
 452.785023974 -215.387679806 488.573254621 -208.714650924 515 -214 c 1
EndSplineSet
Substitution2: "smcp-1" uni019E.smcp
EndChar
StartChar: Ohorn
Encoding: 416 416 758
GlifName: O_horn
Width: 845
UnlinkRmOvrlpSave: 1
Flags: HW
AnchorPoint: "Top" 420 699 basechar 0
AnchorPoint: "Bottom" 416 -15 basechar 0
AnchorPoint: "Middle" 417.697 364.853 basechar 0
LayerCount: 2
Fore
SplineSet
752 688 m 3
 752 709.041992188 737.181640625 725.625976562 713 743 c 1
 725.31640625 773.641601562 749.9765625 792.919921875 776.541992188 792.919921875 c 3
 815.244140625 792.919921875 840.643554688 764.76171875 840.643554688 735.86328125 c 3
 840.643554688 658.776367188 740.266601562 594.1328125 659.493164062 594.1328125 c 3
 648.712890625 594.1328125 639.3671875 598.567382812 630 606 c 1
 586 657 l 1
 607.8671875 639.8828125 627.685546875 627 652 627 c 3
 692.520507812 627 752 646.424804688 752 688 c 3
EndSplineSet
Refer: 40 79 N 1 0 0 1 0 0 2
Position2: "cpsp-1" dx=0 dy=0 dh=50 dv=100
Substitution2: "c2pc-1" ohorn.pcap
Substitution2: "c2sc-1" ohorn.smcp
EndChar
StartChar: Uhorn
Encoding: 431 431 760
GlifName: U_horn
Width: 827
UnlinkRmOvrlpSave: 1
Flags: HW
AnchorPoint: "Top" 441 699 basechar 0
AnchorPoint: "Ogonek" 490 11 basechar 0
AnchorPoint: "Bottom" 420 -15 basechar 0
LayerCount: 2
Fore
SplineSet
784 642 m 0
 761.478546471 636.66795393 740.04456668 635.741559345 736 590 c 0
 735.091705198 579.727744928 731.787772597 469.658489995 729 255 c 0
 728 178 703.339117404 117.635735037 662 74 c 0
 608 17 523 -10 412 -10 c 3
 299 -10 220.090904911 16.0950453125 172 62 c 0
 128 104 109 163 109 236 c 0
 109 266.168539326 114 578.915730337 114 594 c 0
 114 638 102 641 20 650 c 1
 25 690 l 1
 55 686.5 103.25 684.75 154.125 684.75 c 0
 205 684.75 258.5 686.5 299 690 c 1
 303 654 l 1
 235 648 204 646.009090158 204 591 c 0
 204 583.958083832 196 287.191616766 196 255 c 0
 196 196 207.684535021 144.717092872 240 109 c 0
 278 67 345 44 453 44 c 3
 479 44 562.229152898 44.763500117 619 100 c 0
 656 136 668.983205589 181.001106759 674 257 c 0
 680 347.893371758 678.9219485 497.10161583 675 589 c 0
 673 635.863636364 645 650.568181818 579 652 c 1
 581 692 l 1
 621.355554481 685.58960168 705.122701859 680.796875 775.796875 680.796875 c 3
 803.822832579 680.796875 835.9140625 687.672407215 835.9140625 719.4453125 c 3
 835.9140625 734.991660599 824.343297353 747.24382169 805.458984375 760.080078125 c 1
 817.774221442 790.721679688 842.434890552 810 869 810 c 3
 906.495832074 810 931.1015625 781.841796875 931.1015625 752.943359375 c 3
 931.1015625 671.477853735 849.800683128 657.57858037 784 642 c 0
EndSplineSet
Position2: "cpsp-1" dx=0 dy=0 dh=50 dv=100
Substitution2: "c2pc-1" uhorn.pcap
Substitution2: "c2sc-1" uhorn.smcp
EndChar
StartChar: uni01B4
Encoding: 436 436 1994
GlifName: uni01B_4
Width: 540
Flags: HW
LayerCount: 2
Fore
SplineSet
348.607721582 244.000003017 m 0
 317.480216416 177.891097822 270.643813919 81.1219999326 223 -12 c 0
 179 -98 113 -281 113 -346 c 1
 109 -346 90 -343 52 -343 c 3
 22 -343 15 -345 -6 -346 c 1
 -6 -346 -5 -330 -7 -319 c 1
 85 -283 73 -255 176 -32 c 1
 148 100.845703125 84.3007692526 310.427472496 58 348 c 0
 51 358 47.9141031266 367.57464375 37 370 c 0
 28 372 16 375 6 376 c 1
 10 406 l 1
 33 402 68 400 91 400 c 3
 125 400 153 401 185 407 c 1
 189 379 l 1
 156 370 l 0
 149 369 145 368 145 359 c 3
 145 358 147.182637941 351.033082481 148 346 c 0
 160 272.107421875 192 153.462890625 226 65 c 1
 253.787010354 108.25843066 277.318015944 161.613683748 301.833476298 212.999996349 c 0
 340 293 365.956234083 419 468.797851562 419 c 3
 513.394001396 419 540 389.1786974 540 355.576171875 c 3
 540 317.727644957 518.04296875 299.151367188 494.890625 299.151367188 c 3
 477.447265625 299.151367188 459.326171875 306.061106972 449.40234375 319.6875 c 1
 455.037981899 328.571965144 460 333.211388221 460 350 c 3
 460 358.212890625 451.46067245 364.697265625 441.439453125 364.697265625 c 3
 400.623221682 364.697265625 372.050906445 293.788872291 348.607721582 244.000003017 c 0
EndSplineSet
EndChar
StartChar: uni01EA
Encoding: 490 490 308
GlifName: uni01E_A_
Width: 845
UnlinkRmOvrlpSave: 1
Flags: HW
AnchorPoint: "Middle" 417.697 364.853 basechar 0
AnchorPoint: "Top" 420 699 basechar 0
LayerCount: 2
Fore
SplineSet
499.177734375 3.734375 m 1
 426.834960938 -46.17578125 387.640625 -131.358398438 387.640625 -195.689453125 c 3
 387.640625 -237.126953125 415.827148438 -273.168945312 446.834960938 -273.168945312 c 3
 467.810546875 -273.168945312 492.994140625 -264.435546875 518.834960938 -245.168945312 c 9
 518.834960938 -245.168945312 529.944335938 -255.497070312 532.633789062 -263.569335938 c 1
 505.579101562 -311.305664062 453.14453125 -346.888671875 411.564453125 -346.888671875 c 3
 362.384765625 -346.888671875 315.765625 -298.078125 315.765625 -236.513671875 c 3
 315.765625 -152.803710938 349.834960938 -47.5556640625 492.478515625 36.453125 c 1
 499.177734375 3.734375 l 1
EndSplineSet
Refer: 40 79 N 1 0 0 1 0 0 2
Position2: "cpsp-1" dx=0 dy=0 dh=50 dv=100
EndChar
StartChar: uni01EB
Encoding: 491 491 309
GlifName: uni01E_B_
Width: 505
UnlinkRmOvrlpSave: 1
Flags: HW
AnchorPoint: "Top" 251 465 basechar 0
AnchorPoint: "Middle" 255 206 basechar 0
LayerCount: 2
Fore
SplineSet
360.98046875 13.54296875 m 1
 270.727539062 -74.0302734375 257.12109375 -115.682617188 257.12109375 -196 c 3
 257.12109375 -239.865234375 282.45703125 -265.872070312 314.515625 -265.872070312 c 3
 334.268554688 -265.872070312 357.986328125 -255.18359375 382.322265625 -231.599609375 c 9
 382.322265625 -231.599609375 393.431640625 -241.926757812 396.12109375 -250 c 1
 369.1171875 -302.788085938 323.62109375 -326 282.12109375 -326 c 3
 232.149414062 -326 187.912109375 -288.154296875 187.912109375 -224.834960938 c 3
 187.912109375 -172.674804688 223.05859375 -76.5009765625 320.63671875 8 c 9
 360.98046875 13.54296875 l 1
EndSplineSet
Refer: 14 111 N 1 0 0 1 0 0 2
EndChar
StartChar: uni021C
Encoding: 540 540 1745
GlifName: uni021C_
Width: 485
UnlinkRmOvrlpSave: 1
Flags: HW
LayerCount: 2
Fore
SplineSet
281 353 m 1
 345.905273438 337.3984375 449 244.3984375 449 151 c 3
 449 -2.5634765625 193.696289062 -161.83984375 57 -175 c 1
 52 -140 l 1
 184.403320312 -128.6640625 356 13.625 356 135 c 3
 356 218.091796875 273.137695312 292.672851562 201 313 c 1
 281 353 l 1
95 294 m 1
 217.060546875 330.731445312 334 406.58984375 334 535 c 3
 334 589.651367188 274.817382812 644 226 644 c 3
 161.032226562 644 84.4619140625 595.852539062 56 515 c 1
 29 523 l 1
 38 570 46 596 58 643 c 1
 111.806640625 673.446289062 177.571289062 698 257 698 c 3
 342.772460938 698 422 615.584960938 422 555 c 3
 422 410.931640625 241.125 285.915039062 109 261 c 1
 95 294 l 1
EndSplineSet
EndChar
StartChar: uni0220
Encoding: 544 544 1972
GlifName: uni0220
Width: 644
Flags: HW
AnchorPoint: "Top" 376 699 basechar 0
LayerCount: 2
Fore
SplineSet
668 -213 m 1
 668 -213 663 -233 664 -247 c 1
 629.008077782 -239.607340376 593.044574829 -235.37231814 555.391234575 -235.37231814 c 0
 516.644451928 -235.37231814 476.108262133 -239.856879498 433 -250 c 1
 433 -250 427 -227 425 -215 c 1
 494.775390625 -200.154296875 505.095703125 -194.717773438 510.799804688 -128.75 c 0
 515.616210938 -73.044921875 520.400390625 52.66796875 520.400390625 105 c 3
 520.400390625 231.9296875 516.90625 421.485351562 514.400390625 474.25 c 0
 510.45703125 557.28515625 482.892578125 616.5 398.799804688 616.5 c 3
 315.755859375 616.5 243.092773438 591.5 186 554 c 1
 186.35546875 394.240234375 187.599609375 171.71875 187.599609375 103.25 c 3
 187.599609375 31.212890625 219.473632812 38.583984375 277 26 c 1
 277 26 273 3 272 -11 c 1
 220.392393862 -2.39873231031 175.431590595 2.44564680006 132.612272285 2.44564680006 c 0
 95.7794837565 2.44564680006 60.5312407821 -1.1388469203 24 -9 c 1
 24 -9 19 15 17 33 c 1
 74.3115234375 42.5517578125 103.879882812 52.6318359375 105.200195312 112 c 0
 106.524414062 171.532226562 106 286.786132812 106 348.25 c 3
 106 383.25 101.497070312 503.950195312 98.599609375 539 c 0
 94.0888671875 593.5625 73.6376953125 597 64.400390625 597 c 3
 52.6728515625 597 30 588 12.2001953125 586.25 c 1
 4 622 l 1
 50.0712890625 631.827148438 98.142578125 647.166015625 158.400390625 695 c 1
 168.941315276 692.41974018 174.636804856 686.63909523 177.979571614 678.000002187 c 0
 185.298205261 659.08562329 186.200195312 618.413599513 186.200195312 592.5 c 1
 259.465820312 640.010742188 338.837890625 698.25 435 698.25 c 3
 535.096679688 698.25 596.799804688 628.25 596.799804688 504 c 3
 596.799804688 400.599609375 593.599609375 287.799804688 593.599609375 175 c 3
 593.599609375 23.7734375 592.690429688 -122.018554688 598.400390625 -167.25 c 0
 603.58984375 -208.36328125 626.857421875 -210.256835938 668 -213 c 1
EndSplineSet
EndChar
StartChar: uni0223
Encoding: 547 547 1756
GlifName: uni0223
Width: 505
UnlinkRmOvrlpSave: 1
Flags: HW
LayerCount: 2
Fore
SplineSet
142.771484375 632.404296875 m 1
 136.000137022 620.896141503 128.428710938 604.550367327 128.428710938 581.482421875 c 3
 128.428710938 486.147181428 195.891052506 443.467043117 267.124023438 429 c 0
 377.449604451 406.593452631 473 325.307519939 473 208.216796875 c 3
 473 77.0469727635 378.797699162 -10 253.713867188 -10 c 3
 138.817848132 -10 32 62.454288434 32 199.11328125 c 3
 32 305.616637844 114.681038842 385.9549512 193.999997812 412.166772416 c 1
 208.777417728 421.472852403 223.438476562 425.19921875 237.42578125 427 c 1
 322.020507812 432.524414062 374.314453125 493.683927903 374.314453125 539.088867188 c 3
 374.314453125 580.888505508 368.510036426 610.212428847 358 634.676757812 c 1
 387 646 l 1
 408.098728073 635.650858628 434 599.532139883 434 559.005859375 c 3
 434 490.835593766 374.994140625 429.026367188 288 404.080078125 c 1
 273.189453125 396.063476562 257.568520686 391.954942899 241.2890625 388 c 1
 175.28783652 379.478857291 108.057617188 315.930882685 108.057617188 225.57421875 c 3
 108.057617188 127.971132886 172.297311821 28.341796875 266.314453125 28.341796875 c 3
 380.75820258 28.341796875 393.942382812 138.733310856 393.942382812 186.11328125 c 3
 393.942382812 280.7265625 328.320447516 369.017057706 221.077148438 387.515625 c 0
 135.148225323 402.33764167 72.0576171875 466.737304688 72.0576171875 545.581054688 c 3
 72.0576171875 599.096174571 99.5263996359 628.612213256 117.713867188 643 c 1
 142.771484375 632.404296875 l 1
EndSplineSet
Substitution2: "pcap-1" uni0223.pcap
Substitution2: "smcp-1" uni0223.smcp
EndChar
StartChar: uni0251
Encoding: 593 593 1118
GlifName: uni0251
Width: 498
Flags: HW
LayerCount: 2
Fore
SplineSet
421 32 m 0
 424.682539696 18.3457368785 434.038476052 21.7252788721 435 22 c 0
 449 26 476 34 488 38 c 1
 497 11 l 1
 444 -9 381 -32 367 -32 c 3
 360 -32 349.65732448 -30.1184630346 349 -15 c 0
 348 8 348 49 348 53 c 1
 309.958333333 29.4 251.166666667 -6 182 -6 c 3
 91.7567567568 -6 23 78.0736842105 23 157 c 3
 23 294.672268908 148.407692308 411 297 411 c 3
 356.888888889 411 356.888888889 403 381 403 c 3
 404 403 412 424 419 431 c 1
 438 420 l 1
 436 414 432.1144823 397.343446901 429 388 c 0
 423 368.736842105 417.044137507 347.444029799 414 266 c 0
 413 241 413 135 413 93 c 3
 413 72.7768968193 416.139970846 50.0202040812 421 32 c 0
343 84 m 1
 345 169.736170213 348 218.195744681 348 303 c 3
 348 309 343.813776741 324.844582472 338 332 c 0
 317.473684211 358.046511628 280.368421053 367 248 367 c 3
 163.131386861 367 97 283.4 97 191 c 3
 97 117.408839779 146.558441558 43 241 43 c 3
 304 43 333 71.9411764706 343 84 c 1
EndSplineSet
EndChar
StartChar: uni0256
Encoding: 598 598 2719
Width: 511
Flags: HW
AnchorPoint: "TopRight" 503.5 581 basechar 0
AnchorPoint: "Top" 390 734 basechar 0
AnchorPoint: "Bottom" 224 -15 basechar 0
LayerCount: 2
Back
SplineSet
426 55 m 3xe8
 426 -1.51269531285 424.820861155 -64.3292355529 428.543945312 -133.506835938 c 0
 430.712113361 -173.79296875 457.955616231 -194.506835938 483.543945312 -194.506835938 c 3
 501.851562501 -194.506835938 524.767578125 -177.216796875 540.052734375 -170.12109375 c 1
 554.543945312 -200.506835938 l 1
 498.235351563 -232.134765625 463.535156251 -264.506835938 427.427734375 -264.506835938 c 3
 365.557488974 -264.506835938 350.017578125 -216.7890625 350.017578125 -154.58984375 c 3xf0
 350.017578125 -86.5590221972 362 -21.6273152742 362 54 c 1027
EndSplineSet
Fore
SplineSet
427 185 m 3
 427 89.5144454052 422.207254437 -15.7665296108 428.543945312 -133.506835938 c 0
 430.712113361 -173.79296875 457.955616231 -194.506835938 483.543945312 -194.506835938 c 3
 501.851562501 -194.506835938 524.767578125 -177.216796875 540.052734375 -170.12109375 c 1
 554.543945312 -200.506835938 l 1
 498.235351563 -232.134765625 463.535156251 -264.506835938 427.427734375 -264.506835938 c 3
 365.557488974 -264.506835938 350.017578125 -216.7890625 350.017578125 -154.58984375 c 3
 350.017578125 -86.8851685729 361 -22.2647505687 361 53 c 1
 316.272727273 23 259.618181818 -5 197 -5 c 3
 97 -5 34 79 34 172 c 3
 34 252 79.5630586284 321.640322119 135 359 c 0
 181 390 237 405 267 405 c 3
 292 405 349 388 363 386 c 1
 363 504 361 562.992063992 361 626 c 0
 361 642 354 656 337 656 c 3
 331 656 306 650 296 649 c 1
 288 681 l 1
 340 692 399 720 442 754 c 1
 462 738 l 1
 456 724 449.413489624 696.954544586 448 686 c 0
 428 531 427 354 427 185 c 3
228 359 m 3
 206 359 174.4998206 345.796757268 155 333 c 0
 123 312 98 278 98 226 c 3
 98 136 154 44 256 44 c 3
 297 44 333 60 358 80 c 1
 359 154 362 231 362 306 c 0
 362 337 336 340 310 346 c 0
 284 352 238 359 228 359 c 3
EndSplineSet
EndChar
StartChar: uni0257
Encoding: 599 599 1997
GlifName: uni0257
Width: 511
Flags: HW
LayerCount: 2
Fore
SplineSet
228 359 m 3
 206 359 175 345 155 333 c 0
 123 312 98 278 98 226 c 3
 98 136 154 44 256 44 c 3
 297 44 333 60 358 80 c 1
 359 154 362 231 362 306 c 0
 362 337 336 340 310 346 c 0
 284 352 238 359 228 359 c 3
364 511 m 3
 364 605.576271186 384.666449212 648.938384759 433 696 c 0
 471 733 559.484375 766.183908046 567 767 c 1
 588 767 622 739 622 712 c 3
 622 681 593 660 554 660 c 1
 545.882352941 693.75 528.294117647 700 508 700 c 3
 494.829268293 700 464.484739915 686.682705237 448 668 c 0
 433 651 434.110619241 589.997665195 433 540 c 0
 431.800766417 486.013109645 427 371.343764165 427 185 c 3
 427 133 428 80 435 32 c 0
 437 18 448 22 449 22 c 0
 463 26 490 34 502 38 c 1
 511 11 l 1
 458 -9 395 -32 381 -32 c 3
 374 -32 365 -30 363 -15 c 0
 361 8 361 49 361 53 c 1
 317 23 260 -5 197 -5 c 3
 97 -5 34 79 34 172 c 3
 34 252 80 321 135 359 c 0
 181 390 237 405 267 405 c 3
 292 405 349 388 363 386 c 1
 363 421 364 482.759166021 364 511 c 3
EndSplineSet
EndChar
StartChar: uni025A
Encoding: 602 602 2755
Width: 562
UnlinkRmOvrlpSave: 1
Flags: HW
AnchorPoint: "Top" 200 465 basechar 0
AnchorPoint: "Bottom" 185 -15 basechar 0
LayerCount: 2
Fore
SplineSet
414.276367188 277.443359375 m 1
 414.276367188 243.9713234 412.0390625 215.783897853 412.0390625 186.250976562 c 3
 412.0390625 134.933236347 425.149524633 95.5634765625 477.346679688 95.5634765625 c 3
 501.392496717 95.5634765625 524.501168121 118.040074393 562 140 c 1
 551.130859375 162.7890625 l 1
 542.557277479 158.504247818 529.703477788 148.063476562 519.434570312 148.063476562 c 3
 496.870703125 148.063476562 475.141289294 166.614738798 470.934570312 202.063476562 c 0
 466.297944032 241.134912003 468.616295143 286.18931991 469.514322862 315.999998854 c 1
 448 327.576171875 l 1
 314.639931757 257.455829682 153.467639438 182.967579318 20 131 c 1
 20 107 l 1
 31 106 46 98 51 86 c 0
 71.3556074335 37.1465421596 132 -8 190 -8 c 3
 224 -8 367 52 367 227 c 3
 367 334 306 417 199 417 c 3
 130 417 70 382 28 349 c 1
 49 322 l 1
 77 345 116 367 163 367 c 3
 222 367 292 321 292 207 c 3
 292 130.837433832 268.704814097 39 204 39 c 3
 158.425531915 39 112.85106383 89.9625 102 135 c 1
 110 139 l 0
 414.276367188 277.443359375 l 1
EndSplineSet
EndChar
StartChar: uni025D
Encoding: 605 605 2756
Width: 525
Flags: HW
AnchorPoint: "Top" 199 465 basechar 0
AnchorPoint: "Bottom" 184 -15 basechar 0
LayerCount: 2
Back
SplineSet
200 226 m 1
 264.862778045 252.853039808 343.189499545 291.343113399 408 327.576171875 c 1
 429.514648438 316 l 1
 428.616826581 286.189320756 426.299006926 241.134912396 430.934570312 202.063476562 c 0
 435.140338298 166.614625956 456.870703125 148.063476562 479.434570312 148.063476562 c 3
 489.703477788 148.063476562 502.557277479 158.504247818 511.130859375 162.7890625 c 1
 522 140 l 1
 484.501168121 118.040074393 461.392496717 95.5634765625 437.346679688 95.5634765625 c 3
 385.149524633 95.5634765625 372.0390625 134.933236347 372.0390625 186.250976562 c 3
 372.0390625 215.783897853 374.276367188 243.9713234 374.276367188 277.443359375 c 1
 224 210 l 1
 200 226 l 1
EndSplineSet
Fore
SplineSet
219 256 m 1
 269.580548175 265.132966956 333.893341197 284.220902907 408 327.576171875 c 1
 429.514648438 316 l 1
 428.616826581 286.189320756 426.299006926 241.134912396 430.934570312 202.063476562 c 0
 435.140338298 166.614625956 456.870703125 148.063476562 479.434570312 148.063476562 c 3
 489.703477788 148.063476562 502.557277479 158.504247818 511.130859375 162.7890625 c 1
 522 140 l 1
 484.501168121 118.040074393 461.392496717 95.5634765625 437.346679688 95.5634765625 c 3
 385.149524633 95.5634765625 372.0390625 134.933236347 372.0390625 186.250976562 c 3
 372.0390625 215.783897853 374.276367188 243.9713234 374.276367188 277.443359375 c 1
 320.221242471 253.512037477 261.438907362 243.015705075 222 236 c 1
 219 256 l 1
EndSplineSet
Refer: 1769 604 N 1 0 0 1 0 0 2
EndChar
StartChar: uni0283
Encoding: 643 643 2732
Width: 309
Flags: HW
LayerCount: 2
Fore
SplineSet
114 266 m 0
 114 328.450964172 113 424.161769924 113 493 c 3
 113 601 143.077949695 661.439820849 200 704 c 0
 236.111111111 731 270.37037037 756 325 756 c 3
 357 756 407 745 432 723 c 1
 431 696 432 696 383 659 c 1
 344 677 313 701 275 701 c 3
 198.186440678 701 195.27024278 608.896437283 187 498 c 1
 187 434.60965851 185.722269097 351.021209812 185 293 c 0
 184.164092406 225.85 184.42446481 171.543697529 183.345703125 55 c 0
 182.342007512 -53.4339567976 179.423768933 -124.413476345 170.249023438 -172 c 0
 157.630814681 -237.446686212 132.308131815 -279.271062226 103.470703125 -323 c 1
 93.330078125 -322 94.189453125 -321 52.189453125 -321 c 3
 31.189453125 -321 -0.248046875 -325 -12.1083984375 -326 c 1
 -22.1669921875 -290 l 1
 34.828869585 -275.843201216 68.3758175305 -238.849077265 86.3564453125 -187 c 0
 104.803838183 -131.964818646 113.811919211 -53.1323947924 115.264648438 20 c 0
 116.034822802 87.1082535059 114 193.315942361 114 266 c 0
EndSplineSet
EndChar
StartChar: uni0285
Encoding: 645 645 2819
Width: 358
Flags: HW
LayerCount: 2
Fore
SplineSet
288 277 m 3
 288 307.571289062 275.333007812 357.538085938 250 384 c 0
 241.190429575 393.202148329 196.721679688 422 182 422 c 3
 168.1953125 422 105.616210937 403.338867188 55 367 c 0
 36.0535021732 353.397751719 28 340 28 326 c 3
 28 316 33 296 37 286 c 1
 112 316 l 1
 111 321 105 334 105 343 c 3
 105 360.357421875 109.166992188 370 130 370 c 3
 147.721679688 370 173.724609375 357.153320312 180 352 c 0
 203.466643931 332.729305941 220 303.416992188 220 246 c 3
 220 -15.2316979235 212.017578125 -23.9389180573 212.017578125 -154.58984375 c 3
 212.017578125 -216.7890625 227.557488974 -264.506835938 289.427734375 -264.506835938 c 3
 325.535156251 -264.506835938 360.235351563 -232.134765625 416.543945312 -200.506835938 c 1
 402.052734375 -170.12109375 l 1
 386.767578125 -177.216796875 363.851562501 -194.506835938 345.543945312 -194.506835938 c 3
 319.955616232 -194.506835938 292.681157537 -173.79462284 290.543945312 -133.506835938 c 0
 285 -29 288 60.9791676713 288 277 c 3
EndSplineSet
EndChar
StartChar: uni0328
Encoding: 808 808 254
GlifName: uni0328
Width: 0
Flags: HW
AnchorPoint: "Ogonek" -104.35 21.6582 mark 0
LayerCount: 2
Back
SplineSet
-94.3691 15.543 m 1
 -195.162388974 -70.3584937184 -226.228515625 -111.215514218 -226.228515625 -190 c 3
 -226.228515625 -221.309227792 -201.775586907 -239.872070312 -170.833984375 -239.872070312 c 3
 -154.801506148 -239.872070312 -135.55173736 -232.614365408 -115.798828125 -216.599609375 c 1
 -115.798828125 -216.599609375 -104.690305483 -226.926828613 -102 -235 c 1
 -125.978710258 -280.147631579 -166.377945685 -300 -203.228515625 -300 c 3
 -253.201025342 -300 -297.438476562 -268.513714542 -297.438476562 -215.834960938 c 3
 -297.438476562 -159.628200176 -233.56061762 -50.8996824072 -101.068 36.7617 c 1
 -94.3691 15.543 l 1
EndSplineSet
Fore
SplineSet
-94.3691 15.543 m 1
 -184.622 -62 -198.229 -98.8815 -198.229 -170 c 3
 -198.229 -213.865 -172.893 -239.872 -140.834 -239.872 c 3
 -128.005964569 -239.872 -112.603684738 -235.421039712 -96.798828125 -225.599609375 c 1
 -96.798828125 -225.599609375 -85.6903054834 -235.926828613 -83 -244 c 1
 -104.373177652 -282.896421053 -140.382622133 -300 -173.229 -300 c 3
 -223.201 -300 -267.438 -262.154 -267.438 -198.835 c 3
 -267.438 -146.411 -224.333 -45 -101.068 36.7617 c 1
 -94.3691 15.543 l 1
EndSplineSet
EndChar
StartChar: uni032B
Encoding: 811 811 696
GlifName: uni032B_
Width: 0
Flags: HW
AnchorPoint: "Bottom" -193 -15 mark 0
LayerCount: 2
Fore
SplineSet
-341 -86.3506 m 1
 -311.742 -82.5898 l 1
 -304.49 -116.166 -282.841 -133.007 -261.121 -133.007 c 0
 -239.427 -133.007 -217.662 -117.234 -210.079 -85.5898 c 1
 -179.742 -85.5898 l 1
 -172.49 -117.168 -150.842 -133.007 -129.121 -133.007 c 0
 -107.427 -133.007 -85.6623 -116.236 -78.0791 -82.5898 c 1
 -48.8213 -86.3506 l 1
 -60.47 -156.601 -94.8857 -191.727 -129.196 -191.727 c 0
 -154.025 -191.727 -178.798 -173.119 -195.055 -135.903 c 1
 -211.52 -173.119 -236.385 -191.727 -261.196 -191.727 c 0
 -295.534 -191.727 -329.765 -156.601 -341 -86.3506 c 1
EndSplineSet
EndChar
StartChar: uni0371
Encoding: 881 881 954
GlifName: uni0371
Width: 440
UnlinkRmOvrlpSave: 1
Flags: HW
AnchorPoint: "Top" 118 465 basechar 0
LayerCount: 2
Fore
SplineSet
85 -116 m 3
 85 -144 93 -148 104 -148 c 3
 134 -148 163 -91.44140625 167 -81 c 1
 202 -92 l 1
 178 -146.203125 135 -205 75 -205 c 3
 43 -205 22 -177 22 -91 c 3
 22 69.3935546875 61.599609375 226.513671875 66 400 c 1
 66 400 138 426 156 410 c 1
 133.579101562 202.740234375 85 -9.2294921875 85 -116 c 3
92 170 m 1
 178 170 l 2
 281 170 338.934570312 158.42578125 389 216 c 1
 399 217 410 209 414 205 c 1
 414 189 353.00390625 128.9140625 294 126 c 0
 172.495117188 120 157.049804688 121 86 119 c 1
 92 170 l 1
EndSplineSet
EndChar
StartChar: Sigma
Encoding: 931 931 993
GlifName: S_igma
Width: 626
Flags: HW
AnchorPoint: "Top" 310 699 basechar 0
AnchorPoint: "Bottom" 307 -15 basechar 0
LayerCount: 2
Fore
SplineSet
18 1 m 1
 8 28 l 1
 47 49 79.6767578125 85.4267578125 105 116 c 0
 168.08984375 190.967773438 231.771484375 266.940429688 295.001953125 343.299804688 c 1
 232.919921875 420.707625159 158.747070312 509.631018813 99.9716796875 586.299804688 c 0
 75.330078125 618.576171875 49.5 650.299804688 23 657 c 1
 28 688 l 1
 100.521094079 684.355416897 186.588544153 682.96875 267.956054688 682.96875 c 0
 409.863349372 682.96875 537.475120134 687.186361981 554 691 c 1
 565.145421717 681.247804312 569.133789062 675.74129781 569.133789062 667.086914062 c 0
 569.133789062 650.893166282 555.168983192 623.677672155 548 537 c 1
 518 534 l 1
 507 570 526 617 490 628 c 1
 438.703345148 639.861034025 357.361502746 646.077148438 279.205078125 646.077148438 c 0
 243.783637149 646.077148438 209.016484993 644.800277343 177.997070312 642.193359375 c 1
 240.469726562 564.562174479 302.563476562 486.93195783 365.102539062 409.299804688 c 0
 377.26171875 394.141601562 394.323242188 375.299804688 410.703125 367.299804688 c 1
 410.703125 339.299804688 l 1
 394.173828125 331.461914062 380.607421875 318.322265625 371.6640625 307.299804688 c 0
 296.84375 213.670898438 223.921875 129.947265625 150 41 c 1
 228.26916423 41 307.598956516 39 386 39 c 0
 408.404296875 39 437.5 43.2998046875 470 58 c 0
 526.760742188 83.673828125 539 101 578 177 c 1
 606 170 l 1
 590 104 579 62 567 0 c 1
 418.446420524 -0.773710049693 287.995461185 2.4830933189 163.612260931 2.4830933189 c 0
 119.627247387 2.4830933189 72.4064380862 2.08995072445 18 1 c 1
EndSplineSet
Position2: "cpsp-1" dx=0 dy=0 dh=50 dv=100
Substitution2: "c2pc-1" sigma.pcap
Substitution2: "c2sc-1" sigma.smcp
EndChar
StartChar: rho
Encoding: 961 961 1019
GlifName: rho
Width: 462
UnlinkRmOvrlpSave: 1
Flags: HMW
AnchorPoint: "Top" 250 465 basechar 0
LayerCount: 2
Fore
SplineSet
250 420 m 3
 353.270507812 420 410 310.59375 410 205 c 3
 410 113.912109375 371.389648438 21 266 21 c 3
 200.608398438 21 146 47.39453125 108 69 c 1
 116.555664062 95.4501953125 121.444335938 111.549804688 130 138 c 1
 128.95703125 88.388671875 179.490234375 62 228 62 c 3
 252.05859375 62 277.078125 70.537109375 293.506835938 91 c 0
 316.045898438 119.073242188 336 184.536132812 336 244 c 3
 336 309.123046875 315.21484375 388 250 388 c 3
 146.40234375 388 131 223.00390625 131 104 c 3
 131 -13.599609375 155.624023438 -46.8251953125 256 -70 c 0
 333.029296875 -87.78515625 385 -130.288085938 385 -190 c 3
 385 -235.2421875 330.8515625 -280 277 -280 c 3
 244.984375 -280 222 -258.815429688 205 -245 c 1
 205 -228.7421875 216 -217 265 -189 c 1
 279.655273438 -200.27734375 300.329101562 -218 315 -218 c 3
 334 -218 349 -200.517578125 349 -180 c 3
 349 -137.166015625 309.465820312 -127.778320312 276 -124 c 0
 104.46875 -104.634765625 52 -38.8525390625 52 120 c 3
 52 261.982421875 113.66796875 420 250 420 c 3
EndSplineSet
Substitution2: "pcap-1" p.pcap
Substitution2: "smcp-1" p.smcp
EndChar
StartChar: theta1
Encoding: 977 977 1030
GlifName: theta1
Width: 504
UnlinkRmOvrlpSave: 1
Flags: HMW
LayerCount: 2
Fore
SplineSet
512 434 m 1
 458 409.799804688 395.89453125 406 320 406 c 3
 170.569335938 406 -3 462.943359375 -3 608 c 3
 -3 678.328125 52.9169921875 732 128 732 c 3
 363.02734375 732 464 461.5078125 464 224 c 3
 464 114.9375 442.337890625 -8 334 -8 c 3
 239.801757812 -8 129.841796875 63 105 63 c 3
 78.6708984375 63 59 52.6669921875 59 32 c 3
 59 -20.623046875 122.60546875 -16.9228515625 164 -28 c 1
 159 -53.0712890625 155 -67.9287109375 150 -93 c 1
 34 -78 16 19.931640625 16 72 c 3
 16 123 51.1845703125 140 94 140 c 3
 182.668945312 140 255.993164062 81 330 81 c 3
 404.7265625 81 430 160.874023438 430 244 c 3
 430 381.73828125 352.559570312 685 168 685 c 3
 106.172851562 685 66 655.69921875 66 608 c 3
 66 498.3203125 201.840820312 472 310 472 c 3
 383.006835938 472 435 476 494 500 c 1
 512 434 l 1
EndSplineSet
Substitution2: "pcap-1" theta.pcap
Substitution2: "smcp-1" theta.smcp
EndChar
StartChar: Upsilon1
Encoding: 978 978 1031
GlifName: U_psilon1
Width: 697
Flags: HW
AnchorPoint: "Top" 335 699 basechar 0
AnchorPoint: "Bottom" 347 -15 basechar 0
LayerCount: 2
Fore
SplineSet
398 379 m 0
 383 286 393 164 404 80 c 0
 409 41 429 36 510 32 c 1
 505 -11 l 1
 402 3 314 9 209 -17 c 1
 197 25 l 1
 276 39 313 52 313 100 c 0
 313 150 313 339 304 380 c 0
 283 473 220 624 96 624 c 3
 75 624 54 616 31 600 c 1
 8 629 l 1
 26 655 78 700 119 700 c 3
 294 700 319 498 352 371 c 1
 381 498 403 700 563 700 c 3
 635 700 674 654 674 595 c 3
 674 535 647 511 609 511 c 3
 597 511 581 511 561 525 c 1
 560 550 568 562 586 586 c 1
 612 571 625 589 625 603 c 3
 625 618 599 624 586 624 c 3
 474 624 412 474 398 379 c 0
EndSplineSet
Position2: "cpsp-1" dx=0 dy=0 dh=50 dv=100
EndChar
StartChar: uni03D8
Encoding: 984 984 1036
GlifName: uni03D_8
Width: 845
UnlinkRmOvrlpSave: 1
Flags: HW
AnchorPoint: "Middle" 423.697 364.853 basechar 0
AnchorPoint: "Bottom" 422 -151 basechar 0
AnchorPoint: "Top" 426 699 basechar 0
LayerCount: 2
Fore
SplineSet
470.641601562 -5.8779296875 m 1
 471.579101562 -32.2630935134 472.579116501 -59.2927717694 474 -87 c 0
 476 -126 528 -121 582 -123 c 1
 581 -162 l 1
 480 -151 357 -149 270 -163 c 1
 265 -123 l 1
 325 -123 381.731312005 -125.988529232 384 -76 c 0
 385.002929688 -53.9013332211 385.896484375 -30.2850025587 386.678710938 -5.5048828125 c 1
 470.641601562 -5.8779296875 l 1
EndSplineSet
Refer: 40 79 N 1 0 0 1 0 0 2
Position2: "cpsp-1" dx=0 dy=0 dh=50 dv=100
EndChar
StartChar: uni03DB
Encoding: 987 987 1039
GlifName: uni03D_B_
Width: 670
Flags: HW
LayerCount: 2
Fore
SplineSet
49 148 m 3
 49 240.928710938 92.3955078125 307.729492188 148.381835938 353 c 0
 193.8359375 389.75390625 232.884765625 400 340 400 c 3
 443.479492188 400 459.6640625 392 584 392 c 3
 612.099609375 392 625 397 625 424 c 1
 634 425 640 426 649 427 c 1
 653 409 658 400.384765625 658 382 c 3
 658 323.364257812 585.228515625 305 526 305 c 3
 375.400390625 305 294.594726562 313 257 313 c 3
 157.340820312 313 97 267.346679688 97 199 c 3
 97 107.576171875 154.176757812 89 217 89 c 3
 236.72265625 89 248 92 268 92 c 3
 352.201171875 92 364 41.9248046875 364 -11 c 3
 364 -92.029296875 299.461914062 -155 259 -155 c 3
 230.8125 -155 212.596679688 -127.041992188 205 -94 c 1
 220.028320312 -79.154296875 239.80078125 -73.6259765625 260.19140625 -73.6259765625 c 3
 273.934570312 -73.6259765625 287.958984375 -76.1376953125 301 -80 c 1
 315.611328125 -69 318 -57.4013671875 318 -41 c 3
 318 -4.7646484375 304.826171875 1 235 1 c 3
 124.700195312 1 98.6123046875 18.4384765625 79 43.5361328125 c 0
 60.447265625 67.2783203125 49 98.3193359375 49 148 c 3
EndSplineSet
EndChar
StartChar: uni03E3
Encoding: 995 995 2757
Width: 697
Flags: HW
LayerCount: 2
Fore
SplineSet
642 222 m 1
 642 -27.6231472297 545.009986394 -208.01953125 403.815429688 -208.01953125 c 3
 357.168945312 -208.01953125 331 -182 323.971679688 -168.2421875 c 1
 334.315429688 -152.299804688 l 1
 342.559570312 -155.299804688 352.770507812 -155.72265625 362.258789062 -155.72265625 c 3
 450.171684021 -155.72265625 582.936523438 -53.4587201444 582.936523438 288.806640625 c 1
 642 222 l 1
EndSplineSet
Refer: 1027 969 N 1 0 0 1 0 0 2
EndChar
StartChar: uni03EA
Encoding: 1002 1002 1771
GlifName: uni03E_A_
Width: 628
UnlinkRmOvrlpSave: 1
Flags: HW
LayerCount: 2
Fore
SplineSet
317.462890625 296 m 0
 352.944335938 205.377929688 392.166992188 129.192382812 419.5 65.2998046875 c 1
 417.744140625 60.0322265625 346.094726562 59.2998046875 296.5 59.2998046875 c 0
 204.95703125 59.2998046875 179.5 63.2998046875 169.5 75.2998046875 c 1
 193.736328125 126.51953125 239.6796875 205.194335938 275.34375 286 c 0
 338.487304688 429.065429688 379.80078125 624 534 624 c 3
 555 624 576 614 599 594 c 1
 622 623 l 1
 604 651.197265625 552 700 511 700 c 3
 359.828125 700 298.245117188 434.72265625 253.127929688 328 c 0
 219.814453125 249.198242188 165.401367188 160.015625 118 80 c 0
 105.612304688 59.0888671875 81.5 27.2998046875 73 -5 c 1
 109.3671875 4 514.360351562 5 558 -4 c 1
 542.5 31.7998046875 541.991210938 22.8046875 519 62 c 0
 448.110351562 182.852539062 396.708007812 287.208007812 353 386 c 0
 313.272460938 475.793945312 291.861328125 700 118 700 c 3
 77 700 24 655 6 629 c 1
 29 600 l 1
 52 616 73 624 94 624 c 3
 230.794921875 624 264.576171875 431.075195312 317.462890625 296 c 0
EndSplineSet
EndChar
StartChar: uni03EB
Encoding: 1003 1003 2761
Width: 463
Flags: HW
LayerCount: 2
Fore
SplineSet
5 391 m 1
 15 403.235351562 36.599609375 423 63 423 c 3
 163.805664062 423 202.177734375 334.074453848 251.487304688 242 c 1
 256.83984375 234.721679688 262.201171875 227.37890625 267.580078125 220 c 1
 337.729204963 112 l 0
 362.218637085 76.2092372172 394.7958829 52.1894270506 424 54 c 1
 358 14 l 1
 246 190 l 1
 239.079500657 200.83984375 232.740473061 211.557942708 227 222 c 1
 184.833984375 291.126989838 137.875976562 345 99 345 c 3
 79.40625 345 65.0712890625 328.125 53 318 c 1
 22.154296875 320.534179688 11.2744140625 368.538085938 5 391 c 1
384 423 m 1
 445 393 l 1
 339.644259134 272.521768967 224.650383307 143.297756136 153.895947853 56 c 1
 451 56 l 1
 450 0 l 1
 42 0 l 1
 37.8019883775 25.9999593968 l 1
 153.507230507 158.034097193 268.507949832 290.752154569 384 423 c 1
EndSplineSet
EndChar
StartChar: uni03F3
Encoding: 1011 1011 1044
GlifName: uni03F_3
Width: 268
Flags: HW
AnchorPoint: "Top" 158 465 basechar 0
LayerCount: 2
Fore
SplineSet
76 105 m 0
 92.7734375 222.505859375 103 295.766601562 106 400 c 1
 106 400 178 426 196 410 c 1
 178 279.969726562 160.3125 209.603515625 139 80 c 0
 94.9130859375 -188.090820312 14.04296875 -284.885742188 -112 -307 c 1
 -114.799804688 -296.125 -116.200195312 -288.875 -119 -278 c 1
 22.6669921875 -248.967773438 47.861328125 -92.125 76 105 c 0
EndSplineSet
Refer: 49 775 N 1 0 0 1 383 121 2
EndChar
StartChar: afii10037
Encoding: 1059 1059 1267
GlifName: afii10037
Width: 735
UnlinkRmOvrlpSave: 1
Flags: HW
AnchorPoint: "Top" 387 699 basechar 0
AnchorPoint: "Bottom" 339 -15 basechar 0
LayerCount: 2
Fore
SplineSet
190 -23 m 3
 168.467025162 -23 134.822037338 -10 118 16 c 1
 119.224609375 47.640625 118 47.640625 178 91 c 1
 196.055764223 82.8568863407 206.865559896 72 228 72 c 3
 312.676558136 72 333.924030552 152.896719595 402 293 c 0
 451.561643836 395 533.570730475 583.717446637 536 589 c 0
 545.15436427 608.906567489 553.713947589 632.285855171 528 643 c 0
 516 648 497 650 481 652 c 1
 483 691 l 1
 521 685 664 676 729 690 c 1
 729 647 l 1
 664 645 638.135663177 627.868544705 611 600 c 1
 555.439804079 527.66944795 491.211684094 399.367432001 434.656331148 277.00000544 c 0
 367.291110636 131.243534226 333.817392367 -23 190 -23 c 3
350 184 m 1
 320.83323567 246.908131971 218.000000001 467 114 608 c 0
 90.9110152865 639.303335044 65 636 6 652 c 1
 10 692 l 1
 67 686 211 679 269 690 c 1
 274 651 l 1
 274 651 254.378378378 649 241 649 c 0
 223 649 210.35694306 640.311132317 219 622 c 0
 303.672792984 442.612692153 387.537156071 308.076758557 411.591796875 271 c 1
 350 184 l 1
EndSplineSet
Position2: "cpsp-1" dx=0 dy=0 dh=50 dv=100
EndChar
StartChar: afii10046
Encoding: 1068 1068 1258
GlifName: afii10046
Width: 599
Flags: HW
LayerCount: 2
Fore
SplineSet
327 349 m 0
 210 349 l 1
 211 251 211.405071907 155.012339425 213 96 c 0
 214 59 218.606582411 44.9226914213 245 41 c 0
 258.456790124 39 319.012345679 34 354 34 c 3
 433.50617284 34 494 83 494 178 c 3
 494 262 445.810945274 349 327 349 c 0
218 616 m 0
 212.870297654 523.66535778 212 379 212 379 c 1
 283.017761066 379 345.251480651 379.707271074 404 371.883789062 c 0
 519.134450796 356.551448525 584 273.933306029 584 181 c 3
 584 70 490.597701149 -4 345 -4 c 3
 282.725 -4 223.975 2 157 2 c 3
 98 2 53 -2 46 -2 c 1
 43 34 l 1
 90 36 127 35.9459853727 127 73 c 0
 127 78 130 176 130 292 c 3
 130 462.579439252 129.145990654 531.058252345 126 616 c 0
 125 643 111 643 38 657 c 1
 43 688 l 1
 116.294 681.428571429 204 681.571428571 316 692 c 1
 318 649 l 1
 260 647 220 652 218 616 c 0
EndSplineSet
Position2: "cpsp-1" dx=0 dy=0 dh=50 dv=100
EndChar
StartChar: afii10066
Encoding: 1073 1073 1257
GlifName: afii10066
Width: 481
UnlinkRmOvrlpSave: 1
Flags: HW
LayerCount: 2
Back
SplineSet
356 632 m 1
 343.783979415 650.823529412 329.453645173 672 292.638671875 672 c 3
 173.151047004 672 118 398.983973519 118 240 c 3
 118 139.554517047 169.228745728 28 248.91015625 28 c 3
 310.218104166 28 377 83.4059711793 377 191 c 3
 377 276.408081827 341.393923724 370 240 370 c 3
 185.995999893 370 120 318 101.21875 250 c 1
 102.273085205 247 89.2176649306 284 88.51171875 286 c 1xf5
 116.714803464 358.640776699 187.153499156 415 261.766601562 415 c 3
 383.572705849 415 449.4140625 331.317191389 449.4140625 218.844726562 c 3
 449.4140625 106.980447616 375.684078842 -9 239.692382812 -9 c 3
 98.8446138796 -9 41.044921875 102.15306394 41.044921875 255.677734375 c 3
 41.044921875 448.46445756 123.930266593 703 295.307617188 703 c 3
 357.604855288 703 377.128508662 684.610169492 394 672 c 1
 356 632 l 1
EndSplineSet
Fore
SplineSet
426 719 m 1
 398.429698124 662.058823529 348.606234758 594.556217179 283 582 c 0
 74 542 118 371.750607685 118 240 c 3
 118 139.554517047 169.228745728 28 248.91015625 28 c 3
 310.218104166 28 377 83.4059711793 377 191 c 3
 377 276.408081827 341.393923724 370 240 370 c 3
 185.995999893 370 120 318 101.21875 250 c 1
 102.273085205 247 89.2176649306 284 88.51171875 286 c 1
 116.714803464 358.640776699 187.153499156 415 261.766601562 415 c 3
 383.572705849 415 449.4140625 331.317191389 449.4140625 218.844726562 c 3
 449.4140625 106.980447616 375.684078842 -9 239.692382812 -9 c 3
 98.8446138796 -9 41.044921875 102.15306394 41.044921875 255.677734375 c 3
 41.044921875 433.689970238 162.692431211 640.188465509 293 662 c 0
 348.061011708 671.216388328 389.998816218 708.352542372 410 744 c 1
 426 719 l 1
EndSplineSet
EndChar
StartChar: afii10067
Encoding: 1074 1074 1087
GlifName: afii10067
Width: 435
Flags: HW
LayerCount: 2
Fore
SplineSet
30 22 m 1
 42 23 50.2993109288 41.1770768966 77 55 c 0
 79 56.0353982301 81 107.805309735 81 172 c 1
 81 258.126582278 76.0409798874 332.975502814 76 334 c 0
 75 359 74.8484013852 375.630319723 63 378 c 0
 58 379 34 382 29 383 c 1
 33 408 l 1
 41 408 73 402 105 402 c 1
 144 402 198 408 235 408 c 1
 324.394736842 408 364 343 364 306 c 3
 364 264.072289157 325.142857143 242.060240964 279 219 c 1
 347.181818182 207 404 165 404 109 c 1
 404 41.5925925926 338.039735099 -3 238 -3 c 1
 199 -3 149 1 107 1 c 1
 72 1 38 -2 32 -2 c 1
 30 22 l 1
225 223 m 0
 259.47826087 227.25 286 254.875 286 291 c 1
 286 317 266.982142857 381 215 381 c 1
 208 381 174.846347174 381.34915704 169 380 c 0
 156 377 155.782153889 362.168000555 155 352 c 0
 150 287 150 224.063492063 149 222 c 1
 217 222 223.603544501 222.776589975 225 223 c 0
214 202 m 1
 210 204 152 203 148 203 c 1
 148 152.444444444 148.892958331 103.997166731 150 73 c 0
 151 45 153.896808872 36.7010637094 168 32 c 0
 174 30 221 25 236 25 c 1
 294.8 25 326 55.5675675676 326 103 c 1
 326 153 294.824742268 202 214 202 c 1
EndSplineSet
EndChar
StartChar: afii10072
Encoding: 1078 1078 1251
GlifName: afii10072
Width: 610
UnlinkRmOvrlpSave: 1
Flags: HW
AnchorPoint: "Top" 307 465 basechar 0
AnchorPoint: "Bottom" 305 -15 basechar 0
LayerCount: 2
Back
SplineSet
293 204 m 1
 292 169 l 1
 227.971368096 191.822114663 160.807963559 332 85 332 c 3
 75.1685393258 332 60 329 60 329 c 1
 45.8502672778 330.949659997 37.1490624142 376.946865589 36 400 c 1
 36 400 62.1739130435 407 79 407 c 3
 177.845148713 407 219.628212565 231.274053065 293 204 c 1
215.400390625 238.952148438 m 1
 270.900390625 187 l 1
 189.818540091 176.901477833 150.644162867 -47.2857142857 14.900390625 -18 c 5xb0
 10 7.8994140625 l 1
 69.2072872771 9.26277788418 141.078638459 200.410773999 215.400390625 238.952148438 c 1
317 204 m 1
 390.371787435 231.274053065 432.154851287 407 531 407 c 3
 547.826086957 407 574 400 574 400 c 1
 572.850937586 376.946865589 564.149732722 330.949659997 550 329 c 1
 550 329 534.831460674 332 525 332 c 3
 449.192036441 332 382.028631904 191.822114663 318 169 c 1
 317 204 l 1
394.599609375 238.952148438 m 1
 468.921361541 200.410773999 540.792712723 9.26277788418 600 7.8994140625 c 1
 595.099609375 -18 l 5xb0
 459.355837133 -47.2857142857 420.181459909 176.901477833 339.099609375 187 c 1
 394.599609375 238.952148438 l 1
EndSplineSet
Fore
SplineSet
293 198 m 1
 292 159 l 1
 224.259563348 183.222244397 153.202628113 332 73 332 c 3
 63.1685393258 332 48 329 48 329 c 1
 33.8502672778 330.949659997 25.1490624142 376.946865589 24 400 c 1
 24 400 50.1739130435 407 67 407 c 3
 171.387867333 407 215.513906727 226.080182712 293 198 c 1
215.400390625 238.952148438 m 1
 268.900390625 187 l 1
 188.451992048 176.901477833 143.583664646 -47.2857142857 14.900390625 -18 c 1
 10 7.8994140625 l 1
 69.2072872771 9.26277788418 141.078638459 200.410773999 215.400390625 238.952148438 c 1
317 198 m 1
 394.486093273 226.080182712 438.612132667 407 543 407 c 3
 559.826086957 407 586 400 586 400 c 1
 584.850937586 376.946865589 576.149732722 330.949659997 562 329 c 1
 562 329 546.831460674 332 537 332 c 3
 456.797371887 332 385.740436652 183.222244397 318 159 c 1
 317 198 l 1
394.599609375 238.952148438 m 1
 468.921361541 200.410773999 540.792712723 9.26277788418 600 7.8994140625 c 1
 595.099609375 -18 l 1
 466.416335354 -47.2857142857 421.548007952 176.901477833 341.099609375 187 c 1
 394.599609375 238.952148438 l 1
335.291015625 177 m 1
 335.291015625 124.724609375 339.965380749 74.2831291897 342.865234375 54 c 0
 345.009765625 39 354.46828049 37.6959456768 365.376953125 33 c 0
 374.668945312 29 383.959960938 28 396.967773438 27 c 1
 392.322265625 -7 l 1
 360.731445312 -1 343.078125 4 304.0546875 4 c 0
 276.180664062 4 242.732421875 -3 214.858398438 -5 c 1
 213 28 l 1
 223.220703125 29 233.769270577 29.734542897 242.732421875 33 c 0
 261.946289062 40 267.562487362 48.0322028193 269.463867188 76 c 0
 271.828125 110.776367188 273.875976562 141.080078125 274.97265625 176.782226562 c 0
 275.700195312 211.852539062 l 1
 275.783203125 219.2578125 275.826171875 226.952148438 275.826171875 235 c 0
 275.826171875 251.155273438 275.149376989 302.496090438 273.430664062 321.732421875 c 0
 269.454101562 366.239257812 262.446289062 366.713867188 227.0546875 375.8515625 c 1
 230.791015625 401.44921875 l 1
 273.243164062 394.21484375 338.327148438 396.0234375 379.961914062 401.944335938 c 1
 381.94140625 375.3671875 l 1
 353.786132812 371.497070312 345.208403457 373.212973913 339.408203125 332.755859375 c 0
 332.6953125 285.932617188 335.297851562 264.163085938 333.432617188 211 c 1
 335.291015625 177 l 1
EndSplineSet
EndChar
StartChar: afii10073
Encoding: 1079 1079 1252
GlifName: afii10073
Width: 372
Flags: HW
AnchorPoint: "Bottom" 186 -15 basechar 0
AnchorPoint: "Top" 199 465 basechar 0
LayerCount: 2
Back
SplineSet
193 423 m 3
 269.658706665 423 322 383.791992188 322 333 c 7xf0
 322 303.265625 297.170898438 244.646484375 239 237 c 1
 314 209.823242188 344 164.1171875 344 132 c 3
 344 51.4287109375 255.376953125 -9 158 -9 c 3
 110 -9 61 11 30 34 c 1
 31 61 32 59 87 91 c 5xe8
 125 65.5 176 40 210 40 c 3
 254.307617188 40 274 64 274 100 c 7xe8
 274 149 248.244140625 203 98 209 c 1
 98 218.310546875 99 227.62109375 100 236 c 1
 241.819335938 239.876953125 249 268.8203125 249 316 c 3
 249 345.866210938 210.734635417 372 160 372 c 3
 139.375472184 372 92.469737294 363.887323944 66 300 c 1
 45 306 l 1
 50 338 53 351 59 384 c 1
 90.4228255208 400.272628348 144.121471354 423 193 423 c 3
EndSplineSet
Fore
SplineSet
193 423 m 3
 269.658706665 423 322 383.791992188 322 333 c 3
 322 285 292 240 260 227 c 1
 292 220 344 172.691060799 344 132 c 3
 344 51.4287109375 255.376953125 -9 158 -9 c 3
 110 -9 61 11 30 34 c 1
 31 61 32 59 87 91 c 1
 125 65.5 176 40 210 40 c 3
 254.307617188 40 274 64 274 100 c 3
 274 144.504587156 248.244140625 193.550458716 98 199 c 1
 98 208.310546875 99 217.62109375 100 226 c 1
 237.819335938 230.361572266 249 273.892993457 249 316 c 3
 249 345.866210938 210.734635417 372 160 372 c 3
 134.814291925 372 90 356 68 310 c 1
 47 316 l 1
 51.2857142857 343.897435897 53.8571428571 355.230769231 59 384 c 1
 90.4228255208 400.272628348 144.121471354 423 193 423 c 3
EndSplineSet
EndChar
StartChar: afii10074
Encoding: 1080 1080 1253
GlifName: afii10074
Width: 511
UnlinkRmOvrlpSave: 1
Flags: HW
AnchorPoint: "Top" 265 465 basechar 0
AnchorPoint: "Bottom" 261 -15 basechar 0
LayerCount: 2
Fore
SplineSet
111.234375 112.258789062 m 1
 210.423742202 183.247792852 304.851049854 257.168042148 396.3203125 332.909179688 c 1
 412.114257812 300.729492188 l 1
 311.990781213 226.277192252 214.104882448 151.415472595 122.689453125 75.369140625 c 1
 111.234375 112.258789062 l 1
367 343 m 0
 365 378 342 376 319 385 c 1
 322 408 l 1
 344.90234375 403.419921875 368.013671875 400.9375 391.52734375 400.9375 c 3
 419.349609375 400.9375 447.734375 404.412109375 477 412 c 1
 481 388 l 1
 455 381 446.955214183 378.005128516 444 352 c 0
 437.89453125 298.2734375 432.907226562 209.879882812 432.907226562 142.805664062 c 3
 432.907226562 100.017578125 437.17880705 66.6877993645 440 55 c 0
 447 26 464 24 480 21 c 1
 480 21 477 5 477 -2 c 1
 456.500976562 2.392578125 431.239257812 4.8798828125 405.048828125 4.8798828125 c 3
 377.577148438 4.8798828125 349.084960938 2.1435546875 324 -4 c 1
 324 -2 319 12 318 20 c 1
 343 28 359.020532654 29.8774524752 362 59 c 0
 367.672208582 114.442515332 369.88196012 165.513285966 369.88196012 219.85567135 c 3
 369.88196012 258.355656289 369.540856904 298.535004186 367 343 c 0
153 58 m 0
 154 26 183 27 201 21 c 1
 201 21 198 4 198 -3 c 1
 169.12890625 2.2490234375 138.052734375 5.0185546875 108.387695312 5.0185546875 c 3
 81.5419921875 5.0185546875 55.8525390625 2.7509765625 34 -2 c 1
 34 -2 31 16 30 25 c 1
 49 30 72.040325 29.9958567806 75 59 c 0
 81.0234375 118.028320312 84.14453125 207.16796875 84.14453125 272.6640625 c 3
 84.14453125 315.90625 81.5664898777 348.480848587 80 356 c 0
 75 380 55 381 33 384 c 1
 35 409 l 1
 70.9697265625 405.899414062 102.708984375 402.797851562 136.658203125 402.797851562 c 3
 157.450195312 402.797851562 179.071289062 403.9609375 203 407 c 1
 205 383 l 1
 192 380 162.417008275 379.120902065 160 366 c 0
 154.839195643 337.984204919 151.800924558 226.625937242 151.800924558 138.517120597 c 3
 151.800924558 107.117102214 152.353881897 78.675779285 153 58 c 0
EndSplineSet
EndChar
StartChar: afii10076
Encoding: 1082 1082 1088
GlifName: afii10076
Width: 462
UnlinkRmOvrlpSave: 1
Flags: HW
AnchorPoint: "Bottom" 235.1 -15 basechar 0
AnchorPoint: "Top" 233.1 465 basechar 0
LayerCount: 2
Back
SplineSet
228.599609375 238.952148438 m 1
 319.215539233 175.081902696 387.60415798 9.26277788418 452 7.8994140625 c 1
 447.099609375 -18 l 5xb0
 298.099609375 -47 255.099609375 175 166.099609375 185 c 1
 228.599609375 238.952148438 l 1
156.099609375 177 m 1
 156.099609375 124.724609375 159.405273438 74.205078125 162.099609375 54 c 0
 164.099609375 39 172.71875 37.15234375 183.099609375 33 c 0
 193.099609375 29 203.099609375 28 217.099609375 27 c 1
 212.099609375 -7 l 1
 178.099609375 -1 159.099609375 4 117.099609375 4 c 3
 87.099609375 4 51.099609375 -3 21.099609375 -5 c 1
 19.099609375 28 l 1
 30.099609375 29 41.34375 30.0302734375 51.099609375 33 c 0
 74.099609375 40 80.4130859375 48.0576171875 83.099609375 76 c 0
 88.099609375 128 92.099609375 170 92.099609375 235 c 3
 92.099609375 251.155273438 90.4580078125 302.49609375 86.2919921875 321.732421875 c 0x70
 76.71484375 365.950195312 71.412109375 366.713867188 23.4638671875 375.8515625 c 1
 27.484375 401.44921875 l 1
 77.4638671875 394.21484375 154.086914062 396.0234375 203.1015625 401.944335938 c 1
 205.232421875 375.3671875 l 1
 173.504882812 371.497070312 162.670898438 373.231445312 157.302734375 332.755859375 c 1
 153.705078125 285.932617188 155.099609375 264.163085938 154.099609375 211 c 1
 156.099609375 177 l 1
142 207 m 1
 217.771799174 234.005343183 260.921598759 408 363 408 c 3
 386.869565217 408 424 401 424 401 c 1
 422.850937586 376.323405419 414.149732722 327.086959997 400 325 c 1
 400 325 384.831460674 328 375 328 c 3
 294.993750244 328 214.761558462 193.842023849 143 172 c 1
 142 207 l 1
EndSplineSet
Fore
SplineSet
142 207 m 1
 224.628975569 233.870988241 271.683734393 407 383 407 c 3
 399.826086957 407 426 400 426 400 c 1
 424.850937586 376.946865589 416.149732722 330.949659997 402 329 c 1
 402 329 386.831460674 332 377 332 c 3
 291.304041195 332 215.380192587 194.402075743 143 172 c 1
 142 207 l 1
223.599609375 235.952148438 m 1
 306.243645129 197.91119709 386.162892774 9.24507590166 452 7.8994140625 c 1
 447.099609375 -18 l 1
 298.099609375 -47 255.099609375 175 166.099609375 185 c 1
 223.599609375 235.952148438 l 1
156.099609375 177 m 1
 156.099609375 124.724609375 159.405593272 74.2051207722 162.099609375 54 c 0
 164.099609375 39 172.71875 37.15234375 183.099609375 33 c 0
 193.099609375 29 203.099609375 28 217.099609375 27 c 1
 212.099609375 -7 l 1
 178.099609375 -1 159.099609375 4 117.099609375 4 c 3
 87.099609375 4 51.099609375 -3 21.099609375 -5 c 1
 19.099609375 28 l 1
 30.099609375 29 41.3435962375 30.0307786103 51.099609375 33 c 0
 74.099609375 40 80.4128440333 48.0576404465 83.099609375 76 c 0
 88.099609375 128 92.099609375 170 92.099609375 235 c 3
 92.099609375 251.155273438 90.4583801188 302.496174384 86.2919921875 321.732421875 c 0
 76.71484375 365.950195312 71.412109375 366.713867188 23.4638671875 375.8515625 c 1
 27.484375 401.44921875 l 1
 50.3208286414 398.14371359 78.7197283245 396.726133158 107.505889459 396.726133158 c 0
 141.720653867 396.726133158 176.482514694 398.728793572 203.1015625 401.944335938 c 1
 205.232421875 375.3671875 l 1
 173.504882812 371.497070312 162.670898438 373.231445312 157.302734375 332.755859375 c 1
 153.705078125 285.932617188 155.099609375 264.163085938 154.099609375 211 c 1
 156.099609375 177 l 1
EndSplineSet
EndChar
StartChar: afii10077
Encoding: 1083 1083 1250
GlifName: afii10077
Width: 510
Flags: HW
LayerCount: 2
Fore
SplineSet
478.600585938 409.400390625 m 1
 480 373.299804688 l 1
 451.116210938 371.900390625 433.6875 378.76171875 430.200195312 350.200195312 c 0
 422.5 286.265625 419.5078125 189.5859375 424.600585938 52.2001953125 c 0
 425.626953125 24.900390625 452.30078125 28.400390625 480 27 c 1
 479.30078125 -6.2998046875 l 1
 417.465820312 1.400390625 342.163085938 2.7998046875 288.900390625 -7 c 1
 285.400390625 27 l 1
 317.266601562 27 347.534179688 30.9541015625 348.600585938 59.900390625 c 0
 351.635742188 143.43359375 354.592773438 236.385742188 347.200195312 348.799804688 c 0
 346.5 359.299804688 336.830078125 369.099609375 329.700195312 369.099609375 c 3
 298.989257812 369.099609375 273.579101562 370.952148438 239.5 364.900390625 c 0
 228.904296875 362.171875 215.012695312 351.827148438 212.875 333.400390625 c 0
 208.411132812 294.002929688 196.546875 217.629882812 191.200195312 161 c 0
 185.969726562 106.883789062 173.130859375 56.2734375 145 30.099609375 c 0
 120.99609375 8.8359375 98.0498046875 -6.2998046875 61.6005859375 -6.2998046875 c 3
 45.48046875 -6.2998046875 20.2939453125 1.400390625 7.7001953125 16.7998046875 c 1
 8.5576171875 51.6044921875 7.7001953125 51.6044921875 49.7001953125 99.2998046875 c 1
 69.4169921875 90 81.2216796875 77.599609375 104.30078125 77.599609375 c 3
 137.663085938 77.599609375 149.865234375 123.19921875 156.286132812 157.166992188 c 0
 170.236328125 260.415039062 179.561523438 379.056640625 179.900390625 410.799804688 c 1
 198.883789062 406.75 217.048828125 404.918945312 235.200195312 404.5 c 0
 275.091796875 403.799804688 356.607421875 403.470703125 368.354492188 403.470703125 c 3
 395.3984375 403.470703125 400.440429688 403.299804688 478.600585938 409.400390625 c 1
EndSplineSet
EndChar
StartChar: afii10085
Encoding: 1091 1091 1072
GlifName: afii10085
Width: 446
Flags: HW
DStem2: 265 97 58 -243 0.447214 0.894427<-14.7689 152.969>
AnchorPoint: "Top" 232.5 465 basechar 0
AnchorPoint: "Bottom" 291 -15 basechar 0
LayerCount: 2
Back
SplineSet
208 -46 m 1
 147.518459839 -184.954500038 119.46484375 -332 10.34375 -332 c 3
 -11.189453125 -332 -44.833984375 -319 -61.65625 -293 c 1
 -60.431640625 -261.359375 -61.65625 -261.359375 -1.65625 -218 c 1
 16.3994140625 -226.143554688 27.208984375 -237 48.34375 -237 c 3
 102.854492188 -237 117.3646294 -161.33596604 175.34375 -30 c 1025
EndSplineSet
Fore
SplineSet
175.34375 -30 m 1
 147.34375 104.244140625 85 314.536132812 58 352 c 0
 50.8631237155 361.902777232 47 369 37 374 c 0
 28 376 16 379 6 380 c 1
 10 410 l 1
 33 406 68 404 91 404 c 3
 125 404 153 405 185 411 c 1
 189 383 l 1
 156 374 l 0
 149 373 145 372 145 363 c 3
 145 362 147 355 148 350 c 0
 160 275.055664062 192 154.72265625 226 65 c 1
 273 139.321289062 317 239.123046875 342 323 c 0
 344 330 347 339 347 348 c 3
 347 367.622070312 340 372.513671875 271 381 c 9
 277 411 l 1
 308 406.545898438 351 404 369 404 c 3
 394 404 422 406 443 412 c 1
 448 382 l 1
 410 372 401 367 383 323 c 0
 368 287.40625 294.247400134 132.94443756 223 -12 c 0
 156.622205888 -147.037798094 128.810530124 -332 10.34375 -332 c 3
 -11.189453125 -332 -44.833984375 -319 -61.65625 -293 c 1
 -60.431640625 -261.359375 -61.65625 -261.359375 -1.65625 -218 c 1
 16.3994140625 -226.143554688 27.208984375 -237 48.34375 -237 c 3
 102.854492188 -237 117.3646294 -161.33596604 175.34375 -30 c 1
EndSplineSet
EndChar
StartChar: afii10090
Encoding: 1096 1096 1242
GlifName: afii10090
Width: 692
Flags: HW
LayerCount: 2
Fore
SplineSet
550.540039062 48.2890625 m 0
 559.92058131 144.608724984 559.458218867 227.954611102 555.5703125 336.55859375 c 0
 554.320251623 371.477539062 536.137337772 370.640625 518.134765625 379.387695312 c 1
 521.336914062 401.794921875 l 1
 568.356016558 392.094726562 615.416219668 392.17578125 665.818359375 405.826171875 c 1
 670 381.611328125 l 1
 644.495117188 374.231445312 636.260220071 372.214321745 633.387695312 346.34375 c 0
 623.643554686 258.5859375 622.265650584 78.2035587142 629.073242188 48.5888671875 c 0
 635.848632812 19.1142578125 652.6640625 18.0927734375 669.08984375 15.0908203125 c 1
 669.08984375 15.0908203125 665.967773437 -1.025390625 666.463867188 -7.9599609375 c 1
 645.778061513 -3.41673363765 619.610866511 -0.7900390625 592.53515625 -0.7900390625 c 0
 560.912887996 -0.7900390625 130.322856989 -0.933183033591 95.3340124331 -0.933183033591 c 0
 69.3145650793 -0.933183033591 44.4993085456 -3.08054013831 23.25390625 -7.798828125 c 1
 23.25390625 -7.798828125 19.728515625 10.541015625 18.73828125 19.45703125 c 1
 37.7119140625 24.7314453125 61.1425408197 23.7436003003 64.1923828125 53.2841796875 c 0
 74.310546875 151.288085938 72.3848129112 330.850955352 68.603515625 349.920898438 c 0
 63.859375 373.846679688 43.5869140625 375.33203125 21.779296875 378.489257812 c 1
 23.6689453125 403.361328125 l 1
 78.5950895381 398.09375 123.414815877 393.48046875 182.388671875 401.137695312 c 1
 183.782226562 376.922851562 l 1
 173.454111469 373.938476562 152.282985898 372.608366053 149.208984375 360.094726562 c 0
 134.125921449 298.694623 133.928295565 125.006499706 141.74609375 46.671875 c 0
 142.958981021 34.5187000354 184.397162251 28.572265625 227.083007812 28.572265625 c 3
 267.525216262 28.572265625 311.234671665 34.8855146168 312.540039062 48.2890625 c 0
 321.92058131 144.608724984 321.458218867 227.954611102 317.5703125 336.55859375 c 0
 316.320251623 371.477539062 298.137337772 370.640625 280.134765625 379.387695312 c 1
 283.336914062 401.794921875 l 1
 327.101681554 392.094726562 370.904704961 392.17578125 417.818359375 405.826171875 c 1
 422 381.611328125 l 1
 403.46132241 374.231445312 398.205216809 372.145059507 395.387695312 346.34375 c 0
 385.643554685 257.112278837 372.839256779 68.5006536359 391.073242188 43.5888671875 c 0
 398.849365736 32.964907319 433.323856318 28.0908203125 468.39453125 28.0908203125 c 3
 507.358999566 28.0908203125 549.029947765 35.0485054177 550.540039062 48.2890625 c 0
EndSplineSet
EndChar
StartChar: afii10091
Encoding: 1097 1097 1243
GlifName: afii10091
Width: 720
Flags: HW
LayerCount: 2
Fore
SplineSet
594.545898438 -0.2880859375 m 1
 562.93806464 -0.2880859375 130.305907674 -0.93359375 95.333984375 -0.93359375 c 0
 69.314453125 -0.93359375 44.4990234375 -3.080078125 23.25390625 -7.798828125 c 1
 23.25390625 -7.798828125 19.728515625 10.541015625 18.73828125 19.45703125 c 1
 37.7119140625 24.7314453125 61.1424966499 23.7431724741 64.1923828125 53.2841796875 c 0
 74.310546875 151.288085938 72.3848816009 330.850608934 68.603515625 349.920898438 c 0
 63.859375 373.846679688 43.5869140625 375.33203125 21.779296875 378.489257812 c 1
 23.6689453125 403.361328125 l 1
 78.5947265625 398.09375 123.415039062 393.48046875 182.388671875 401.137695312 c 1
 183.782226562 376.922851562 l 1
 173.454101562 373.938476562 152.282872856 372.608010107 149.208984375 360.094726562 c 0
 134.125976562 298.694335938 133.92939801 125.006635052 141.74609375 46.671875 c 0
 142.958822391 34.5185546875 184.397123066 28.572265625 227.083007812 28.572265625 c 3
 267.525458268 28.572265625 311.234594544 34.8852213296 312.540039062 48.2890625 c 0
 321.920898438 144.608398438 321.45801764 227.954943223 317.5703125 336.55859375 c 0
 316.3203125 371.477539062 298.137695312 370.640625 280.134765625 379.387695312 c 1
 283.336914062 401.794921875 l 1
 327.1015625 392.094726562 370.904296875 392.17578125 417.818359375 405.826171875 c 1
 422 381.611328125 l 1
 403.4609375 374.231445312 398.20516795 372.144604608 395.387695312 346.34375 c 0
 385.643554686 257.112304688 372.839101308 68.5009255483 391.073242188 43.5888671875 c 0
 398.849393691 32.96484375 433.324369715 28.0908203125 468.39453125 28.0908203125 c 3
 507.358684627 28.0908203125 549.029933068 35.0488690541 550.540039062 48.2890625 c 0
 559.920898438 144.608398438 559.45801764 227.954943223 555.5703125 336.55859375 c 0
 554.3203125 371.477539062 536.137695312 370.640625 518.134765625 379.387695312 c 1
 521.336914062 401.794921875 l 1
 568.356445312 392.094726562 615.416015625 392.17578125 665.818359375 405.826171875 c 1
 670 381.611328125 l 1
 644.495117188 374.231445312 636.26016468 372.213822882 633.387695312 346.34375 c 0
 623.643554686 258.5859375 622.265743995 88.2031523542 629.073242188 58.5888671875 c 0
 635.848632812 29.1142578125 683.173828125 34.2021484375 699.599609375 31.2001953125 c 1
 699.599609375 -144 l 1
 672.200195312 -144 l 1
 658.57421875 -38.3974609375 643.873046875 -3.7109375 594.545898438 -0.2880859375 c 1
EndSplineSet
EndChar
StartChar: afii10106
Encoding: 1113 1113 1234
GlifName: afii10106
Width: 680
Flags: HW
LayerCount: 2
Back
SplineSet
439.700195312 27 m 1xa8
 439.000976562 -6.2998046875 l 1x48
 377.166015625 1.400390625 301.86328125 2.7998046875 248.600585938 -7 c 1
 245.100585938 27 l 1025
EndSplineSet
Fore
SplineSet
483.700195312 214 m 0
 455.372070312 215 410.700195312 215 410.700195312 215 c 1
 410.700195312 160.463867188 411.48828125 106.94921875 412.700195312 73 c 0
 413.700195312 45 417.553710938 37.9287109375 430.700195312 32 c 0
 437.221679688 30 489.396484375 25 505.700195312 25 c 3
 552.086914062 25 576.700195312 60.5810546875 576.700195312 115 c 1
 576.700195312 165 548.109375 210.612304688 483.700195312 214 c 0
344.131835938 203.905273438 m 3
 344.131835938 248.68359375 340.984375 296.55078125 337.5 348.799804688 c 0
 336.799804688 359.299804688 327.129882812 369.099609375 320 369.099609375 c 3
 289.971679688 369.099609375 265.236328125 370.6796875 231.799804688 364.900390625 c 0
 221.204101562 362.171875 207.263671875 351.833007812 205.174804688 333.400390625 c 0
 200.7109375 294.002929688 188.97265625 217.618164062 183.5 161 c 0
 178.26953125 106.883789062 166.0625 55.578125 137.299804688 30.099609375 c 0
 113.294921875 8.8359375 90.349609375 -6.2998046875 53.900390625 -6.2998046875 c 3
 37.7802734375 -6.2998046875 12.59375 1.400390625 0 16.7998046875 c 1
 0.857421875 51.6044921875 0 51.6044921875 42 99.2998046875 c 1
 61.716796875 90 73.521484375 77.599609375 96.6005859375 77.599609375 c 3
 129.962890625 77.599609375 143.95703125 122.909179688 148.5859375 157.166992188 c 0
 162.536132812 260.415039062 171.861328125 379.056640625 172.200195312 410.799804688 c 1
 191.18359375 406.75 209.348632812 404.915039062 227.5 404.5 c 0
 266.791992188 403.799804688 347.084960938 403.470703125 358.654296875 403.470703125 c 3
 385.698242188 403.470703125 390.740234375 403.299804688 468.900390625 409.400390625 c 1
 470.299804688 373.299804688 l 1
 441.416015625 371.900390625 424.517578125 378.69140625 420.5 350.200195312 c 0
 416.147460938 319.329101562 413.068359375 280.889648438 411.700195312 234 c 1
 468.173828125 234 511.08203125 237.439453125 548.700195312 231 c 0
 606.518554688 219 654.700195312 177 654.700195312 121 c 1
 654.700195312 46.599609375 596.290039062 -3 507.700195312 -3 c 3
 466.927734375 -3 414.655273438 1 369.700195312 1 c 3
 327.700195312 1 286.900390625 -5 279.700195312 -6 c 1
 276.700195312 26 l 1
 292.78515625 26.87890625 339.700195312 29.515625 339.700195312 55 c 0
 339.700195312 57.6357421875 344.131835938 122.205078125 344.131835938 203.905273438 c 3
EndSplineSet
EndChar
StartChar: afii10194
Encoding: 1123 1123 2754
Width: 592
Flags: HW
LayerCount: 2
Back
SplineSet
215.099609375 446.400390625 m 1
 166.5 448.099609375 131.762695312 447 89.3994140625 439 c 0
 57.099609375 432.900390625 56.8994140625 436.900390625 26.8994140625 383.900390625 c 1
 -3 398 l 1
 13.5 431.400390625 35.5 489.400390625 44.3994140625 507.900390625 c 1
 59.69921875 496.200195312 74.6943359375 488.088867188 97.3994140625 487.599609375 c 0
 171.196289062 485.819335938 245.513671875 484.623046875 319.94140625 484.623046875 c 1
 360.665039062 484.623046875 401.408203125 485.599609375 442.099609375 485.599609375 c 0
 453.899414062 485.599609375 463.299804688 490.899414062 468.200195312 497.099609375 c 1
 487.599609375 484.599609375 l 1
 477.099609375 455.599609375 465 427.5 463 387.5 c 1
 434.399414062 392.099609375 l 1
 434.399414062 392.099609375 437.599609375 410.900390625 438.299804688 413 c 1
 450.137695312 454.299804688 287.85546875 447.5 242.599609375 446.099609375 c 1
 215.099609375 446.400390625 l 1
EndSplineSet
Fore
SplineSet
88.599609375 439 m 0
 56.0732421875 434.251953125 56.099609375 436.900390625 26.099609375 383.900390625 c 1
 -3.7998046875 398 l 1
 12.7001953125 431.400390625 34.69921875 489.400390625 43.599609375 507.900390625 c 1
 58.8994140625 496.200195312 73.8955078125 488.147460938 96.599609375 487.599609375 c 0
 170.396484375 485.819335938 244.712890625 484.623046875 319.141601562 484.623046875 c 1
 359.865234375 484.623046875 400.608398438 485.599609375 441.299804688 485.599609375 c 0
 453.099609375 485.599609375 462.5 490.899414062 467.400390625 497.099609375 c 1
 486.799804688 484.599609375 l 1
 476.299804688 455.599609375 464.200195312 427.5 462.200195312 387.5 c 1
 433.599609375 392.099609375 l 1
 433.599609375 392.099609375 436.799804688 410.900390625 437.5 413 c 1
 443.337890625 434.299804688 406.0625 446.099609375 241.799804688 446.099609375 c 3
 151.030273438 446.099609375 116 443 88.599609375 439 c 0
271 298 m 1
 325 298 366.0859375 301.49609375 402 295 c 0
 487.635742188 279.508789062 559 225.291015625 559 153 c 1
 559 59.400390625 480.32421875 -3 361 -3 c 3
 322 -3 272 1 229 1 c 3
 194 1 160 -2 154 -2 c 1
 152 22 l 1
 164 23 199 26 199 55 c 0
 199 57.0703125 203 107.805664062 203 172 c 1
 200 351.696289062 200 507.860351562 200 510 c 3
 200 570 199.713867188 606.9453125 196 627 c 0
 191 654 184 656 166 656 c 3
 156 656 145 654 136 654 c 1
 131 683 l 1
 168 690 224 718 274 759 c 1
 295 743 l 1
 285 717 276.547851562 687.017578125 276 667 c 0
 273.727539062 583.932617188 271 441.157226562 271 298 c 1
337 278 m 0
 311 279 270 279 270 279 c 1
 270 199.883789062 270.241210938 122.234375 272 73 c 0
 273 45 276.317382812 36.560546875 290 32 c 0
 296 30 344 25 359 25 c 3
 438.706054688 25 481 73.232421875 481 147 c 1
 481 213.161132812 436.772460938 274.162109375 337 278 c 0
EndSplineSet
EndChar
StartChar: afii10098
Encoding: 1169 1169 1284
GlifName: afii10098
Width: 415
Flags: HW
AnchorPoint: "Top" 228 465 basechar 0
AnchorPoint: "Bottom" 147 -15 basechar 0
LayerCount: 2
Fore
SplineSet
144.536132812 403.147460938 m 3
 104.284179688 403.147460938 64.14453125 404.017578125 31.6328125 405.640625 c 1
 28.1884765625 385.123046875 l 1
 66.2548828125 377.462890625 78.853515625 373.673828125 80.927734375 352.279296875 c 0
 82.854682093 332.403792823 83.765625 274.528320312 83.765625 216.577148438 c 0
 83.765625 156.567382812 82.8893830076 85.4881028102 81.5673828125 67.4853515625 c 1
 78.3203125 34.23828125 63.3134765625 24.65234375 35.67578125 17.072265625 c 1
 42.162109375 -5.91015625 l 1
 77.2761107261 -0.0403599281449 106.572636719 3.05508575498 134.03299781 3.05508575498 c 0
 164.671538954 3.05508575498 193.024295199 -0.798338842768 224.62109375 -8.951171875 c 1
 228.641601562 26.4501953125 l 1
 175.532226562 26.888671875 160.9609375 37.361328125 157.862304688 70.03125 c 0
 152.883465241 122.524819144 150.590820312 182.3359375 150.590820312 228.225585938 c 0
 150.590820312 273.225585938 152.794921875 315.416992188 156.830078125 355.518554688 c 0
 157.804750839 365.204895519 158.892578125 374.181640625 167.969726562 375.13671875 c 0
 190.854823548 376.374614505 215.075476946 378.46875 240 378.46875 c 3
 308.868702985 378.46875 365.800934553 372.213920507 367.629882812 363.94921875 c 1
 383.622070312 371.586914062 388 379.8359375 388 395.428710938 c 0
 388 411.381835938 383.41796875 465.022460938 382.001953125 503.559570312 c 1
 358.485351562 505.44921875 l 1
 352.068359375 488.4609375 356.306684627 433.276394833 331.409179688 420.331054688 c 0
 292.761577438 404 215.880619975 403.147460938 144.536132812 403.147460938 c 3
EndSplineSet
EndChar
StartChar: uni04AF
Encoding: 1199 1199 1389
GlifName: uni04A_F_
Width: 460
Flags: HW
LayerCount: 2
Fore
SplineSet
189.7421875 371.333984375 m 1
 201.68539595 371.556999412 171.128486283 367.488560244 157.30078125 364.916992188 c 0
 145.331101509 362.690965092 147.607717669 357.463981371 151.168945312 343.094726562 c 0
 202.826824832 167.303074186 245.56059614 80.6830069118 249.486328125 72.837890625 c 1
 279.746228926 141 312.33352754 217.772953409 343.947265625 320.047851562 c 0
 347.55505024 331.719543251 352.810682751 344.053075519 343.518554688 351.513671875 c 0
 330.964502249 361.593248613 298.499675636 366.872752943 275.504882812 368.232421875 c 1
 276.818359375 401.921875 l 1
 311 389 401 381 446 401.587890625 c 1
 446 365.513671875 l 1
 418.512361712 362.96067139 409.191537458 353.088882759 392.396484375 324.430664062 c 0
 356.260671742 253.022150899 301.54773712 129.130159042 265.890625 25.708984375 c 1
 265.314622807 -28.3857686345 263.355915019 -93.0764354062 274.09765625 -270.499023438 c 0
 276.015673824 -302.179142568 288.385787166 -303.0586431 333.783203125 -309.310546875 c 1
 330.580078125 -337.142578125 l 1
 271.655162441 -328.836901519 199.320265945 -325.218788641 139.485351562 -340.678710938 c 1
 132.08984375 -313.665039062 l 1
 176.9477749 -304.26863286 196.657354812 -297.26814996 198.260742188 -259.220703125 c 0
 198.787638441 -246.717762468 196.843021338 -6.18617226095 196.118164062 -0.2490234375 c 1
 194.972274598 10.0258702283 139.770741023 177.033978488 67.1982421875 333.014648438 c 0
 55.3761057159 363.089769568 39.2658363324 359.580776334 7.5654296875 368.715820312 c 1
 10.03125 397.416992188 l 1
 57.609019754 387.553996101 151.922474842 387.763352827 186.540039062 400.426757812 c 1
 189.7421875 371.333984375 l 1
EndSplineSet
EndChar
StartChar: uni05A1
Encoding: 1441 1441 2553
GlifName: uni05A_1
Width: 0
Flags: HW
AnchorPoint: "HbTop" 263 628 mark 0
LayerCount: 2
Back
SplineSet
420.080078125 0 m 1
 67.51953125 -1.16015625 l 1
 71.7197265625 113.919921875 l 1
 440.280273438 113.919921875 l 1
 420.080078125 0 l 1
102.481445312 452.118164062 m 1
 99.8173828125 440.865234375 93.9873046885 421.4921875 94.2001953125 411.400390625 c 1
 97.6796875004 300.088885308 109.280273438 176.545821716 116.240234375 82.3603515625 c 1
 67.51953125 -1.16015625 l 1
 54.51953125 6.4404296875 l 1
 53.3603515625 511.559570312 l 1
 107.200195312 593.559570312 l 1
 144.364713084 566.871907325 140.621530843 570.520507812 213.655273438 570.520507812 c 3
 298.327709875 570.520507812 408.462919887 562.295898438 435.639648438 557.959960938 c 1
 448.400390625 515.539650805 462.954838988 471.273947411 465.799804688 429.51953125 c 0
 471.599609375 344.398132912 473.919921875 262.728073182 473.919921875 192.559570312 c 0
 473.919921875 153.120117188 472.759765625 117.16015625 471.599609375 88.16015625 c 1
 454.061300794 58 434.330357583 26.6796875 420.080078125 0 c 1
 407.719726562 6.919921875 l 1
 422.902797005 170.294225034 438.085867445 325.069771803 431.759765625 438.080078125 c 1
 319.240234375 446.200195312 197.451171875 448.51953125 135.959960938 448.51953125 c 3
 126.201171875 448.51953125 114.290039062 450.491210938 102.481445312 452.118164062 c 1
EndSplineSet
Fore
SplineSet
191 677 m 1
 210.918645001 712.367107128 224.974265809 755.771919801 225 814 c 1
 265 810 l 1
 265 788.338066502 254.528449992 757.536909458 251 746 c 1
 285.141988231 747.536108197 309.5251983 779.292855281 311 820 c 1
 347 810 l 1
 338.264942246 761.813668026 298.626330896 721.393316589 243 723 c 1
 235.282380058 700.76269057 224.774194823 679.927707791 211 664 c 1
 191 677 l 1
EndSplineSet
EndChar
StartChar: uni05A5
Encoding: 1445 1445 2534
GlifName: uni05A_5
Width: 0
Flags: HW
AnchorPoint: "HbBottom" 254 0 mark 0
LayerCount: 2
Back
SplineSet
420.080078125 0 m 1
 67.51953125 -1.16015625 l 1
 71.7197265625 113.919921875 l 1
 440.280273438 113.919921875 l 1
 420.080078125 0 l 1
102.481445312 452.118164062 m 1
 99.8173828125 440.865234375 93.9873046885 421.4921875 94.2001953125 411.400390625 c 1
 97.6796875004 300.088885308 109.280273438 176.545821716 116.240234375 82.3603515625 c 1
 67.51953125 -1.16015625 l 1
 54.51953125 6.4404296875 l 1
 53.3603515625 511.559570312 l 1
 107.200195312 593.559570312 l 1
 144.364713084 566.871907325 140.621530843 570.520507812 213.655273438 570.520507812 c 3
 298.327709875 570.520507812 408.462919887 562.295898438 435.639648438 557.959960938 c 1
 448.400390625 515.539650805 462.954838988 471.273947411 465.799804688 429.51953125 c 0
 471.599609375 344.398132912 473.919921875 262.728073182 473.919921875 192.559570312 c 0
 473.919921875 153.120117188 472.759765625 117.16015625 471.599609375 88.16015625 c 1
 454.061300794 58 434.330357583 26.6796875 420.080078125 0 c 1
 407.719726562 6.919921875 l 1
 422.902797005 170.294225034 438.085867445 325.069771803 431.759765625 438.080078125 c 1
 319.240234375 446.200195312 197.451171875 448.51953125 135.959960938 448.51953125 c 3
 126.201171875 448.51953125 114.290039062 450.491210938 102.481445312 452.118164062 c 1
EndSplineSet
Fore
Refer: 2548 1436 N -1 0 0 -1 536.001 594.448 2
EndChar
StartChar: uni05A9
Encoding: 1449 1449 2555
GlifName: uni05A_9
Width: 0
UnlinkRmOvrlpSave: 1
Flags: HW
AnchorPoint: "HbTopLeft" 91.68 619.44 mark 0
LayerCount: 2
Back
SplineSet
420.080078125 0 m 1
 67.51953125 -1.16015625 l 1
 71.7197265625 113.919921875 l 1
 440.280273438 113.919921875 l 1
 420.080078125 0 l 1
102.481445312 452.118164062 m 1
 99.8173828125 440.865234375 93.9873046885 421.4921875 94.2001953125 411.400390625 c 1
 97.6796875004 300.088885308 109.280273438 176.545821716 116.240234375 82.3603515625 c 1
 67.51953125 -1.16015625 l 1
 54.51953125 6.4404296875 l 1
 53.3603515625 511.559570312 l 1
 107.200195312 593.559570312 l 1
 144.364713084 566.871907325 140.621530843 570.520507812 213.655273438 570.520507812 c 3
 298.327709875 570.520507812 408.462919887 562.295898438 435.639648438 557.959960938 c 1
 448.400390625 515.539650805 462.954838988 471.273947411 465.799804688 429.51953125 c 0
 471.599609375 344.398132912 473.919921875 262.728073182 473.919921875 192.559570312 c 0
 473.919921875 153.120117188 472.759765625 117.16015625 471.599609375 88.16015625 c 1
 454.061300794 58 434.330357583 26.6796875 420.080078125 0 c 1
 407.719726562 6.919921875 l 1
 422.902797005 170.294225034 438.085867445 325.069771803 431.759765625 438.080078125 c 1
 319.240234375 446.200195312 197.451171875 448.51953125 135.959960938 448.51953125 c 3
 126.201171875 448.51953125 114.290039062 450.491210938 102.481445312 452.118164062 c 1
EndSplineSet
Fore
SplineSet
85.765625 825.381835938 m 3
 53.0818068355 825.381835938 38.94921875 800.091116686 38.94921875 776.508789062 c 3
 38.94921875 748.290858675 65.2891453289 721 96 721 c 3
 131.909604797 721 141 748.704799107 141 769 c 3
 141 798.301580357 117.40016969 825.381835938 85.765625 825.381835938 c 3
91.8056640625 855 m 3
 136.26595982 855 172 816.733597587 172 770.8984375 c 3
 172 727.016233648 138.421979549 691 92.408203125 691 c 3
 45.5619173795 691 8 727.016233648 8 770.8984375 c 3
 8 815.892472547 46.3236325068 855 91.8056640625 855 c 3
EndSplineSet
Refer: 1967 58113 N 0.0648074 -0.0543798 0.602613 0.718167 146.096 725.19 2
EndChar
StartChar: uni05AB
Encoding: 1451 1451 2557
GlifName: uni05A_B_
Width: 0
Flags: HW
AnchorPoint: "HbTop" 270 628 mark 0
LayerCount: 2
Back
SplineSet
420.080078125 0 m 1
 67.51953125 -1.16015625 l 1
 71.7197265625 113.919921875 l 1
 440.280273438 113.919921875 l 1
 420.080078125 0 l 1
102.481445312 452.118164062 m 1
 99.8173828125 440.865234375 93.9873046885 421.4921875 94.2001953125 411.400390625 c 1
 97.6796875004 300.088885308 109.280273438 176.545821716 116.240234375 82.3603515625 c 1
 67.51953125 -1.16015625 l 1
 54.51953125 6.4404296875 l 1
 53.3603515625 511.559570312 l 1
 107.200195312 593.559570312 l 1
 144.364713084 566.871907325 140.621530843 570.520507812 213.655273438 570.520507812 c 3
 298.327709875 570.520507812 408.462919887 562.295898438 435.639648438 557.959960938 c 1
 448.400390625 515.539650805 462.954838988 471.273947411 465.799804688 429.51953125 c 0
 471.599609375 344.398132912 473.919921875 262.728073182 473.919921875 192.559570312 c 0
 473.919921875 153.120117188 472.759765625 117.16015625 471.599609375 88.16015625 c 1
 454.061300794 58 434.330357583 26.6796875 420.080078125 0 c 1
 407.719726562 6.919921875 l 1
 422.902797005 170.294225034 438.085867445 325.069771803 431.759765625 438.080078125 c 1
 319.240234375 446.200195312 197.451171875 448.51953125 135.959960938 448.51953125 c 3
 126.201171875 448.51953125 114.290039062 450.491210938 102.481445312 452.118164062 c 1
EndSplineSet
Fore
Refer: 2546 1434 N 1 0 0 1 -228 846 2
EndChar
StartChar: uni05AF
Encoding: 1455 1455 2561
GlifName: uni05A_F_
Width: 0
Flags: HW
AnchorPoint: "HbTop" 273 628 mark 0
LayerCount: 2
Back
SplineSet
420.080078125 0 m 1
 67.51953125 -1.16015625 l 1
 71.7197265625 113.919921875 l 1
 440.280273438 113.919921875 l 1
 420.080078125 0 l 1
102.481445312 452.118164062 m 1
 99.8173828125 440.865234375 93.9873046885 421.4921875 94.2001953125 411.400390625 c 1
 97.6796875004 300.088885308 109.280273438 176.545821716 116.240234375 82.3603515625 c 1
 67.51953125 -1.16015625 l 1
 54.51953125 6.4404296875 l 1
 53.3603515625 511.559570312 l 1
 107.200195312 593.559570312 l 1
 144.364713084 566.871907325 140.621530843 570.520507812 213.655273438 570.520507812 c 3
 298.327709875 570.520507812 408.462919887 562.295898438 435.639648438 557.959960938 c 1
 448.400390625 515.539650805 462.954838988 471.273947411 465.799804688 429.51953125 c 0
 471.599609375 344.398132912 473.919921875 262.728073182 473.919921875 192.559570312 c 0
 473.919921875 153.120117188 472.759765625 117.16015625 471.599609375 88.16015625 c 1
 454.061300794 58 434.330357583 26.6796875 420.080078125 0 c 1
 407.719726562 6.919921875 l 1
 422.902797005 170.294225034 438.085867445 325.069771803 431.759765625 438.080078125 c 1
 319.240234375 446.200195312 197.451171875 448.51953125 135.959960938 448.51953125 c 3
 126.201171875 448.51953125 114.290039062 450.491210938 102.481445312 452.118164062 c 1
EndSplineSet
Fore
SplineSet
315 736 m 0
 315 762 293 780 271 780 c 0
 245 780 228 759 228 736 c 0
 228 714 246 692 271 692 c 0
 293 692 315 710 315 736 c 0
194 736 m 0
 194 778 228 814 271 814 c 0
 309.493506494 814 349 783 349 736 c 0
 349 697 317.597402597 658 271 658 c 0
 230 658 194 692 194 736 c 0
EndSplineSet
EndChar
StartChar: afii57800
Encoding: 1458 1458 2529
GlifName: afii57800
Width: 0
Flags: HW
AnchorPoint: "HbBottom" 287 0 mark 0
LayerCount: 2
Back
SplineSet
420.080078125 0 m 1
 67.51953125 -1.16015625 l 1
 71.7197265625 113.919921875 l 1
 440.280273438 113.919921875 l 1
 420.080078125 0 l 1
102.481445312 452.118164062 m 1
 99.8173828125 440.865234375 93.9873046885 421.4921875 94.2001953125 411.400390625 c 1
 97.6796875004 300.088885308 109.280273438 176.545821716 116.240234375 82.3603515625 c 1
 67.51953125 -1.16015625 l 1
 54.51953125 6.4404296875 l 1
 53.3603515625 511.559570312 l 1
 107.200195312 593.559570312 l 1
 144.364713084 566.871907325 140.621530843 570.520507812 213.655273438 570.520507812 c 3
 298.327709875 570.520507812 408.462919887 562.295898438 435.639648438 557.959960938 c 1
 448.400390625 515.539650805 462.954838988 471.273947411 465.799804688 429.51953125 c 0
 471.599609375 344.398132912 473.919921875 262.728073182 473.919921875 192.559570312 c 0
 473.919921875 153.120117188 472.759765625 117.16015625 471.599609375 88.16015625 c 1
 454.061300794 58 434.330357583 26.6796875 420.080078125 0 c 1
 407.719726562 6.919921875 l 1
 422.902797005 170.294225034 438.085867445 325.069771803 431.759765625 438.080078125 c 1
 319.240234375 446.200195312 197.451171875 448.51953125 135.959960938 448.51953125 c 3
 126.201171875 448.51953125 114.290039062 450.491210938 102.481445312 452.118164062 c 1
EndSplineSet
Fore
Refer: 2527 1456 N 1 0 0 1 119 0 2
Refer: 2510 1463 N 1 0 0 1 -41 0 2
EndChar
StartChar: afii57793
Encoding: 1460 1460 2507
GlifName: afii57793
Width: 0
Flags: HW
AnchorPoint: "HbBottom" 286 0 mark 0
LayerCount: 2
Back
SplineSet
420.080078125 0 m 1
 67.51953125 -1.16015625 l 1
 71.7197265625 113.919921875 l 1
 440.280273438 113.919921875 l 1
 420.080078125 0 l 1
102.481445312 452.118164062 m 1
 99.8173828125 440.865234375 93.9873046885 421.4921875 94.2001953125 411.400390625 c 1
 97.6796875004 300.088885308 109.280273438 176.545821716 116.240234375 82.3603515625 c 1
 67.51953125 -1.16015625 l 1
 54.51953125 6.4404296875 l 1
 53.3603515625 511.559570312 l 1
 107.200195312 593.559570312 l 1
 144.364713084 566.871907325 140.621530843 570.520507812 213.655273438 570.520507812 c 3
 298.327709875 570.520507812 408.462919887 562.295898438 435.639648438 557.959960938 c 1
 448.400390625 515.539650805 462.954838988 471.273947411 465.799804688 429.51953125 c 0
 471.599609375 344.398132912 473.919921875 262.728073182 473.919921875 192.559570312 c 0
 473.919921875 153.120117188 472.759765625 117.16015625 471.599609375 88.16015625 c 1
 454.061300794 58 434.330357583 26.6796875 420.080078125 0 c 1
 407.719726562 6.919921875 l 1
 422.902797005 170.294225034 438.085867445 325.069771803 431.759765625 438.080078125 c 1
 319.240234375 446.200195312 197.451171875 448.51953125 135.959960938 448.51953125 c 3
 126.201171875 448.51953125 114.290039062 450.491210938 102.481445312 452.118164062 c 1
EndSplineSet
Fore
SplineSet
267.444335938 -62.9775390625 m 1
 289.502929688 -65.4853515625 310.888671875 -74.392578125 331.892578125 -86.9462890625 c 1
 326.919921875 -117.296875 316.376953125 -136.243164062 302 -156 c 1
 279.451171875 -152.423828125 257.791015625 -142.325195312 241.017578125 -129.702148438 c 1
 244.057617188 -104.270507812 248.536132812 -82.015625 267.444335938 -62.9775390625 c 1
EndSplineSet
EndChar
StartChar: afii57794
Encoding: 1461 1461 2508
GlifName: afii57794
Width: 0
Flags: HW
AnchorPoint: "HbBottom" 287 0 mark 0
LayerCount: 2
Back
SplineSet
420.080078125 0 m 1
 67.51953125 -1.16015625 l 1
 71.7197265625 113.919921875 l 1
 440.280273438 113.919921875 l 1
 420.080078125 0 l 1
102.481445312 452.118164062 m 1
 99.8173828125 440.865234375 93.9873046885 421.4921875 94.2001953125 411.400390625 c 1
 97.6796875004 300.088885308 109.280273438 176.545821716 116.240234375 82.3603515625 c 1
 67.51953125 -1.16015625 l 1
 54.51953125 6.4404296875 l 1
 53.3603515625 511.559570312 l 1
 107.200195312 593.559570312 l 1
 144.364713084 566.871907325 140.621530843 570.520507812 213.655273438 570.520507812 c 3
 298.327709875 570.520507812 408.462919887 562.295898438 435.639648438 557.959960938 c 1
 448.400390625 515.539650805 462.954838988 471.273947411 465.799804688 429.51953125 c 0
 471.599609375 344.398132912 473.919921875 262.728073182 473.919921875 192.559570312 c 0
 473.919921875 153.120117188 472.759765625 117.16015625 471.599609375 88.16015625 c 1
 454.061300794 58 434.330357583 26.6796875 420.080078125 0 c 1
 407.719726562 6.919921875 l 1
 422.902797005 170.294225034 438.085867445 325.069771803 431.759765625 438.080078125 c 1
 319.240234375 446.200195312 197.451171875 448.51953125 135.959960938 448.51953125 c 3
 126.201171875 448.51953125 114.290039062 450.491210938 102.481445312 452.118164062 c 1
EndSplineSet
Fore
Refer: 2507 1460 N 1 0 0 1 -67 0 2
Refer: 2507 1460 N 1 0 0 1 66 0 2
EndChar
StartChar: afii57672
Encoding: 1496 1496 2464
GlifName: afii57672
Width: 519
UnlinkRmOvrlpSave: 1
Flags: HW
AnchorPoint: "HbTopLeft" 59.68 619.44 basechar 0
AnchorPoint: "HbBottom" 218 0 basechar 0
AnchorPoint: "HbMiddle" 245 284 basechar 0
AnchorPoint: "HbTop" 235 619.44 basechar 0
LayerCount: 2
Back
SplineSet
63.484375 444.208007812 m 0
 22.462890625 453.231445312 12.759765625 474.20703125 12.759765625 482.559570312 c 0
 12.759765625 495.353515625 33.0087890625 556.40625 43.369140625 600.834960938 c 1
 63.7939453125 596.907226562 l 1
 97.0908203125 568.202148438 l 1
 98.7001953125 567.709960938 l 2
 129.495117188 558.291992188 191.371935062 528.709960938 199.072804039 511.032226562 c 1
 200.267797922 497.528320312 179.99395132 413.856445312 174.504277131 400.029296875 c 1
 170.786112957 398.822265625 163.275895676 401.166992188 154.641836819 401.166992188 c 0
 149.532553813 401.166992188 144.643113192 400.830078125 140.00088123 400.225585938 c 1024
129.107421875 398.298828125 m 0
 104.666015625 392.97265625 82.599609375 381.603515625 82.599609375 367.719726562 c 0
 82.599609375 260.556640625 110.206054688 151.168945312 112.657226562 72.5908203125 c 1
 91.2373046875 57.9501953125 72.318359375 45.0712890625 53.248046875 31.6474609375 c 1
 52.3369140625 123.79296875 47.2919921875 237.982421875 47.2919921875 314.639648438 c 0
 47.2919921875 352.771484375 49.109375 383.831054688 51.7900390625 391.87109375 c 0
 52.5498046875 394.15234375 59.908203125 404.169921875 72.3984375 426.325195312 c 1024
82.54296875 439.852539062 m 1
 81.6484375 440.299804688 83.4375 439.405273438 82.54296875 439.852539062 c 2
 82.54296875 439.852539062 l 1
227.535551471 360.004882812 m 0
 231.907769548 358.546875 l 1
 299.642941904 551.438476562 345.820789495 558.200195312 387.799804688 558.200195312 c 0
 405.721679688 558.200195312 479.559570312 518.729492188 479.559570312 393.360351562 c 0
 479.559570312 251.809570312 399.560546875 119.625976562 323.561063745 50.1943359375 c 0
 293.865009649 22.0888671875 263.11079303 1.16015625 237.436668728 1.16015625 c 0
 84.1865234375 -0.0126953125 l 1
 58.1845703125 -11.9296875 l 1
 42.3466796875 -4.3876953125 l 1
 52.9853515625 90.2978515625 l 1
 89.2021484375 123.7578125 130.302734375 114.809570312 269.103094417 118.5625 c 0
 316.448569619 119.84375 356.398765882 158.163085938 375.416992188 178.859375 c 0
 399.4140625 204.670898438 431.830078125 260.249023438 431.830078125 304.623046875 c 0
 431.830078125 400.224609375 373.939453125 453.559570312 338.262225133 453.559570312 c 0
 308.338118769 453.559570312 283.931965075 410.15234375 249.811696984 347.229492188 c 1
 227.535551471 360.004882812 l 0
EndSplineSet
Fore
SplineSet
109.040039062 575.360351562 m 1
 134.703645504 566.080078125 190.576537511 537.011903924 202.240234375 513.879882812 c 0
 207.149414062 504.143754595 178.859721497 411.291836027 174.400390625 407.400390625 c 0
 168.004882812 401.819335936 155.6328125 406.166992188 147.185546875 406.166992188 c 3
 107.6015625 406.166992188 81.599609375 377.782292821 81.599609375 367.719726562 c 3
 81.599609375 259.833984375 110.251953125 149.639648438 111.759765625 68.4404296875 c 1
 90.4169653474 49.5927734375 72.8401856462 34.2275390625 53.3603515625 16.240234375 c 1
 52.9296875 110.33984375 47.2919921875 233.360351562 47.2919921875 314.639648438 c 3
 47.2919921875 353 48.6613573074 383.979600811 52.2001953125 394.400390625 c 0
 55.4526026685 403.977730248 71.7201171875 421.535962258 101 479 c 1
 139 443 l 1
 103 439 l 1
 42.769630516 452.651367188 14.759765625 475.933118281 14.759765625 492.559570312 c 3
 14.759765625 508.632301413 36.3059562679 568.595882821 45.240234375 610.16015625 c 1
 75.400390625 604.360351562 l 1
 109.040039062 575.360351562 l 1
281.51953125 119.559570312 m 0
 327.445842804 121.050606607 366.624852943 166.604277534 386.557617188 192.306640625 c 0
 405.645773817 216.919921875 431.830078125 271.733398438 431.830078125 312.623046875 c 3
 431.830078125 414.570091392 378.021184505 467 349 467 c 3
 318.515933337 467 293.814838435 423.257708807 252.120117188 349.51953125 c 1
 233.639648438 361.919921875 l 1
 298.555358381 562.725585938 345.19489906 574.200195312 386.799804688 574.200195312 c 3
 409.421768008 574.200195312 479.559570312 529.533203125 479.559570312 401.360351562 c 3
 479.559570312 256.873046875 401.148889291 121.641355518 329.3203125 52.2001953125 c 0
 299.772861936 23.6348340039 267.744428292 1.16015625 238.879882812 1.16015625 c 0
 93.9599609375 0 l 1
 66.1201171875 -12.759765625 l 1
 41.759765625 -1.16015625 l 1
 54.3603515625 89.080078125 l 1
 93.3015174666 125.740879878 135.761199506 115.228297705 281.51953125 119.559570312 c 0
EndSplineSet
EndChar
StartChar: afii57673
Encoding: 1497 1497 2465
GlifName: afii57673
Width: 287
Flags: HW
AnchorPoint: "HbTopLeft" 66.68 619.44 basechar 0
AnchorPoint: "HbBottom" 150 0 basechar 0
AnchorPoint: "HbTop" 144 611.32 basechar 0
LayerCount: 2
Back
SplineSet
70.62109375 611.459960938 m 1
 78.6162109375 609.919921875 86.9853515625 608.698242188 93.4443359375 607.421875 c 1
 113.7890625 572.915039062 l 1
 116.006835938 571.879882812 l 0
 155.250976562 553.064453125 196.51953125 537.038085938 225.447265625 505.268554688 c 1
 236.122070312 484.767578125 238.990234375 468.106445312 238.990234375 448.919921875 c 0
 238.990234375 438.08203125 237.853515625 425.974609375 235.803710938 414.20703125 c 1
 210.735351562 360.749023438 187.004882812 315.702148438 144.975585938 255.336914062 c 1
 116.71875 271.8203125 l 1
 132.374023438 296.467773438 146.86328125 321.560546875 161.649414062 351.409179688 c 0
 167.756835938 365.419921875 169.099609375 403.412109375 149.158203125 413.131835938 c 1
 97.46484375 433.4296875 51.6083984375 460.487304688 32.48046875 486.93359375 c 1
 35.853515625 527.861328125 38.72265625 564.952148438 70.62109375 611.459960938 c 1
EndSplineSet
Fore
SplineSet
75.400390625 612.48046875 m 1
 82.5066143528 610.16015625 89.613502835 609 96.7197265625 606.6796875 c 1
 108.599609375 580.879882812 l 1
 148.20038174 560.296000623 191.01151715 543.345935943 223.120117188 504.599609375 c 1
 234.719726562 484.879882812 238.200195312 467.48046875 238.200195312 448.919921875 c 0
 238.200195312 436.16015625 240.868339565 421.022384506 234.719726562 408.3203125 c 0
 209.995367236 357.243656292 185.270061777 311.719521776 141.440429688 251.759765625 c 1
 113.6796875 269.120117188 l 1
 129.671875 291.717284689 146.970710194 319.927237657 162.690429688 347.959960938 c 0
 169.07864577 359.351964069 165.640457614 406.642001376 161.280273438 408.34375 c 0
 105.037048349 430.295077521 54.2267888922 459.078826161 32.48046875 491.240234375 c 1
 35.9599609375 528.462689246 38.2802734375 566.748796313 75.400390625 612.48046875 c 1
EndSplineSet
EndChar
StartChar: afii57687
Encoding: 1511 1511 2479
GlifName: afii57687
Width: 483
Flags: HW
AnchorPoint: "HbMiddle" 263 284 basechar 0
AnchorPoint: "HbTopLeft" 74.68 619.44 basechar 0
AnchorPoint: "HbTop" 224 619.44 basechar 0
LayerCount: 2
Back
SplineSet
65.56640625 197.350585938 m 1
 125.979492188 293.799804688 l 1
 145.577148438 280.008789062 l 1
 135.53125 248.864257812 l 1
 135.444335938 248.038085938 l 0
 128.399414062 181.112304688 139.9140625 -36.154296875 142.3125 -168.956054688 c 1
 85.1298828125 -245.200195312 l 1
 66.70703125 -237.09375 l 1
 65.56640625 197.350585938 l 1
89.8095703125 596.807617188 m 1
 126.219726562 562.998046875 126.19140625 569.831054688 194.418976777 569.831054688 c 0
 265.688051079 569.831054688 362.482421875 562.201171875 395.950195312 557.783203125 c 1
 419.514648438 465.418945312 434.920898438 343.728515625 434.920898438 266.353515625 c 0
 434.920898438 257.890625 433.938476562 249.942382812 433.760742188 241.267578125 c 1
 418.379882812 186.64453125 311.515783032 60.904296875 244.110801441 -29.154296875 c 1
 232.06397629 -21.8515625 l 1
 233.044840915 107.892578125 l 1
 298.872641808 151.64453125 349.306640625 183.516601562 394.92578125 249.546875 c 0
 396.537109375 251.879882812 l 1
 396.388671875 254.735351562 l 0
 392.869140625 322.16796875 381.0859375 374.143554688 367.118164062 426.711914062 c 0
 365.65625 432.212890625 l 1
 360.124023438 432.728515625 l 0
 274.891520691 441.063476562 186.536617514 444.611328125 141.498046875 443.489257812 c 1
 103.997070312 448.377929688 54.9111328125 452.639648438 38.2802734375 480.435546875 c 1
 69.1904296875 600.772460938 l 1
 89.8095703125 596.807617188 l 1
EndSplineSet
Fore
SplineSet
132.240234375 313.200195312 m 1
 152.559570312 301.16015625 l 1
 135.959960938 262.200195312 l 1
 128.999999999 194.97481239 140.599609375 -26.7506984447 142.919921875 -163.559570312 c 1
 84.2802734375 -246.080078125 l 1
 67.2802734375 -234.3203125 l 1
 66.1201171875 207.639648438 l 1
 132.240234375 313.200195312 l 1
193.669921875 570.520507812 m 3
 270.133187015 570.520507812 369.525080977 562.295898438 394.879882812 557.959960938 c 1
 419.240234375 467.48046875 435.48046875 344.51953125 435.48046875 266.799804688 c 0
 435.48046875 257.51953125 434.3203125 249.400390625 434.3203125 241.280273438 c 1
 420.205953664 187.274468155 314.891192657 60.6893599336 244.3203125 -27.3203125 c 1
 232.120117188 -18.5595703125 l 1
 233.280273438 108.16015625 l 1
 302.529259411 153.878391567 353.091364787 187.240740671 395.959960938 255.200195312 c 1
 392.36048626 324.467849011 380.359880117 377.655418696 365.959960938 432.080078125 c 1
 283.882238375 440.200195312 195.422495975 442.51953125 150.639648438 442.51953125 c 3
 114.43429992 442.51953125 57.8398437499 448.831746309 39.2802734375 481.440429688 c 1
 71.919921875 602.040039062 l 1
 89.080078125 596.240234375 l 1
 126.200195312 562.599609376 118.573242188 570.520507812 193.669921875 570.520507812 c 3
EndSplineSet
EndChar
StartChar: uni16ED
Encoding: 5869 5869 2494
GlifName: uni16E_D_
Width: 838
Flags: HW
LayerCount: 2
Fore
SplineSet
448.200195312 410.040039062 m 0
 448.200195312 378.719661458 457.920255335 377.639648438 492.48046875 377.639648438 c 0
 689.04020544 377.639648438 778.680085359 516.960325326 784.080078125 522.360351562 c 0
 787.320046165 525.6 792.719992898 527.759765625 795.959960938 527.759765625 c 0
 803.520938148 527.759765625 808.919921875 521.279715402 808.919921875 512.639648438 c 0
 808.919921875 496.439661985 772.200195312 433.79971437 772.200195312 325.799804688 c 0
 772.200195312 216.719685133 814.3203125 164.879628314 814.3203125 147.599609375 c 0
 814.3203125 137.880004883 806.760221354 130.3203125 798.120117188 130.3203125 c 0
 791.639956826 130.3203125 785.159796464 133.560302734 777.599609375 143.280273438 c 0
 728.999670694 205.920303446 629.639796057 306.360351562 498.959960938 306.360351562 c 0
 458.999651228 306.360351562 453.599609375 300.960266113 453.599609375 289.080078125 c 0
 453.599609375 72.000021981 603.720171067 -14.400400365 610.200195312 -26.2802734375 c 0
 616.680245536 -39.2402528695 604.80015346 -50.0400390625 595.080078125 -50.0400390625 c 0
 579.960059691 -50.0400390625 512.999978055 -2.51953125 402.83984375 -2.51953125 c 0
 292.680070708 -2.51953125 251.640155261 -46.7998046875 232.200195312 -46.7998046875 c 0
 222.479492187 -46.7998046875 212.758789062 -33.8398547836 231.120117188 -18.7197265625 c 0
 293.760133605 34.2002131158 380.16015625 137.880090853 380.16015625 277.200195312 c 0
 380.16015625 279.360351562 l 0
 380.16015625 293.400351562 378.00016276 306.360351562 315.360351562 306.360351562 c 0
 211.680188519 306.360351562 123.120049253 235.080370381 66.9599609375 158.400390625 c 0
 57.2401902338 145.440185547 48.5996162772 141.120117188 41.0400390625 141.120117188 c 0
 31.3203418749 141.120117188 24.83984375 148.680236816 24.83984375 158.400390625 c 0
 24.83984375 175.680314867 68.0400390625 227.520087595 68.0400390625 336.599609375 c 0
 68.0400390625 443.519585503 31.3203125 489.959575135 31.3203125 511.559570312 c 0
 31.3203125 527.760742187 50.759834806 529.920898437 62.6396484375 516.959960938 c 0
 72.3604508547 506.159954737 130.680065357 380.879882812 339.120117188 380.879882812 c 0
 365.04009185 380.879882812 379.080078125 380.879882812 379.080078125 412.200195312 c 0
 379.080078125 451.080157306 360.720017295 596.88001478 237.599609375 691.919921875 c 0
 225.720182292 701.639860734 221.400390625 709.199813179 221.400390625 716.759765625 c 0
 221.400390625 725.399832589 228.960083008 731.879882812 238.6796875 731.879882812 c 0
 254.879745751 731.879882812 313.199955455 684.360351562 423.360351562 684.360351562 c 0
 522.720284598 684.360351562 574.56024966 725.400390625 597.240234375 725.400390625 c 0
 606.960205078 725.400390625 610.200195312 716.760416667 610.200195312 712.440429688 c 0
 610.200195312 696.240384615 577.800134436 684.360351562 527.040039062 614.16015625 c 0
 480.6001311 549.360119048 448.200195312 457.560066344 448.200195312 410.040039062 c 0
EndSplineSet
EndChar
StartChar: uni1DC7
Encoding: 7623 7623 2741
Width: 0
Flags: HW
AnchorPoint: "TopMark" -200.5 397 mark 0
AnchorPoint: "TopMark" -198.5 495 basemark 0
AnchorPoint: "Top" -198.5 393 mark 0
LayerCount: 2
Fore
SplineSet
-363 452 m 1
 -334 486.137931034 -284 532.689655172 -236 572 c 1
 -196 531 l 1
 -244 501.923076923 -295 464.538461538 -342 423 c 1
 -363 452 l 1
EndSplineSet
Refer: 1968 58114 N 0.184 0 0 1.06522 -236 547.5 2
EndChar
StartChar: uni1E9F
Encoding: 7839 7839 1332
GlifName: uni1E_9F_
Width: 506
Flags: HW
LayerCount: 2
Fore
SplineSet
232 369 m 3
 153.875 369 107 299.952380952 107 224 c 0
 107 121 177 25 264 25 c 0
 346 25 394 99 394 178 c 0
 394 297.74611399 306.377358491 369 232 369 c 3
172.500866655 399.043705812 m 1
 103.49266457 424.875865582 49 457.814098098 49 534 c 0
 49 575.014218009 96.7835920316 658.613860946 160 704 c 0
 199 732 236 756 295 756 c 0
 341.355140187 756 413.785046729 738 450 702 c 1
 449 675 450 675 401 638 c 1
 344.666666667 665 299.888888889 701 245 701 c 0
 143.177966102 701 102 589.833358441 102 551 c 0
 102 462.428229982 247.169545836 431.9680234 317.40625 403.919921875 c 0
 410.155384473 366.881778201 472 289.054221278 472 202 c 0
 472 75 378 -14 255 -14 c 0
 130 -14 31 68 31 191 c 0
 31 303.384182315 100.174311277 370.164559418 172.500866655 399.043705812 c 1
EndSplineSet
EndChar
StartChar: uni1EFD
Encoding: 7933 7933 1492
GlifName: uni1E_F_D_
Width: 414
Flags: HW
LayerCount: 2
Fore
SplineSet
243.512695312 423 m 1
 243.512695312 423 250.391601562 408.198446685 253.703125 403.591796875 c 1
 172 362 112.91796875 289.657078999 112.91796875 190.092773438 c 3
 112.91796875 109.816638771 150.40625 20.7978515625 233.837890625 20.7978515625 c 3
 276.34375 20.7978515625 307.875976562 64.2162176915 307.875976562 113.831054688 c 3
 307.875976562 186.959510006 272.176570995 239.249023438 226.6171875 239.249023438 c 3
 222.502929688 239.249023438 220.004882812 238.723632812 217 238 c 1
 209 252 l 1
 215.377375232 268.674485521 231.265492568 280.345703125 250.805664062 280.345703125 c 3
 317.290039062 280.345703125 382 214.451171875 382 139.948242188 c 3
 382 58.5546875 290.5859375 -10 204.965820312 -10 c 3
 90.609375 -10 35 89.0224609375 35 158.150390625 c 3
 35 285.209960938 135 384 243.512695312 423 c 1
EndSplineSet
EndChar
StartChar: uni1FBF
Encoding: 8127 8127 1607
GlifName: uni1F_B_F_
Width: 198
Flags: HW
AnchorPoint: "Top" 142.637 465 mark 0
LayerCount: 2
Fore
SplineSet
107.836914062 494 m 1
 106.836914062 516 l 1
 142.559019246 516 180.836914062 534.618310772 180.836914062 575 c 3
 180.836914062 614.237532151 143.205041895 604.219478738 111.600585938 618.799804688 c 0
 107.660259276 620.542131046 106 626 106 630.799804688 c 3
 106 635.599609375 108.155027429 638.613691513 111.600585938 641.200195312 c 0
 118.44984521 646.341781237 135.408506393 672.174795151 136 685.599609375 c 0
 136.189640707 689.903783134 142.400390625 692.799804688 147.200195312 692.799804688 c 3
 152 692.799804688 156.834466406 691.154132676 158.400390625 689.599609375 c 0
 166.111095319 681.94504348 225.836914062 664.912266853 225.836914062 595 c 3
 225.836914062 514.37946079 160.515485491 494 107.836914062 494 c 1
EndSplineSet
EndChar
StartChar: uni2035
Encoding: 8245 8245 2379
GlifName: uni2035
Width: 148
Flags: HW
LayerCount: 2
Fore
SplineSet
128.67578125 464.926757812 m 1
 101.643554688 455.303710938 l 1
 7.931640625 728.2578125 l 1
 74.375 743.795898438 l 1
 87.4278056782 650.8394604 99.1505951512 557.883104385 128.67578125 464.926757812 c 1
EndSplineSet
EndChar
StartChar: uni207F
Encoding: 8319 8319 1293
GlifName: uni207F_
Width: 318
Flags: HW
LayerCount: 2
Fore
SplineSet
62 582 m 0
 57 596 54 593 46 593 c 1
 42 593 39 593 34 593 c 1
 31 620 l 1
 58 625 75 625 107 653 c 1
 127 640 l 1
 123 632 122 611 122 598 c 1
 145 619 170 644 200 644 c 3
 240 644 262 623 262 587 c 3
 262 569 262 545 262 526 c 1
 262 502 261 478 263 471 c 0
 264 465 269 463 274 463 c 1
 277 462 287 461 290 460 c 1
 285 429 l 1
 265 433 255 435 234 435 c 1
 218 435 198 432 185 429 c 1
 181 459 l 1
 184 460 190 460 193 461 c 1
 200 463 204 470 207 487 c 1
 208 498 211 521 211 530 c 1
 211 544 209 569 207 575 c 1
 205 588 200 598 182 598 c 3
 159 598 139 587 124 574 c 1
 123 542 119 494 118 480 c 1
 117 464 124 464 134 461 c 1
 137 461 143 460 146 460 c 1
 142 430 l 1
 122 433 109 435 87 435 c 1
 69 435 49 432 31 430 c 1
 28 460 l 1
 33 461 35 461 40 462 c 0
 55 465 60 470 64 485 c 1
 69 497 70 522 70 536 c 1
 70 544 67 575 62 582 c 0
EndSplineSet
EndChar
StartChar: peseta
Encoding: 8359 8359 1295
GlifName: peseta
Width: 679
UnlinkRmOvrlpSave: 1
Flags: HW
LayerCount: 2
Fore
SplineSet
447 103 m 1
 462.765625 53.978515625 494.297851562 31 532 31 c 0
 559 31 586 44.47265625 586 70 c 0
 586 100.489257812 547.443359375 113.979492188 523 126 c 0
 486.25 144.071289062 433 159.678710938 433 218 c 0
 433 260.5 484.458007812 303 547 303 c 0
 568.765625 303 588.552734375 297 609 291 c 1
 609 291 616.384765625 249.451171875 621 222 c 1
 606 217 l 1
 592 241 561.899414062 271 529 271 c 0
 505.533203125 271 485 255.9453125 485 235 c 0
 485 218.333007812 501.19140625 204.110351562 550 185 c 0
 607.630859375 162.434570312 639 124.85546875 639 85 c 0
 639 19.9228515625 566.157226562 -9 520 -9 c 3
 477.943359375 -9 427 22.1064453125 427 54 c 3
 427 62.5419921875 426.428710938 87.4580078125 425 96 c 1
 447 103 l 1
192 276 m 1
 240.28515625 301.833007812 280.213867188 328.52734375 309 369 c 1
 324 366 l 1
 320 343.762695312 320 324.947265625 318 301 c 1
 349.131835938 303 385.8671875 302 417 304 c 1
 413 261 l 1
 381.987304688 261 346.012695312 263 315 264 c 1
 311 225.21875 310 183.310546875 310 107 c 3
 310 73 319.756835938 38 356 38 c 3
 384.411120605 38 416.096203613 62 425 96 c 1
 425 96 434.818359375 79.0439453125 443 66 c 1
 427.095296224 32.0712890625 376.53898112 -10 322 -10 c 3
 305.477539062 -10 246 0 246 97 c 3
 246 160.845703125 250 200.430664062 252 263 c 1
 252 263 217 260 195 260 c 1
 192 276 l 1
195.286132812 406 m 3
 260.833007812 406 323.31640625 445.708007812 323.31640625 530 c 3
 323.31640625 577.948242188 285.415039062 616.924804688 260.872070312 633 c 0
 236.443359375 649 201.159179688 655 156.375 655 c 3
 143.95703125 655 134.313476562 641.990234375 134.849609375 627 c 0
 136.505859375 580.694335938 135.677734375 499.34765625 136.505859375 418 c 1
 154.71875 409 172.93359375 406 195.286132812 406 c 3
13.4833984375 687 m 1
 29.755859375 685 51.0361328125 683 75.4462890625 683 c 3
 125.98828125 683 153.750976562 694 204.294921875 694 c 3
 322.497070312 694 397 612.907226562 397 538 c 3
 397 448.702148438 327.553710938 370 188.663085938 370 c 3
 168.85546875 370 154.213867188 374 136.989257812 378 c 1
 139.215820312 256.07421875 140.44140625 122.020507812 144.784179688 67 c 0
 148.01953125 26 158.803710938 35 197.090820312 30 c 1
 193.779296875 -10 l 1
 193.779296875 -10 142.977539062 1 110 1 c 3
 76 1 21.869140625 -10 21.869140625 -10 c 1
 10.279296875 21 l 1
 57.5654296875 45.62109375 66.8037109375 35.9560546875 67.7900390625 72 c 0
 71.0830078125 154.912109375 72.73046875 250.248046875 72.73046875 351.40625 c 0
 72.73046875 438.083984375 70.5888671875 535.737304688 66.3388671875 617 c 0
 65.1845703125 639.9765625 53.5673828125 650 11 651 c 1
 13.4833984375 687 l 1
EndSplineSet
EndChar
StartChar: afii61248
Encoding: 8453 8453 1297
GlifName: afii61248
Width: 803
Flags: HW
LayerCount: 2
Fore
SplineSet
591 363 m 3
 705 363 771 267 771 181 c 3
 771 86 700 -8 591 -8 c 3
 494 -8 409 69 409 171 c 3
 409 297 518 363 591 363 c 3
573 323 m 3
 517.772727273 323 483 258.061538462 483 189 c 3
 483 110.006369427 538.873015873 30 611 30 c 3
 667.30952381 30 697 102.03649635 697 169 c 3
 697 262.426666667 630.93442623 323 573 323 c 3
283 589 m 1
 268 603 222 638 190 638 c 3
 138.37804878 638 107 584 107 506 c 3
 107 428 156.411764706 366 227 366 c 3
 257 366 279 381 304 402 c 1
 328 367 l 1
 294 344 253 320 204 320 c 3
 161 320 36 351 36 490 c 3
 36 599 121 686 221 686 c 3
 267 686 313 664 332 648 c 1
 324 610 328 612 283 589 c 1
EndSplineSet
Refer: 911 8260 N 1 0 0 1 160 81 2
EndChar
StartChar: prescription
Encoding: 8478 8478 1496
GlifName: prescription
Width: 763
UnlinkRmOvrlpSave: 1
Flags: HW
LayerCount: 2
Fore
SplineSet
355.107421875 -7.0517578125 m 1
 431.25390625 53.05859375 590.909179688 224.997070312 655.046875 312.344726562 c 1
 699.815429688 267.025390625 l 1
 643.965820312 218.20703125 511.286132812 77.5537109375 400 -53 c 1
 355.107421875 -7.0517578125 l 1
EndSplineSet
Refer: 43 82 N 1 0 0 1 0 0 2
EndChar
StartChar: proportional
Encoding: 8733 8733 1529
GlifName: proportional
Width: 606
UnlinkRmOvrlpSave: 1
Flags: HW
LayerCount: 2
Fore
SplineSet
528.635742188 65.2119140625 m 3
 362.631835938 65.2119140625 288.676757812 306.791015625 162.77734375 309.70703125 c 0
 114.3359375 310.829101562 77.0205078125 262.848632812 77.0205078125 207.325195312 c 3
 77.0205078125 151.364257812 116.732421875 105.936523438 168.526367188 105.936523438 c 3
 286.641601562 105.936523438 348.575195312 274.198242188 452 338.114257812 c 0
 483.383789062 357.508789062 509.989257812 362 553 362 c 1
 553 324 l 1
 523.430664062 323.421875 502.598632812 321.171875 480 308.412109375 c 0
 377.916992188 250.772460938 313.416015625 69.3759765625 172.668945312 69.3759765625 c 3
 93.013671875 69.3759765625 42.8671875 137.7734375 42.8671875 217.883789062 c 3
 42.8671875 301.290039062 97.205078125 365.767578125 180.959960938 365.767578125 c 3
 358.004313919 365.767578125 416.984680137 133 553 133 c 1
 553 66 l 1
 546 65 537.969726562 65.2119140625 528.635742188 65.2119140625 c 3
EndSplineSet
EndChar
StartChar: infinity
Encoding: 8734 8734 1313
GlifName: infinity
Width: 710
UnlinkRmOvrlpSave: 1
Flags: HW
LayerCount: 2
Fore
SplineSet
168.526367188 105.936523438 m 3
 314.334047796 105.936523438 374.52825744 362.348632812 532.84765625 362.348632812 c 3
 613.139538337 362.348632812 666.904296875 296.315429688 666.904296875 219.224609375 c 3
 666.904296875 134.610016724 611.80859375 65.2119140625 528.635742188 65.2119140625 c 3
 362.631835938 65.2119140625 288.676741487 306.791032744 162.77734375 309.70703125 c 0
 114.336303308 310.828990561 77.0205078125 262.848969733 77.0205078125 207.325195312 c 3
 77.0205078125 151.364257812 116.732258274 105.936523438 168.526367188 105.936523438 c 3
42.8671875 217.883789062 m 3
 42.8671875 301.290177841 97.205078125 365.767578125 180.959960938 365.767578125 c 3
 355.05859375 365.767578125 438.880859375 120.58203125 553.21484375 120.58203125 c 3
 603.597304998 120.58203125 634.760742188 169.966597849 634.760742188 225.346679688 c 3
 634.760742188 282.682617188 597.31680894 325.771484375 542.63671875 325.771484375 c 3
 399.563472849 325.771484375 340.002073757 69.3759765625 172.668945312 69.3759765625 c 3
 93.013671875 69.3759765625 42.8671875 137.7734375 42.8671875 217.883789062 c 3
EndSplineSet
EndChar
StartChar: logicaland
Encoding: 8743 8743 1322
GlifName: logicaland
Width: 522
Flags: HW
LayerCount: 2
Fore
SplineSet
1 4 m 1
 249.424804688 700 l 1
 273.103515625 700 l 1
 521 4 l 1
 472 -8 l 1
 261.559570312 591.079101562 l 0
 50 -8 l 1
 1 4 l 1
EndSplineSet
EndChar
StartChar: uni2303
Encoding: 8963 8963 1534
GlifName: uni2303
Width: 329
Flags: HW
LayerCount: 2
Fore
SplineSet
173 721 m 1
 219 635 245 544 309 464 c 1
 287 454 l 1
 250 492 216 541 164 541 c 3
 112 541 79 492 42 454 c 1
 20 464 l 1
 83.5328467153 544 110.335766423 635 156 721 c 1
 173 721 l 1
EndSplineSet
EndChar
StartChar: uni25D0
Encoding: 9680 9680 2500
GlifName: uni25D_0
Width: 569
UnlinkRmOvrlpSave: 1
Flags: HW
LayerCount: 2
Fore
SplineSet
314 533 m 1
 309 13 l 1
 181.721361424 12.0000039307 50 131.936596412 50 269 c 3
 50 418.964627817 172.269359143 530.929529167 314 533 c 1
EndSplineSet
Refer: 2495 9675 N 1 0 0 1 0 0 2
EndChar
StartChar: uni263D
Encoding: 9789 9789 2498
GlifName: uni263D_
Width: 553
Flags: HW
LayerCount: 2
Fore
SplineSet
345.014648438 285.19140625 m 0
 345.014648438 406.059121463 275.559798829 512.495117188 170.927734375 512.495117188 c 0
 78.9241861237 512.495117188 45.5495295854 445.747070312 32.01953125 445.747070312 c 0
 30.2160654068 445.747070312 27.509765625 446.64889464 27.509765625 449.35546875 c 0
 27.509765625 463.787171052 67.1979056189 559.3984375 237.67578125 559.3984375 c 0
 418.075819517 559.3984375 525.4140625 415.980290457 525.4140625 277.073242188 c 0
 525.4140625 166.127182821 454.156278617 56.9857779001 360.348632812 15.494140625 c 0
 321.562780056 -1.64425799589 279.167558234 -7.958984375 236.7734375 -7.958984375 c 0
 63.5894639568 -7.958984375 25.7060546875 98.4765625 25.7060546875 98.4765625 c 0
 25.7060546875 105.693608583 34.7263045798 107.497319521 41.0400390625 100.280273438 c 0
 50.9628557485 89.4568182347 81.6297765584 56.9853515625 142.965820312 56.9853515625 c 0
 234.969656698 56.9853515625 345.014648438 125.53734623 345.014648438 285.19140625 c 0
242.185546875 38.0439453125 m 0
 348.622422449 38.0439453125 457.764648438 140.870983488 457.764648438 286.09375 c 0
 457.764648438 357.35101428 430.704379624 414.177570455 372.975585938 464.689453125 c 0
 337.797627567 495.357222208 292.697963261 522.416824155 235.873046875 526.926757812 c 1
 293.599988066 498.063115523 343.209835138 450.256538087 365.759765625 388.919921875 c 0
 376.584638245 358.253131594 381.094726562 326.683470136 381.094726562 294.2109375 c 0
 381.094726562 93.9669626621 250.304443359 51.5733151755 200.694335938 43.455078125 c 1
 214.224150443 39.8472892691 228.65573237 38.0439453125 242.185546875 38.0439453125 c 0
EndSplineSet
EndChar
StartChar: uni2644
Encoding: 9796 9796 2503
GlifName: uni2644
Width: 575
UnlinkRmOvrlpSave: 1
Flags: HW
LayerCount: 2
Back
SplineSet
283.104492188 -180.55859375 m 0xeb
 258.352539062 -180.55859375 218.978515625 -169.060546875 218.978515625 -123.0625 c 0
 218.978515625 -116.983398438 219.61328125 -110.4296875 220.879882812 -103.400390625 c 0
 226.747070312 -66.4404296875 265.759765625 -21.4130859375 337.919921875 31.6796875 c 0
 410.080078125 84.7734375 446.159179688 150.626953125 446.159179688 229.240234375 c 0
 446.159179688 333.17578125 387.91796875 353.47265625 349.087890625 353.47265625 c 0
 311.146484375 353.47265625 273.396484375 331.127929688 235.840820312 286.440429688 c 1
 200.052734375 241.267578125 175.70703125 192.8671875 162.799804688 141.240234375 c 0
 159.280273438 130.092773438 154.586914062 124.959960938 148.719726562 125.840820312 c 0
 142.852539062 126.719726562 141.092773438 133.61328125 143.440429688 146.520507812 c 1xe7
 147.630859375 183.813476562 149.725585938 216.91796875 149.725585938 245.833007812 c 0
 149.725585938 257.399414062 149.390625 268.294921875 148.719726562 278.520507812 c 2
 141.6796875 456.280273438 l 1
 8.7998046875 456.280273438 l 1
 0 502.919921875 l 1
 26.986328125 497.052734375 50.453125 494.120117188 70.400390625 494.120117188 c 2
 141.6796875 494.120117188 l 1xeb
 141.6796875 518.172851562 137.8671875 540.759765625 130.240234375 561.879882812 c 1
 130.240234375 584.759765625 l 1
 212.959960938 584.759765625 l 1
 212.959960938 561.879882812 l 1xf3
 208.267578125 543.106445312 205.919921875 520.520507812 205.919921875 494.120117188 c 1
 306.240234375 494.120117188 l 2
 329.70703125 494.120117188 352.879882812 495.879882812 375.759765625 499.400390625 c 1
 372.240234375 456.280273438 l 1
 205.919921875 456.280273438 l 1
 205.919921875 286.440429688 l 1
 214.5390625 305.400390625 269.584960938 379.77734375 365.2734375 379.77734375 c 0
 466.015625 379.77734375 529.759765625 303.852539062 529.759765625 204.599609375 c 1
 527.413085938 118.947265625 481.947265625 54.5595703125 393.359375 11.4404296875 c 0
 304.7734375 -31.6796875 256.959960938 -71.4267578125 249.919921875 -107.799804688 c 0
 249.166015625 -112.577148438 248.788085938 -117.00390625 248.788085938 -121.081054688 c 0
 248.788085938 -149.03515625 267.461914062 -156.0234375 279.91015625 -156.0234375 c 0
 288.076171875 -156.0234375 296.559570312 -152.856445312 305.359375 -146.520507812 c 0
 336.9140625 -124.43359375 325.63671875 -96.0771484375 353.759765625 -77.8798828125 c 0
 357.54296875 -75.4326171875 361.537109375 -74.2080078125 365.7421875 -74.2080078125 c 0
 375.950195312 -74.2080078125 398.431640625 -85.6806640625 398.431640625 -102.888671875 c 0
 398.431640625 -132.236328125 322.978515625 -180.55859375 283.104492188 -180.55859375 c 0xeb
EndSplineSet
Fore
SplineSet
0 506 m 1
 24.3333333634 487.718987533 327.666666629 489.85732993 376 502 c 1
 372 456 l 1
 8 456 l 1
 0 506 l 1
131 583 m 1
 219 585 l 1
 207.531390763 540.332785075 205.53578414 462.874407253 205.53578414 395.29000837 c 3
 205.53578414 351.269133047 206.550095489 320.00572926 206 287 c 1
 232 333 287.615507708 381 370 381 c 3
 458.353658537 381 531 302.036585366 531 206 c 3
 531 47.9968354747 348.572544627 3.78246392399 320 -29 c 0
 289.497531085 -63.9967459963 254 -79.7317073171 254 -133 c 3
 254 -141.636363636 266.882556801 -152 276 -152 c 3
 307.214981741 -152 340.003417334 -102.742151196 355 -64 c 1
 385.916292411 -68.2995289232 402.182504915 -92.2940584075 408 -107 c 1
 390.544746428 -137.651568604 332.226732616 -181 279 -181 c 3
 246.448275862 -181 220 -156.793103448 220 -127 c 3
 220 47.6111111111 450 17.4983108106 450 243 c 3
 450 297 412.229166667 351 352 351 c 3
 237.681836083 351 180.406705853 203.616315301 158 123 c 1
 142 135 l 1
 142 135 152 193 152 231 c 3
 152 369 131 583 131 583 c 1
EndSplineSet
EndChar
StartChar: uni2645
Encoding: 9797 9797 2504
GlifName: uni2645
Width: 496
Flags: HW
LayerCount: 2
Fore
SplineSet
241.83203125 28.6357421875 m 0
 208.052734375 28.6357421875 186.87109375 -0.310546875 186.762695312 -30.26171875 c 0
 186.762695312 -63.267578125 207.33203125 -115.663085938 254.840820312 -115.663085938 c 0
 285.575195312 -115.663085938 308.049804688 -83.115234375 308.049804688 -52.5673828125 c 0
 308.049804688 -30.513671875 295.360351562 28.6357421875 241.83203125 28.6357421875 c 0
28.1591796875 561.440429688 m 1
 95.66015625 498.759765625 138.159179688 400.741210938 138.159179688 330.879882812 c 1
 168.666992188 326.7734375 196.532226562 324.719726562 221.759765625 324.719726562 c 1
 219.120117188 498.080078125 l 1
 277.200195312 498.080078125 l 1
 272.799804688 324.719726562 l 1
 299.786132812 324.719726562 326.479492188 326.7734375 352.879882812 330.879882812 c 1
 352.879882812 397.756835938 393.635742188 497.466796875 463.759765625 561.440429688 c 1
 477.840820312 553.520507812 l 1
 429.58203125 470.032226562 405.454101562 386.244140625 405.454101562 302.158203125 c 0
 405.454101562 219.62109375 428.702148438 136.793945312 475.200195312 53.6796875 c 1
 463.759765625 47.5205078125 l 1
 374.8359375 122.102539062 352.879882812 226.962890625 352.879882812 275.440429688 c 1
 327.067382812 280.1328125 300.373046875 282.479492188 272.799804688 282.479492188 c 1
 266.740234375 66.919921875 l 1
 311.967773438 58.9970703125 357.280273438 18.0400390625 357.280273438 -42.240234375 c 0
 357.280273438 -104.458007812 307.4921875 -153.120117188 246.400390625 -153.120117188 c 0
 182.189453125 -153.120117188 137.280273438 -101.202148438 137.280273438 -42.240234375 c 0
 137.280273438 17.939453125 182.034179688 59.2216796875 226.952148438 67.009765625 c 1
 221.759765625 282.479492188 l 1
 197.70703125 282.479492188 169.840820312 280.1328125 138.159179688 275.440429688 c 1
 138.159179688 226.961914062 116.552734375 122.87109375 28.1591796875 47.5205078125 c 1
 16.720703125 53.6796875 l 1
 62.919921875 137.30859375 86.0205078125 220.645507812 86.0205078125 303.69140625 c 0
 86.0205078125 387.263671875 62.626953125 470.540039062 15.8408203125 553.520507812 c 1
 28.1591796875 561.440429688 l 1
EndSplineSet
EndChar
StartChar: uni2649
Encoding: 9801 9801 2563
GlifName: uni2649
Width: 557
Flags: HW
LayerCount: 2
Fore
SplineSet
250.977539062 -46.73046875 m 1
 195.047851562 -36.9453125 138.294921875 -15.4833984375 100.46484375 28.7314453125 c 1
 66.470703125 61.6533203125 40.2470703125 103.131835938 31.373046875 150.063476562 c 0
 28.376953125 163.099609375 26.982421875 176.2578125 26.982421875 189.3828125 c 0
 26.982421875 241.536132812 49.00390625 293.157226562 80.1240234375 334.444335938 c 0
 105.48828125 363.751953125 138.658203125 385.236328125 172.442382812 403.631835938 c 1
 135.317382812 419.102539062 98.623046875 441.471679688 79.6865234375 478.444335938 c 0
 70.2607421875 494.1953125 55.7001953125 520.217773438 55.7001953125 541.3984375 c 0
 55.7001953125 551.549804688 59.0458984375 560.58984375 67.9033203125 566.853515625 c 1
 78.728515625 561.185546875 89.65625 558.514648438 100.42578125 558.514648438 c 0
 106.005859375 558.514648438 111.543945312 559.23046875 117.002929688 560.620117188 c 1
 134.801757812 539.815429688 126.375976562 506.181640625 147.448242188 485.620117188 c 1
 170.502929688 455.426757812 205.548828125 433.702148438 242.662109375 426.080078125 c 1
 257.139648438 424.548828125 272.301757812 422.930664062 287.3203125 422.930664062 c 0
 308.965820312 422.930664062 330.3203125 426.291992188 348.923828125 438.114257812 c 0
 385.596679688 459.33203125 415.413085938 497.952148438 415.333984375 541.719726562 c 0
 415.692382812 557.8828125 423.254882812 561.494140625 433.348632812 561.494140625 c 0
 441.506835938 561.494140625 451.318359375 559.134765625 460.315429688 559.134765625 c 0
 465.092773438 559.134765625 469.640625 559.799804688 473.58984375 561.8359375 c 1
 483.369140625 559.263671875 486.809570312 552.3125 486.809570312 543.595703125 c 0
 486.809570312 527.408203125 474.948242188 505.135742188 469.791015625 493.500976562 c 0
 450.287109375 460.915039062 422.786132812 433.353515625 391.84375 411.641601562 c 1
 391.157226562 409.990234375 390.83984375 408.467773438 390.83984375 407.046875 c 0
 390.83984375 391.84375 427.27734375 388.813476562 436.114257812 374.043945312 c 1
 489.999023438 334.008789062 528.053710938 270.518554688 528.301757812 202.329101562 c 1
 529.09765625 193.456054688 529.526367188 184.4765625 529.526367188 175.4765625 c 0
 529.526367188 130.784179688 518.935546875 85.6025390625 490.061523438 50.46875 c 1
 461.174804688 10.55078125 420.119140625 -21.7451171875 371.3359375 -32.6044921875 c 0
 340.24609375 -41.8583984375 307.83984375 -47.9111328125 275.34765625 -47.9111328125 c 0
 267.224609375 -47.9111328125 259.09375 -47.533203125 250.977539062 -46.73046875 c 1
282.765625 -4.705078125 m 0
 347.848632812 5.7958984375 418.40625 40.9765625 438.97265625 108.334960938 c 0
 448.54296875 136.208984375 453.629882812 165.708984375 453.629882812 195.135742188 c 0
 453.629882812 226.907226562 447.702148438 258.590820312 435.088867188 288.057617188 c 0
 422.27734375 323.671875 395.140625 353.321289062 359.475585938 366.875 c 0
 336.848632812 377.495117188 311.498046875 383.202148438 286.336914062 383.202148438 c 0
 251.370117188 383.202148438 216.770507812 372.181640625 190.362304688 348.015625 c 0
 148.728515625 313.5234375 111.9765625 265.485351562 111.298828125 209.163085938 c 0
 111.206054688 205.90234375 111.159179688 202.650390625 111.159179688 199.411132812 c 0
 111.159179688 140.150390625 126.883789062 84.501953125 168.959960938 38.720703125 c 0
 193.520507812 13.3994140625 223.39453125 -3.95703125 256.959960938 -7.919921875 c 0
 257.971679688 -7.953125 258.984375 -7.970703125 259.997070312 -7.970703125 c 0
 267.694335938 -7.970703125 275.404296875 -6.9775390625 282.765625 -4.705078125 c 0
EndSplineSet
EndChar
StartChar: uni2650
Encoding: 9808 9808 2570
GlifName: uni2650
Width: 629
Flags: HW
LayerCount: 2
Fore
SplineSet
455.669921875 -110.461914062 m 1
 408.262695312 -51.0966796875 356.666015625 5.0341796875 305.837890625 61.5595703125 c 0
 293.221679688 73.173828125 278.672851562 90.9189453125 264.704101562 97.076171875 c 1
 229.291015625 64.82421875 202.557617188 24.7744140625 170.797851562 -10.80859375 c 0
 147.13671875 -37.88671875 128.177734375 -69.140625 103.053710938 -94.7431640625 c 1
 86.7001953125 -83.8857421875 62.0126953125 -66.6875 55.96875 -48.9609375 c 1
 82.884765625 -14.8349609375 117.259765625 12.95703125 145.659179688 45.9912109375 c 0
 171.361328125 75.974609375 202.43359375 101.279296875 226.573242188 132.450195312 c 1
 195.091796875 172.876953125 152.764648438 203.53125 115.1796875 238.083007812 c 0
 85.63671875 264.547851562 48.5537109375 281.595703125 20.544921875 309.630859375 c 1
 22.435546875 331.103515625 53.9638671875 344.828125 64.298828125 365.254882812 c 1
 92.0791015625 362.639648438 101.192382812 324.240234375 120.538085938 306.14453125 c 1
 160.985351562 257.802734375 205.809570312 213.072265625 251.23828125 169.416015625 c 1
 276.263671875 179.45703125 297.484375 209.86328125 320.3203125 228.799804688 c 1
 359.705078125 268.875 405.8515625 303.006835938 439.108398438 348.672851562 c 1
 421.256835938 365.50390625 386.2890625 360.390625 360.9609375 363.615234375 c 0
 342.720703125 364.234375 324.485351562 364.807617188 306.24609375 365.40625 c 1
 303.529296875 370.196289062 302.345703125 374.1484375 302.345703125 377.4140625 c 0
 302.345703125 392.678710938 328.20703125 392.897460938 343.936523438 393.32421875 c 0
 433.1015625 408.200195312 525.80078125 430.619140625 597.2734375 489.123046875 c 1
 601.731445312 490.811523438 605.159179688 491.567382812 607.719726562 491.567382812 c 0
 612.293945312 491.567382812 614.107421875 489.154296875 614.107421875 485.333984375 c 0
 614.107421875 473.16796875 595.73046875 446.724609375 589.59765625 438.412109375 c 0
 568.276367188 407.09375 553.186523438 372.162109375 539.341796875 337.080078125 c 1
 527.063476562 292.149414062 515.198242188 246.338867188 511.112304688 199.924804688 c 0
 510.262695312 187.751953125 504.625 182.909179688 498.711914062 182.909179688 c 0
 491.57421875 182.909179688 484.036132812 189.965820312 484.036132812 199.708007812 c 0
 484.036132812 203.594726562 485.236328125 207.911132812 488.141601562 212.375 c 1
 489.809570312 228.952148438 492.719726562 246.837890625 492.719726562 264.24609375 c 0
 492.719726562 283.422851562 489.1875 302.017578125 476.569335938 317.639648438 c 1
 451.90234375 308.670898438 434.899414062 274.915039062 413.518554688 255.999023438 c 1
 374.143554688 212.627929688 333.088867188 170.833984375 292.115234375 128.98046875 c 1
 320.115234375 102.447265625 350.815429688 79.25390625 380.165039062 54.2978515625 c 1
 421.025390625 26.9453125 453.631835938 -11.4296875 496.7421875 -35.8212890625 c 1
 504.622070312 -41.0146484375 507.6953125 -45.2158203125 507.6953125 -48.9072265625 c 0
 507.6953125 -61.8935546875 469.668945312 -68.5673828125 469.059570312 -89.88671875 c 0
 466.461914062 -95.58984375 466.869140625 -110.989257812 458.555664062 -110.989257812 c 0
 457.692382812 -110.989257812 456.735351562 -110.82421875 455.669921875 -110.461914062 c 1
EndSplineSet
EndChar
StartChar: diamond
Encoding: 9830 9830 1501
GlifName: diamond
Width: 619
Flags: HW
LayerCount: 2
Fore
SplineSet
303.391601562 678.125 m 0
 315.719726562 678.125 381.647460938 535.466796875 564.49609375 352.197265625 c 0
 566.719726562 349.96875 569.115234375 347.401367188 569.115234375 343.270507812 c 0
 569.115234375 328.759765625 440.458984375 228.978515625 312.416992188 -2.9228515625 c 0
 310.322265625 -6.7138671875 306.982421875 -10.6796875 303.08203125 -10.6796875 c 0
 300.265625 -10.6796875 297.158203125 -8.61328125 294.016601562 -2.9228515625 c 0
 164.142578125 232.295898438 37.400390625 327.814453125 37.400390625 342.240234375 c 0
 37.400390625 358.642578125 154.798828125 446.1640625 294.016601562 670.517578125 c 0
 296.497070312 674.514648438 299.004882812 678.125 303.391601562 678.125 c 0
EndSplineSet
EndChar
StartChar: uni26A2
Encoding: 9890 9890 1538
GlifName: uni26A_2
Width: 690
UnlinkRmOvrlpSave: 1
Flags: HMW
LayerCount: 2
Fore
SplineSet
251.443359375 -38.97265625 m 3
 184.151483133 -38.97265625 118.726092129 -46.7824196171 100 -61.888671875 c 1
 81 -62 l 1
 81 19 l 1
 101 19 l 1
 115.416912499 5.7395453574 187.624327267 -1 251.87890625 -1 c 3
 312.133953087 -1 377.624327267 -1 441.87890625 -1 c 3
 502.133953087 -1 563.360476934 5.5961022541 590 19 c 1
 611 19 l 1
 611 -62 l 1
 590 -62.123046875 l 1
 563.201260711 -46.5314045433 501.526996602 -38.97265625 441.443359375 -38.97265625 c 3
 374.151483133 -38.97265625 311.526996602 -38.97265625 251.443359375 -38.97265625 c 3
EndSplineSet
Refer: 1531 9906 N 1 0 0 1 0 0 2
Refer: 1531 9906 N 1 0 0 1 190 0 2
EndChar
StartChar: uni26B3
Encoding: 9907 9907 2618
Width: 500
UnlinkRmOvrlpSave: 1
Flags: HW
LayerCount: 2
Back
SplineSet
19 364 m 0xd8
 19.667 445.333 55.667 510.667 127 560 c 1
 167.667 580 209.333 590 252 590 c 0
 296.667 590 337 580 373 560 c 1
 445 512.667 481 447.333 481 364 c 0
 481 300 460.167 246.5 418.5 203.5 c 0
 390.635 174.744 361.802 155.007 332 144.289 c 1
 317.238 138.98 310.123 134.765 300 124 c 24
 290.298 113.683 283.633 107.624 282.829 92.0025 c 1
 282.276 81.276 282 69.9418 282 58 c 1
 342 59.333 388.667 71 422 93 c 1
 444 93 l 1
 444 -35 l 1
 422 -35 l 1
 388 -10.333 341.333 2.66699 282 4 c 1xd8
 283.333 -60.667 296 -109 320 -141 c 1
 320 -163 l 1
 188 -163 l 1
 188 -141 l 1xe8
 208.667 -107.667 219.667 -59.333 221 4 c 1
 161 4 116.667 -9 88 -35 c 1
 66 -35 l 1
 66 93 l 1
 88 93 l 1
 115.333 71.667 159.667 60 221 58 c 1
 221 66.3333 220.923 74.3323 220.769 81.9969 c 1
 220.367 101.925 225.885 113.082 230 128 c 0
 238 157 270 188 294 198 c 0
 305.405 202.752 312.197 205.216 326 213.174 c 1
 343.558 223.297 361.003 237.663 375 252.5 c 0
 407.521 286.972 423.333 329.333 422 380 c 1
 422 418 406.833 452.167 376.5 482.5 c 0
 346.167 512.833 307.333 528 260 528 c 0
 206.667 528 165.064 509.654 132 476 c 0
 76 419 111 372 87 347 c 0
 54.6816 313.335 19.5 336 19 364 c 0xd8
EndSplineSet
Refer: 1531 9906 N 1 0 0 1 0 0 2
Refer: 1531 9906 N 1 0 0 1 0 0 2
Fore
SplineSet
81 21 m 1
 101 21 l 1
 115.416912499 7.7395453574 187.624327267 1 251.87890625 1 c 3
 312.133953087 1 373.360476934 7.5961022541 400 21 c 1
 421 21 l 1
 421 -60 l 1
 400 -60.123046875 l 1
 373.201260711 -44.5314045433 311.526996602 -36.97265625 251.443359375 -36.97265625 c 3
 184.151483133 -36.97265625 118.726092129 -45.4640183291 100 -61.888671875 c 1
 81 -62 l 1
 81 21 l 1
301.084405814 129.999999126 m 0
 364.886351034 148.273271022 404.934570312 212.23942317 404.934570312 294.629882812 c 0
 404.934570312 408.692382812 332.6484375 494.240234375 233.625 494.240234375 c 0
 168.183949611 494.240234375 114.349868253 439.512062227 99.8837890625 366 c 0
 95 360 73.0237960416 349 52 349 c 0
 39.9584054212 349 32.4444446138 358.669371719 29.9999991426 364.629510927 c 0
 55.0020080972 471.354074236 152.053950645 536.190429688 259.405273438 536.190429688 c 0
 383.13671875 536.190429688 476.215820312 435.166992188 476.215820312 311.459960938 c 0
 476.215820312 207.608805051 409.801851006 116.478724538 312.500581151 88.0000010823 c 0
 269.442991583 75.3976456576 274.298311612 67.6397578704 274.298311612 17 c 3
 274.298311612 -104.944756329 277.691998055 -142.471056855 293 -180 c 1
 293 -200 l 1
 207 -200 l 1
 207 -180 l 1
 224.231181466 -139.097297086 228.20676119 -115.625529237 228.20676119 17 c 3
 228.20676119 103.919010507 227.876409748 109.032776066 301.084405814 129.999999126 c 0
EndSplineSet
EndChar
StartChar: uni26B4
Encoding: 9908 9908 3032
Width: 619
UnlinkRmOvrlpSave: 1
Flags: HW
LayerCount: 2
Fore
SplineSet
131 21 m 1
 151 21 l 1
 165.416992188 7.7392578125 237.624023438 1 301.87890625 1 c 3
 362.133789062 1 423.360351562 7.595703125 450 21 c 1
 471 21 l 1
 471 -60 l 1
 450 -60.123046875 l 1
 423.201171875 -44.53125 361.52734375 -36.97265625 301.443359375 -36.97265625 c 3
 234.151367188 -36.97265625 168.7265625 -45.4638671875 150 -61.888671875 c 1
 131 -62 l 1
 131 21 l 1
325.896484375 108.344726562 m 1
 325.161132812 42 l 0
 325.817193869 -100.039295095 327.692330365 -140.019647548 344 -180 c 1
 344 -200 l 1
 258 -200 l 1
 258 -180 l 1
 276.261817495 -136.650270771 280.020533503 -112.876738528 279.516601562 42 c 0
 279.103515625 108.344726562 l 1
 325.896484375 108.344726562 l 1
303.276367188 612.125 m 1
 314.66015625 612.125 375.538085938 494.853515625 544.380859375 344.197265625 c 1
 546.604492188 341.96875 549 339.401367188 549 335.270507812 c 1
 549 323.274414062 430.368164062 240.787109375 312.301757812 49.0771484375 c 1
 310.20703125 45.2861328125 306.8671875 41.3203125 302.966796875 41.3203125 c 1
 300.150390625 41.3203125 297.04296875 43.38671875 293.901367188 49.0771484375 c 1
 174.149414062 243.407226562 57.28515625 322.322265625 57.28515625 334.240234375 c 1
 57.28515625 347.744140625 165.534179688 419.802734375 293.901367188 604.517578125 c 1
 296.381835938 608.514648438 298.889648438 612.125 303.276367188 612.125 c 1
462.517578125 334.833007812 m 1
 371.911132812 423.416992188 332.166015625 496.720703125 303.256835938 538.275390625 c 1
 225.228515625 425.701171875 172.31640625 363.866210938 143.012695312 334.665039062 c 1
 174.375976562 303.149414062 223.393554688 246.0859375 302.932617188 119.939453125 c 1
 376.224609375 236.7421875 431.631835938 303.6953125 462.517578125 334.833007812 c 1
EndSplineSet
EndChar
StartChar: uni26B8
Encoding: 9912 9912 2621
Width: 568
UnlinkRmOvrlpSave: 1
Flags: HW
LayerCount: 2
Back
SplineSet
150.88671875 581.615234375 m 1
 65.7811989871 532.506293383 19.6083984375 458.408288115 19.6083984375 361.86328125 c 0x78
 19.6083984375 190.917460739 162.764392503 75.1865760244 344.720703125 86.5595703125 c 0
 351.600260417 86.9895700499 355.040039062 93.224566242 355.040039062 99.3515625 c 0
 355.040039062 105.479290573 351.56248012 110.779011775 344.720703125 111.499023438 c 0
 306.939515956 115.475021984 180.712890625 152.313008513 180.712890625 367.877929688 c 0
 180.712890625 540.006501585 279.488823852 595.487658446 344.720703125 607.719726562 c 0
 351.802466163 609.047675547 355.694335938 614.703458272 355.694335938 619.880859375 c 0
 355.694335938 624.762694497 352.232451775 629.219726562 344.720703125 629.219726562 c 0
 273.979353883 629.219726562 209.366565186 613.34824617 150.88671875 581.615234375 c 1
EndSplineSet
Fore
SplineSet
6 21 m 1
 26 21 l 1
 40.4169921875 7.7392578125 112.624023438 1 176.87890625 1 c 3
 237.133789062 1 298.360351562 7.595703125 325 21 c 1
 346 21 l 1
 346 -60 l 1
 325 -60.123046875 l 1
 298.201171875 -44.53125 236.52734375 -36.97265625 176.443359375 -36.97265625 c 3
 109.151367188 -36.97265625 43.7265625 -45.4638671875 25 -61.888671875 c 1
 6 -62 l 1
 6 21 l 1
200.896484375 185.344726562 m 1
 200.668771647 138.845333265 199.972394279 82.8624897755 200.161132812 42 c 0
 200.817193869 -100.039295095 202.692330365 -140.019647548 219 -180 c 1
 219 -200 l 1
 133 -200 l 1
 133 -180 l 1
 151.261817495 -136.650270771 155.020533502 -112.876738528 154.516601562 42 c 0
 154.384378799 82.6368972152 154.249637567 138.635355638 154.103515625 185.344726562 c 1
 200.896484375 185.344726562 l 1
27.6083984375 353.916015625 m 0
 27.6083984375 524.861836136 170.764392503 640.592720851 352.720703125 629.219726562 c 0
 359.600260417 628.789726825 363.040039062 622.554730633 363.040039062 616.427734375 c 0
 363.040039062 610.300006302 359.56248012 605.0002851 352.720703125 604.280273438 c 0
 314.939515956 600.304274891 188.712890625 563.466288362 188.712890625 347.901367188 c 0
 188.712890625 175.77279529 287.488823852 120.291638429 352.720703125 108.059570312 c 0
 359.802466163 106.731621328 363.694335938 101.075838603 363.694335938 95.8984375 c 0
 363.694335938 91.0166023781 360.232451775 86.5595703125 352.720703125 86.5595703125 c 0
 121.740966946 86.5595703125 27.6083984375 221.860989839 27.6083984375 353.916015625 c 0
EndSplineSet
EndChar
StartChar: uni26BC
Encoding: 9916 9916 2625
Width: 571
UnlinkRmOvrlpSave: 1
Flags: HW
LayerCount: 2
Fore
SplineSet
478.648 -9.58789 m 1
 478.464 -51.0635 l 2
 478.458 -52.4824 478.039 -53.8232 478.039 -55.6641 c 0
 478.039 -63.5732 490.279 -58.3877 317.573 -58.3877 c 0
 213.561 -58.3877 129.766 -60.6699 123.239 -60.6699 c 0
 117.995 -60.6699 116.685 -57.4912 116.685 -55.3721 c 0
 116.685 -53.4229 117.661 -51.7988 118.417 -50.499 c 2
 200.82 96.2441 l 1
 295.134 274.812 l 2
 295.738 276.035 296.773 278.111 299.234 278.111 c 0
 302.191 278.111 305.171 275.719 306.203 275.043 c 2
 346 249 l 1
 318.899 205.117 242.335 80.6943 197 -12 c 1
 237.931 -14.3516 269.516 -13.1406 310.514 -13.1592 c 2
 311.543 -13.1602 l 2
 352.875 -13.1602 437.384 -11.958 478.648 -9.58789 c 1
58.2002 470.185 m 2
 58.2002 483.451 67.8838 493.135 81.1504 493.135 c 2
 456.85 493.135 l 2
 470.116 493.135 479.8 483.451 479.8 470.185 c 2
 479.8 99.585 l 2
 479.8 86.3184 470.116 76.6348 456.85 76.6348 c 2
 81.1504 76.6348 l 2
 67.8838 76.6348 58.2002 86.3184 58.2002 99.585 c 2
 58.2002 470.185 l 2
126.029 124.405 m 1
 231.657 118.461 312.291 119.32 413.67 124.405 c 1
 419.252 229.391 418.768 337.379 413.67 442.364 c 1
 308.396 452.358 227.103 454.05 126.029 442.364 c 1
 120.701 337.405 120.701 229.419 126.029 124.405 c 1
EndSplineSet
EndChar
StartChar: uni26E2
Encoding: 9954 9954 2617
Width: 466
Flags: HW
LayerCount: 2
Fore
SplineSet
232 -9 m 0
 106 -9 22 81.716 22 198 c 0
 22 256.667 41 305.667 79 345 c 0
 117 384.333 157 405.333 199 408 c 1
 203.667 438 207.333 500.333 210 595 c 1
 197.333 595 152.333 551 75 463 c 1
 62 472 l 1
 109.333 518.667 162 615 220 761 c 1
 236 761 l 1
 300 616.333 354.667 520.667 400 474 c 1
 387 466 l 1
 306.333 551.333 260.333 594.333 249 595 c 1
 253 498.333 257.333 436 262 408 c 1
 304 406.667 344.833 386 384.5 346 c 0
 424.167 306 444 256.667 444 198 c 0
 443.333 123.333 410.333 63.667 345 19 c 1
 307.667 0.333008 270 -9 232 -9 c 0
78.9140625 209 m 0
 78.9140625 137.417 131.0260625 52 238.9140625 52 c 0
 332.7700625 52 386.9140625 125.419 386.9140625 188 c 0
 386.971320858 189.977842716 387 191.942686466 387 193.89453125 c 0
 387 278.721782745 327.318023447 352 227.9140625 352 c 0
 139.4080625 352 78.9140625 294.8 78.9140625 209 c 0
EndSplineSet
Refer: 49 775 N 1 0 0 1 432 -356 2
EndChar
StartChar: uni26E4
Encoding: 9956 9956 2613
Width: 873
Flags: HW
LayerCount: 2
Fore
SplineSet
488 468 m 1
 433 646 l 1
 378 468 l 1
 488 468 l 1
135 431 m 1
 290 320 l 1
 324 431 l 1
 135 431 l 1
734 431 m 1
 543 431 l 1
 580 318 l 1
 734 431 l 1
546 297 m 1
 501 431 l 1
 368 431 l 1
 324 296 l 1
 432 208 l 1
 546 297 l 1
400 185 m 1
 312 253 l 1
 253 66 l 1
 400 185 l 1
468 182 m 1
 623 62 l 1
 559 254 l 1
 468 182 l 1
688 -32 m 1
 433 159 l 1
 182 -35 l 1
 279 276 l 1
 28 468 l 1
 339 468 l 1
 435 777 l 1
 531 467 l 1
 845 467 l 1
 590 276 l 1
 688 -32 l 1
EndSplineSet
EndChar
StartChar: uni2740
Encoding: 10048 10048 2629
Width: 857
Flags: HW
LayerCount: 2
Fore
SplineSet
603.841796875 544.025390625 m 0
 622.206054688 529.485351562 636.2890625 538.435546875 666.776367188 516.28515625 c 0
 678.3125 507.904296875 697.776367188 475.778320312 685.233398438 458.513671875 c 0
 683.522460938 456.159179688 678.200195312 454.032226562 674.080078125 457.025390625 c 0
 666.6640625 462.4140625 666.08984375 477.21875 655.377929688 485.000976562 c 0
 623.2421875 508.348632812 602.904296875 490.751953125 578.184570312 508.711914062 c 0
 553.451171875 526.681640625 563.916015625 551.452148438 531.780273438 574.799804688 c 0
 521.068359375 582.58203125 506.811523438 578.552734375 499.395507812 583.94140625 c 0
 495.275390625 586.934570312 495.653320312 592.654296875 497.364257812 595.008789062 c 0
 509.907226562 612.2734375 546.475585938 603.689453125 558.01171875 595.307617188 c 0
 588.499023438 573.157226562 585.4609375 558.579101562 603.841796875 544.025390625 c 0
712.518554688 209.5546875 m 0
 704.365234375 187.595703125 717.228515625 176.967773438 705.583984375 141.127929688 c 0
 701.177734375 127.56640625 676.638671875 99.1279296875 656.342773438 105.72265625 c 0
 653.575195312 106.62109375 649.907226562 111.026367188 651.481445312 115.870117188 c 0
 654.313476562 124.587890625 668.215820312 129.708984375 672.307617188 142.30078125 c 0
 684.58203125 180.078125 661.5625 193.984375 671.00390625 223.04296875 c 0
 680.451171875 252.119140625 707.243164062 249.821289062 719.517578125 287.598632812 c 0
 723.609375 300.19140625 715.372070312 312.504882812 718.205078125 321.223632812 c 0
 719.778320312 326.067382812 725.334960938 327.474609375 728.102539062 326.575195312 c 0
 748.3984375 319.981445312 751.534179688 282.549804688 747.127929688 268.989257812 c 0
 735.483398438 233.1484375 720.678710938 231.533203125 712.518554688 209.5546875 c 0
252.158203125 544.025390625 m 0
 271.661132812 556.998046875 267.500976562 573.157226562 297.98828125 595.307617188 c 0
 309.524414062 603.689453125 346.092773438 612.2734375 358.635742188 595.008789062 c 0
 360.346679688 592.654296875 360.724609375 586.934570312 356.604492188 583.94140625 c 0
 349.188476562 578.552734375 334.931640625 582.58203125 324.219726562 574.799804688 c 0
 292.083984375 551.452148438 302.534179688 526.670898438 277.815429688 508.711914062 c 0
 253.08203125 490.7421875 232.7578125 508.348632812 200.622070312 485.000976562 c 0
 189.91015625 477.21875 189.3359375 462.4140625 181.919921875 457.025390625 c 0
 177.799804688 454.032226562 172.477539062 456.159179688 170.766601562 458.513671875 c 0
 158.223632812 475.778320312 177.6875 507.904296875 189.223632812 516.28515625 c 0
 219.7109375 538.435546875 232.63671875 531.041015625 252.158203125 544.025390625 c 0
143.481445312 209.5546875 m 0
 137.170898438 232.111328125 120.516601562 233.1484375 108.872070312 268.989257812 c 0
 104.465820312 282.549804688 107.6015625 319.981445312 127.897460938 326.575195312 c 0
 130.665039062 327.474609375 136.221679688 326.067382812 137.794921875 321.223632812 c 0
 140.627929688 312.504882812 132.390625 300.19140625 136.482421875 287.598632812 c 0
 148.756835938 249.821289062 175.553710938 252.102539062 184.99609375 223.04296875 c 0
 194.443359375 193.966796875 171.41796875 180.078125 183.692382812 142.30078125 c 0
 187.784179688 129.708984375 201.686523438 124.587890625 204.518554688 115.870117188 c 0
 206.092773438 111.026367188 202.424804688 106.62109375 199.657226562 105.72265625 c 0
 179.361328125 99.1279296875 154.822265625 127.56640625 150.416015625 141.127929688 c 0
 138.771484375 176.967773438 149.797851562 186.9765625 143.481445312 209.5546875 c 0
666.716796875 -26.4521484375 m 1
 653.240234375 -41.23828125 621.030273438 -10.6357421875 608.989257812 -0.2373046875 c 1
 592.5703125 -81.298828125 451.497070312 -75 428 -76 c 1
 404.502929688 -76 263.4296875 -81.298828125 247.010742188 -0.2373046875 c 1
 234.969726562 -10.6357421875 202.759765625 -41.23828125 189.283203125 -26.4521484375 c 1
 170.212890625 -18.591796875 190.315429688 21.8076171875 196.484375 36.47265625 c 1
 114.31640625 27.0380859375 76.712890625 163.153320312 68.5009765625 185.19140625 c 1
 61.2392578125 207.5390625 12.6064453125 340.069335938 84.626953125 380.734375 c 1
 71.015625 388.97265625 31.0068359375 409.840820312 41.814453125 427.409179688 c 1
 44.4384765625 448.1015625 88.072265625 441.466796875 103.92578125 440.131835938 c 1
 69.5625 515.36328125 187.395507812 593.188476562 205.817382812 607.80859375 c 1
 224.827148438 621.620117188 335.842773438 708.827148438 396.772460938 652.897460938 c 1
 400.40234375 668.387695312 407.884765625 712.887695312 427.93359375 708.038085938 c 1
 448.115234375 711.887695312 455.59765625 668.387695312 459.227539062 652.897460938 c 1
 520.157226562 708.827148438 630.5859375 620.810546875 650.182617188 607.80859375 c 1
 669.192382812 593.997070312 786.4375 515.36328125 752.07421875 440.131835938 c 1
 767.927734375 441.466796875 811.561523438 448.1015625 814.185546875 427.409179688 c 1
 824.993164062 409.840820312 784.984375 388.97265625 771.373046875 380.734375 c 1
 843.393554688 340.069335938 793.809570312 207.84765625 787.499023438 185.19140625 c 1
 780.23828125 162.844726562 741.68359375 27.0380859375 659.515625 36.47265625 c 1
 665.684570312 21.8076171875 685.787109375 -18.591796875 666.716796875 -26.4521484375 c 1
316.8203125 454.536132812 m 0
 330.58984375 463.342773438 347.8125 438.133789062 367.434570312 426.977539062 c 1
 372.11328125 444.827148438 397.356445312 446.795898438 411.564453125 447.743164062 c 1
 412.478515625 534.95703125 412.479492188 587.659179688 386.84765625 623.15625 c 0
 345.374023438 680.592773438 241.579101562 597.702148438 222.745117188 584.018554688 c 0
 203.895507812 570.323242188 92.9736328125 497.212890625 134.8125 440.041992188 c 0
 160.669921875 404.708984375 210.775390625 388.411132812 294.002929688 362.329101562 c 1
 299.293945312 375.548828125 308.967773438 398.948242188 327.387695312 397.8828125 c 1
 322.841796875 419.993164062 303.026367188 445.713867188 316.8203125 454.536132812 c 0
539.1796875 454.536132812 m 0
 551.810546875 444.161132812 533.158203125 419.993164062 528.612304688 397.8828125 c 1
 547.032226562 398.948242188 556.706054688 375.548828125 561.997070312 362.329101562 c 1
 645.224609375 388.411132812 695.348632812 404.6953125 721.1875 440.041992188 c 0
 762.997070312 497.235351562 652.088867188 570.334960938 633.254882812 584.018554688 c 0
 614.405273438 597.713867188 510.596679688 680.615234375 469.15234375 623.15625 c 0
 443.5390625 587.645507812 443.521484375 534.95703125 444.435546875 447.743164062 c 1
 458.643554688 446.795898438 483.88671875 444.827148438 488.565429688 426.977539062 c 1
 508.1875 438.133789062 526.52734375 464.928710938 539.1796875 454.536132812 c 0
607.892578125 243.05859375 m 0
 601.9296875 227.840820312 573.1796875 238.112304688 550.747070312 235.602539062 c 1
 557.453125 218.413085938 538.186523438 201.982421875 527.25 192.865234375 c 1
 577.774414062 121.770507812 608.750976562 79.1318359375 650.3515625 65.48046875 c 0
 717.666015625 43.3916015625 752.915039062 171.4609375 760.108398438 193.600585938 c 0
 767.30859375 215.760742188 814.07421875 340.106445312 746.620117188 361.766601562 c 0
 704.93359375 375.15234375 654.818359375 358.88671875 572.154296875 331.067382812 c 1
 575.643554688 317.262695312 581.572265625 292.645507812 566.04296875 282.680664062 c 1
 582.716796875 267.46484375 613.866210938 258.3046875 607.892578125 243.05859375 c 0
248.107421875 243.05859375 m 0
 243.986328125 258.875976562 273.283203125 267.46484375 289.95703125 282.680664062 c 1
 274.427734375 292.645507812 280.356445312 317.262695312 283.845703125 331.067382812 c 1
 201.181640625 358.88671875 151.059570312 375.174804688 109.379882812 361.766601562 c 0
 41.9375 340.0703125 88.6982421875 215.741210938 95.8916015625 193.600585938 c 0
 103.090820312 171.44140625 138.345703125 43.35546875 205.6484375 65.48046875 c 0
 247.2421875 79.154296875 278.225585938 121.770507812 328.75 192.865234375 c 1
 317.813476562 201.982421875 298.546875 218.413085938 305.252929688 235.602539062 c 1
 282.8203125 238.112304688 252.235351562 227.21484375 248.107421875 243.05859375 c 0
428 112.359375 m 0
 411.68359375 113.328125 412.568359375 143.844726562 403.25 164.404296875 c 1
 388.973632812 152.713867188 367.393554688 165.959960938 355.342773438 173.544921875 c 1
 303.340820312 103.5234375 272.361328125 60.8876953125 272.233398438 17.103515625 c 0
 272.026367188 -53.7421875 404.719726562 -47.6904296875 428 -47.6904296875 c 3
 451.299804688 -47.6904296875 578.01171875 -53.7421875 577.766601562 17.103515625 c 0
 577.615234375 60.88671875 548.659179688 100.5234375 496.657226562 170.544921875 c 1
 486.606445312 163.959960938 465.026367188 153.713867188 452.75 164.404296875 c 1
 443.431640625 143.844726562 444.344726562 111.388671875 428 112.359375 c 0
428 2.83984375 m 0
 404.596679688 3.80859375 398.463867188 -11.7099609375 360.779296875 -11.7099609375 c 3
 346.520507812 -11.7099609375 311.890625 2.83984375 311.890625 24.1796875 c 3
 311.890625 27.08984375 314.946289062 31.939453125 320.0390625 31.939453125 c 3
 329.206054688 31.939453125 338.372070312 20.2998046875 351.612304688 20.2998046875 c 3
 391.333984375 20.2998046875 397.4453125 46.490234375 428 46.490234375 c 3
 458.572265625 46.490234375 464.666015625 20.2998046875 504.387695312 20.2998046875 c 3
 517.627929688 20.2998046875 526.793945312 31.939453125 535.9609375 31.939453125 c 3
 541.053710938 31.939453125 544.109375 27.08984375 544.109375 24.1796875 c 3
 544.109375 2.83984375 509.479492188 -11.7099609375 495.220703125 -11.7099609375 c 3
 457.536132812 -11.7099609375 451.424804688 1.8701171875 428 2.83984375 c 0
357.30078125 204.201171875 m 0
 372.282226562 193.315429688 392.541015625 183.39453125 403.944335938 199.088867188 c 0
 417.93359375 218.342773438 410.989257812 251.913085938 412.471679688 263.633789062 c 1
 409.250976562 264.231445312 406.323242188 265.702148438 403.483398438 267.765625 c 0
 400.64453125 269.829101562 398.33984375 272.158203125 396.776367188 275.036132812 c 1
 386.086914062 270.005859375 352.013671875 266.235351562 338.025390625 246.981445312 c 0
 326.623046875 231.286132812 342.3203125 215.0859375 357.30078125 204.201171875 c 0
498.69921875 204.201171875 m 0
 513.680664062 215.084960938 529.377929688 231.287109375 517.974609375 246.981445312 c 0
 503.985351562 266.235351562 469.913085938 270.005859375 459.223632812 275.036132812 c 1
 457.66015625 272.158203125 455.356445312 269.829101562 452.516601562 267.765625 c 0
 449.676757812 265.702148438 446.749023438 264.231445312 443.528320312 263.633789062 c 1
 445.010742188 251.913085938 438.06640625 218.342773438 452.055664062 199.088867188 c 0
 463.458984375 183.39453125 483.716796875 193.31640625 498.69921875 204.201171875 c 0
542.392578125 338.678710938 m 0
 536.670898438 356.290039062 526.114257812 376.2265625 507.663085938 370.23046875 c 0
 485.028320312 362.875 470.9140625 331.635742188 462.826171875 323.025390625 c 1
 465.081054688 320.6484375 466.584960938 317.737304688 467.668945312 314.399414062 c 0
 468.752929688 311.061523438 469.248046875 307.822265625 468.8203125 304.57421875 c 1
 480.426757812 302.361328125 510.20703125 285.383789062 532.841796875 292.73828125 c 0
 551.291992188 298.733398438 548.114257812 321.06640625 542.392578125 338.678710938 c 0
313.607421875 338.678710938 m 0
 307.884765625 321.06640625 304.708007812 298.733398438 323.158203125 292.73828125 c 0
 345.79296875 285.383789062 375.573242188 302.361328125 387.1796875 304.57421875 c 1
 386.751953125 307.822265625 387.24609375 311.061523438 388.331054688 314.399414062 c 0
 389.416015625 317.737304688 390.918945312 320.6484375 393.173828125 323.025390625 c 1
 385.0859375 331.635742188 370.971679688 362.876953125 348.336914062 370.23046875 c 0
 329.885742188 376.224609375 319.330078125 356.290039062 313.607421875 338.678710938 c 0
428 421.790039062 m 3
 409.481445312 421.790039062 387.259765625 417.91015625 387.259765625 398.509765625 c 3
 387.259765625 374.709960938 412.609375 351.6328125 418.299804688 341.279296875 c 1
 421.256835938 342.689453125 424.490234375 343.219726562 428 343.219726562 c 3
 431.509765625 343.219726562 434.743164062 342.689453125 437.700195312 341.279296875 c 1
 443.390625 351.6328125 468.740234375 374.709960938 468.740234375 398.509765625 c 3
 468.740234375 417.91015625 446.518554688 421.790039062 428 421.790039062 c 3
EndSplineSet
EndChar
StartChar: uni2B24
Encoding: 11044 11044 1624
GlifName: uni2B_24
Width: 1070
Flags: HW
LayerCount: 2
Fore
SplineSet
35 260.54296875 m 3
 35 536.330078125 258.684570312 760 535 760 c 3
 811.315429688 760 1035 536.330078125 1035 260.54296875 c 3
 1035 -15.244140625 811.315429688 -240 535 -240 c 3
 258.684570312 -240 35 -15.244140625 35 260.54296875 c 3
EndSplineSet
EndChar
StartChar: uniA7AD
Encoding: 42925 42925 3045
Width: 679
Flags: HW
LayerCount: 2
Fore
SplineSet
146 371 m 1
 145 394.905405405 135.136083052 432 102 432 c 3
 81.0110975402 432 71 410.213867188 71 390 c 3
 71 351.959399414 128.108311347 336 178 336 c 3
 240.83249614 336 304.081054688 349.587890625 366 363 c 1
 372 305 l 1
 310.133789062 292.349609375 244.870024654 280 182 280 c 3
 108.942249673 280 29 314.751953125 29 388 c 3
 29 428.999082031 55.3881485336 471 100 471 c 3
 151.732992076 471 167.555555556 411.634615385 176 373 c 1
 146 371 l 1
EndSplineSet
Refer: 37 76 N 1 0 0 1 24 0 2
EndChar
StartChar: b.pcap
Encoding: 57348 57348 644
GlifName: b.pcap
Width: 444
Flags: HW
AnchorPoint: "Bottom" 218 -15 basechar 0
AnchorPoint: "Top" 213 465 basechar 0
LayerCount: 2
Fore
SplineSet
61 22 m 1
 73 23 106 25 108 55 c 0
 110 56 112 106 112 168 c 3
 112 255.721679688 107 331.956054688 107 333 c 0
 106 358 105 372 94 377 c 0
 89 378 65 381 60 382 c 1
 64 407 l 1
 72 407 104 401 136 401 c 3
 166 401 207 407 236 407 c 3
 315 407 350 342 350 305 c 3
 350 265 302 229 280 222 c 1
 340 209.672851562 390 166.52734375 390 109 c 1
 390 41.5927734375 330 -3 239 -3 c 3
 209 -3 171 1 138 1 c 3
 103 1 69 -2 63 -2 c 1
 61 22 l 1
226 226 m 0
 252 230 272 256 272 290 c 3
 272 316 257 380 216 380 c 3
 214 380 202 379 200 379 c 0
 187 376 188 361 186 351 c 0
 181 288 181 227 180 225 c 1
 221 225 225 225 226 226 c 0
215 205 m 3
 212.171572875 205 188 206 179 206 c 1
 179 154.27734375 179 104.666992188 181 73 c 0
 182 45 185 37 199 32 c 0
 202 30 229 24 237 24 c 3
 286 24 312 55.599609375 312 103 c 3
 312 154.515625 285 205 215 205 c 3
EndSplineSet
EndChar
StartChar: h.pcap
Encoding: 57354 57354 650
GlifName: h.pcap
Width: 603
Flags: HW
AnchorPoint: "Bottom" 307 -15 basechar 0
AnchorPoint: "Top" 311 465 basechar 0
LayerCount: 2
Fore
SplineSet
65 409 m 1
 100.970073031 405.899131635 132.709376831 402.798263271 166.658176466 402.798263271 c 3
 187.450171411 402.798263271 209.070941396 403.961389384 233 407 c 1
 235 383 l 1
 222 380 193 379 190 366 c 1
 185 345.588867188 185 275.170898438 183 217 c 1
 431 218 l 1
 431 252.8359375 431 292.794921875 429 343 c 0
 427 378 404 376 381 385 c 1
 384 408 l 1
 406.901994577 403.419601085 430.013789697 400.937207592 453.527579394 400.937207592 c 3
 481.349470565 400.937207592 509.734154144 404.412558482 539 412 c 1
 543 388 l 1
 517 381 509 378 506 352 c 0
 499.894654023 298.272955406 494.907565532 209.879928782 494.907565532 142.805180582 c 3
 494.907565532 100.017607372 496.93694977 65.9050312655 502 55 c 0
 509 26 526 24 542 21 c 1
 542 21 539 5 539 -2 c 1
 518.501425325 2.39255171604 493.238773964 4.8794727577 467.048562342 4.8794727577 c 3
 439.577048425 4.8794727577 411.084996213 2.14326437861 386 -4 c 1
 386 -2 381 12 380 20 c 1
 405 28 420 30 424 59 c 0
 429 107.872070312 430 137.1953125 431 189 c 1
 182 189 l 1
 181.5 143.051757812 181.5 96.126953125 183 58 c 0
 184 26 213 27 231 21 c 1
 231 21 228 4 228 -3 c 1
 199.128420419 2.2493781056 168.052363199 5.0187188666 138.388121044 5.0187188666 c 3
 111.542350854 5.0187188666 85.8528607142 2.7506218944 64 -2 c 1
 64 -2 61 16 60 25 c 1
 79 30 102 30 105 59 c 0
 111.02325267 118.02787617 114.144139522 207.167797708 114.144139522 272.663590411 c 3
 114.144139522 315.906043117 112.783723131 348.841854807 110 356 c 0
 105 380 85 381 63 384 c 1
 65 409 l 1
EndSplineSet
EndChar
StartChar: j.pcap
Encoding: 57356 57356 652
GlifName: j.pcap
Width: 310
Flags: HW
AnchorPoint: "Bottom" 166 -77 basechar 0
AnchorPoint: "Top" 159 465 basechar 0
LayerCount: 2
Fore
SplineSet
118 340 m 0
 111 382 86 379 56 382 c 1
 59 408 l 1
 89.5265255131 402.076942811 118.807514702 399.682905207 148.261695043 399.682905207 c 0
 183.453918107 399.682905207 218.893384864 403.100578054 257 408 c 1
 258 380 l 1
 227 379 206 385 201 342 c 0
 194 275.162109375 196 211.458007812 196 130 c 1
 196 56 202 27 203 2 c 1
 203 -52 165 -88 124 -115 c 0
 101 -130 77 -142 54 -151 c 1
 47 -151 30 -125 30 -125 c 1
 40.9638920725 -116.385513372 61.7405947064 -107.157726083 75.999999592 -99.7181246507 c 0
 79.9486970006 -97.6579590875 83.3976217764 -95.7349188157 86 -94 c 1
 141 -58 129 13 128 38 c 1
 128 62.7373046875 124 308.047851562 118 340 c 0
EndSplineSet
EndChar
StartChar: l.pcap
Encoding: 57358 57358 654
GlifName: l.pcap
Width: 456
Flags: HW
AnchorPoint: "TopRight" 306.5 348 basechar 0
AnchorPoint: "Top" 159 465 basechar 0
AnchorPoint: "Bottom" 232 -15 basechar 0
LayerCount: 2
Fore
SplineSet
240 406 m 1
 242 380 l 1
 194 372 192 381 185 324 c 0
 182.784727398 305.96135167 181 107.571289062 181 105 c 1
 182 60 186 37 222 36 c 0
 227.097053437 35.8584151823 288.838285073 35.9403450014 292 36 c 0
 345 37 386 79 395 114 c 1
 418 110 l 1
 417 68 409 64 391 -19 c 1
 370 -9 368 -5 342 -3 c 0
 336 -3 286 1 228 1 c 0
 103 1 76 -5 67 -5 c 1
 64 23 l 1
 95 30 103 34 106 67 c 0
 106.461643536 72.0780788932 108 111 108 173 c 0
 109 259.583984375 105.063862461 341.94626939 105 343 c 0
 103 376 95 376 60 378 c 1
 63 408 l 1
 87.3470419955 402.156709921 119.518759583 399.870090566 151.202089261 399.870090566 c 0
 184.584835544 399.870090566 217.425396956 402.408585879 240 406 c 1
EndSplineSet
EndChar
StartChar: ae.pcap
Encoding: 57379 57379 1631
GlifName: ae.pcap
Width: 680
Flags: HW
AnchorPoint: "Top" 374 465 basechar 0
AnchorPoint: "Bottom" 356 -15 basechar 0
LayerCount: 2
Fore
SplineSet
250 403 m 1
 292.197688037 401.132260577 346.868593435 400.38082533 399.72747482 400.38082533 c 0
 488.373561208 400.38082533 571.92343959 402.494191539 583 405 c 1
 590.208111566 398.821618658 592.821397686 393.350133538 592.821397686 385.87609291 c 0
 592.821397686 371.575379949 583.254052737 349.943231223 578 302 c 1
 558 300 l 1
 553 311 563 342 539 358 c 0
 524.181512348 368.334945234 492.612433939 372.82865882 460.2648171 372.82865882 c 3
 442.533613231 372.82865882 424.568486902 371.47846146 409 369 c 0
 400 368 394 358 393 350 c 0
 388 302.595703125 384 258.282226562 383 215 c 1
 416.254237288 215 478.144067797 217 492 219 c 0
 522 224 527 237 538 266 c 1
 559 262 l 1
 554.43132713 245.552777669 552.576114593 225.348456416 552.576114593 204.820027424 c 0
 552.576114593 180.41543193 555.198071009 155.552777669 559 136 c 1
 536 130 l 1
 524 187 523 176 491 185 c 0
 467 192 431 191 383 191 c 1
 383 135.203125 385 89.55078125 395 51 c 0
 397 43 402 38 411 36 c 0
 436.758069397 30.8440258887 457.54471862 26.5668639769 477.687514918 26.5668639769 c 0
 500.518316721 26.5668639769 522.521958612 32.0617475763 550 48 c 0
 589 73 592 85 613 120 c 1
 632 115 l 1
 623 75 614 33 607 -4 c 1
 543.046216217 -2.85166852265 471.612417869 -0.384671863407 406.558992876 -0.384671863407 c 0
 358.311639695 -0.384671863407 313.573847116 -1.74165738677 278 -6 c 1
 272 17 l 1
 301 24 309 28 314 53 c 0
 316 66.3212890625 318 97.0615234375 319 136 c 1
 291 141 210 144 174 140 c 1
 152 105.21875 134 85.78125 117 51 c 0
 110 37 129 17 167 22 c 1
 164 -7 l 1
 145.916666667 -2.91666666667 110.819444444 -0.875 78.1608796296 -0.875 c 0
 54.8333333333 -0.875 32.75 -1.91666666667 19 -4 c 1
 19 -2 18 13 16 22 c 1
 47 27 70 42 73 47 c 0
 155 167.185546875 228 278.204101562 288 377 c 1
 279 380 265 381 247 384 c 1
 250 403 l 1
312 357 m 1
 258 269.120117188 244 248.682617188 194 170 c 1
 230 168 283 166 319 168 c 1
 319.765218889 221.224560797 319.026233765 311.766485922 317 347 c 0
 317 351 314 355 312 357 c 1
EndSplineSet
EndChar
StartChar: exclam.pcap
Encoding: 57473 57473 1750
GlifName: exclam.pcap
Width: 258
Flags: HW
LayerCount: 2
Fore
SplineSet
108 144 m 1
 108 215 108 268 97 320 c 0
 93 352 71 368 73 402 c 1
 124 408 189 438 194 406 c 1
 180 382 181 366 176 320 c 0
 165 252 146 216 146 143 c 1
 108 144 l 1
EndSplineSet
Refer: 48 46 N 0.836878 0 0 0.88855 42.8914 -4 2
EndChar
StartChar: uni021D.pcap
Encoding: 57518 57518 1827
GlifName: uni021D_.pcap
Width: 382
UnlinkRmOvrlpSave: 1
Flags: HW
LayerCount: 2
Fore
SplineSet
218 208.62890625 m 1
 260.747227823 201.045047482 339 140.368578015 339 98.57421875 c 3
 339 -1.17355537386 154.469224988 -108.297223036 55.666015625 -117 c 1
 51.9765625 -89.42578125 l 1
 143.885849979 -82.2772756623 263 9.21354758968 263 84 c 3
 263 115.157847455 203.100548017 165.216866366 150.952148438 175.6875 c 1
 218 208.62890625 l 1
82.71484375 168.889648438 m 1
 166.167384212 188.29541443 246.119140625 228.37237333 246.119140625 296.212890625 c 3
 246.119140625 336.532144622 180.346289995 376.62890625 155.404296875 376.62890625 c 3
 125.414428478 376.62890625 90.0675250174 347.185146907 76.9287109375 297.7421875 c 1
 49 303.130859375 l 1
 54.0909562444 332.82877 58.6160843617 349.2571675 65.4052734375 378.955078125 c 1
 104.037614622 399.783314389 176.256714898 422 208.286132812 422 c 3
 235.152934118 422 319.071289062 365.761252747 319.071289062 322.68359375 c 3
 319.071289062 234.668980326 188.457740018 161.579945708 93.0478515625 146.663085938 c 1
 82.71484375 168.889648438 l 1
EndSplineSet
EndChar
StartChar: uni0223.pcap
Encoding: 57520 57520 1831
GlifName: uni0223.pcap
Width: 494
UnlinkRmOvrlpSave: 1
Flags: HW
LayerCount: 2
Fore
SplineSet
201.922851562 388.557617188 m 1
 189.237636201 388.557617188 175.053710938 367.12890625 175.053710938 349.380859375 c 3
 175.053710938 305.411655577 218.455057766 284.135017425 263.932617188 279.055664062 c 0
 360.270507812 268.295759728 442 207.26970959 442 142.063476562 c 3
 442 52.4619140625 358.091796875 -7 246.676757812 -7 c 3
 147.864257812 -7 56 39.9541015625 56 128.516601562 c 3
 56 202.696029683 141.149362004 258.326929369 216.999998039 273.571245354 c 0
 225.821112935 275.344096181 234.516465102 276.570729493 242.9375 277.216796875 c 0
 289.659781917 280.801361327 318.522460938 315.854144074 318.522460938 348.52734375 c 3
 318.522460938 374.986328125 305.46143802 422.008789062 274.171875 427.73828125 c 1
 279.828125 450 l 1
 332.31711368 448.134765625 391.098632812 422.918945312 391.098632812 360.733398438 c 3
 391.098632812 317.106076574 346.018285115 277.564687858 284.000002802 263.338137455 c 0
 274.85999632 261.241485338 265.352103219 259.694663558 255.56640625 258.765625 c 0
 195.93973911 253.104763742 135.202148438 204.245705616 135.202148438 150.86328125 c 3
 135.202148438 88.6657193352 185.790043558 25.1767578125 259.826171875 25.1767578125 c 3
 350.25823312 25.1767578125 360.676757812 95.7671928318 360.676757812 126.065429688 c 3
 360.676757812 186.537151606 316.049813687 247.631000744 241.27734375 254.791992188 c 0
 162.632066816 262.323884014 98.458984375 294.242952307 98.458984375 333.506835938 c 3
 98.458984375 375.732421875 155.176699471 410.374023438 198.346679688 410.374023438 c 1
 201.922851562 388.557617188 l 1
EndSplineSet
EndChar
StartChar: theta.pcap
Encoding: 57530 57530 1841
GlifName: theta.pcap
Width: 568
Flags: HW
LayerCount: 2
Fore
SplineSet
378.25 253.5 m 1
 377.221679688 227.764765872 377.459472656 183.744544344 380.75 156.299804688 c 1
 356.25 154.700195312 l 1
 350.827148438 178.330390294 347.051134833 179.113879431 332.75 180.299804688 c 0
 329.454573702 181.099888393 304.190764624 185.900390625 286.25 185.900390625 c 3
 264.947294347 185.900390625 235.118048234 181.947211144 231.25 180.299804688 c 0
 217.314453125 178.24266183 216.282714844 168.64266183 215.25 156.299804688 c 1
 190.25 157.099609375 l 1
 193.48828125 191.133143538 193.89453125 222.559301291 190.25 256.700195312 c 1
 214.75 258.299804688 l 1
 216.805664062 248.535464016 218.403931366 241.148045853 233.25 236.700195312 c 0
 236.706402403 233.500195313 245.539735736 228.700195312 286.25 228.700195312 c 3
 321.921961167 228.700195312 329.570791212 231.845274942 331.75 232.700195312 c 0
 347.75 234.634488689 351.75 233.344959771 353.75 254.299804688 c 1
 378.25 253.5 l 1
EndSplineSet
Refer: 657 57361 N 1 0 0 1 0 0 2
EndChar
StartChar: lambda.pcap
Encoding: 57531 57531 1842
GlifName: lambda.pcap
Width: 472
Flags: HW
AnchorPoint: "Bottom" 239 -15 basechar 0
AnchorPoint: "Top" 250 465 basechar 0
LayerCount: 2
Fore
SplineSet
222 281 m 1
 189.502929688 198.138671875 135.883789062 81.7734375 126 51 c 0
 121.530273438 37.142578125 143 17 181 22 c 1
 180 -7 l 1
 161.333333333 -2.91666666667 125.652777778 -0.875 92.8078703704 -0.875 c 0
 69.3472222222 -0.875 47.3333333333 -1.91666666667 34 -4 c 1
 34 -2 31 13 30 22 c 1
 60 27 79.70703125 42.126953125 82 47 c 0
 138 166 186.415039062 275.237304688 226 372 c 0
 235 394 231 390 234 415 c 1
 265 415 l 1
 269 395 265.59765625 395.208007812 273 373 c 0
 316 244 345 161 407 37 c 0
 412.603515625 25.79296875 432 21 442 21 c 1
 442 19 442 5 441 -3 c 1
 423.976824749 -0.381049961378 400.475800154 1.09475019311 376.567793651 1.09475019311 c 0
 345.702689974 1.09475019311 314.159283114 -1.36491673104 295 -7 c 1
 295 -7 291 11 289 18 c 1
 304.40625 23 320.377929688 36.837890625 318 44 c 0
 289.000976562 131.708007812 256.813476562 208.897460938 222 281 c 1
EndSplineSet
EndChar
StartChar: phi.pcap
Encoding: 57536 57536 1847
GlifName: phi.pcap
Width: 518
UnlinkRmOvrlpSave: 1
Flags: HW
LayerCount: 2
Fore
SplineSet
243.8515625 312.5546875 m 3
 181.488022386 312.5546875 136.447265625 278.623084587 136.447265625 226.124023438 c 3
 136.447265625 149.609333194 191.131559552 90.78515625 275.478515625 90.78515625 c 3
 342.990000463 90.78515625 380.2109375 128.441337351 380.2109375 179.904296875 c 3
 380.2109375 268.633537332 320.83361238 312.5546875 243.8515625 312.5546875 c 3
266.123046875 340 m 3
 376.525390625 340 462 273.684570312 462 197.321289062 c 3
 462 122.729394508 380.978515625 62 261.671875 62 c 3
 134.3515625 62 56 133.309354627 56 197.321289062 c 3
 56 277.684570312 153.046875 340 266.123046875 340 c 3
EndSplineSet
Refer: 651 57355 N 0.909091 0 0 1 110.455 0 2
EndChar
StartChar: uni1E9E.pcap
Encoding: 57620 57620 1900
GlifName: uni1E_9E_.pcap
Width: 613
Flags: HW
LayerCount: 2
Fore
SplineSet
366 383 m 1
 344.355174228 390.369957837 320.297351962 393.014648438 302.822265625 393.014648438 c 3
 255.028751476 393.014648438 218.068773855 380.250917412 192.000123219 357.792563144 c 0
 160.900586634 331.000059766 145.301757812 290.410016202 145.301757812 241.233398438 c 0
 145.301757812 224.6205311 147.664027657 71.465000328 147.860351562 67.8408203125 c 0
 150.454593739 19.9505716539 166.271009111 18.2092666311 206.655273438 12.9853515625 c 1
 203.875 -10.0751953125 l 1
 151.136305255 -5.9794921875 64.5402414073 -5.9794921875 25.474609375 -10.0751953125 c 1
 22 15.3251953125 l 1
 68.5133792917 23.4839553171 75.3203125 23.2030376109 75.3203125 66.0859375 c 0
 75.3203125 73.7940893551 73.845703125 233.625719486 73.845703125 249.04296875 c 3
 73.845703125 302.376903262 104.594990023 352.584872183 155.999995764 385.022494768 c 0
 192.334537023 407.950342342 238.988820581 422 292.3984375 422 c 3
 366.684570312 422 429.2265625 399.014648438 470.986328125 378.153320312 c 1
 461.953125 358.751953125 l 1
 388.618164062 378.8125 341.041015625 335.203125 341.041015625 295.053710938 c 3
 341.041015625 260.562332524 373.554020873 254.630077245 434 237 c 0
 530 209 557 161.639635854 557 106.056640625 c 3
 557 59.1215634756 521.973727701 -6 399.700195312 -6 c 3
 368.486374121 -6 335.569969287 -3.22206140278 307.194335938 7.3798828125 c 0
 293.947233929 12.3293771472 290.991210938 10.3450600861 287.041992188 -3.490234375 c 1
 264.805664062 -0.150390625 l 1
 265.25082599 42.3498638177 263.915965434 53.4368420119 252.348632812 119.341796875 c 1
 275.974609375 122.8515625 l 1
 284.217214464 90.6959408386 293.016846197 81.3021902715 306.940429688 68.3505859375 c 0
 330.435041569 46.4960886891 382.008215071 25.1552734375 418.682617188 25.1552734375 c 3
 470.196864247 25.1552734375 491.408203125 61.2827235712 491.408203125 89.111328125 c 3
 491.408203125 147.703499743 419.529375464 167.406570069 386 177 c 0
 366.116506556 182.689068123 272.229492188 205.260662942 272.229492188 285.428710938 c 3
 272.229492188 323.480823534 304 369.865384421 366 383 c 1
EndSplineSet
Substitution2: "salt-1" germandbls.pcap
EndChar
StartChar: b.smcp
Encoding: 57672 57672 2030
GlifName: b.smcp
Width: 485
Flags: HW
AnchorPoint: "Top" 219 539 basechar 0
AnchorPoint: "Bottom" 228 -15 basechar 0
LayerCount: 2
Fore
SplineSet
46.9 25.6 m 1
 69.4 26.9 103 28.3 105 60.4 c 0
 106.4 62.6 108.7 127 108.7 205.2 c 3
 108.7 317.305175782 103.1 413.869238282 102.8 417.3 c 0
 101.8 437.8 100.2 452.7 86.2 457.7 c 0
 80.6 459 51.2 463.2 45.6 464.2 c 1
 50.5 493.1 l 1
 59.1 493.1 93.8 485.9 132.4 485.9 c 3
 169.3 485.9 214.5 493.1 249.8 493.1 c 3
 351.6 493.1 388.4 412.8 388.4 368.9 c 3
 388.4 319.6 339.8 280.9 296.8 266.1 c 1
 375.7 255.670996093 437.7 199.969140625 437.7 130.6 c 3
 437.7 50.1149414062 365.1 -3.3 253.7 -3.3 c 3
 216.8 -3.3 175.2 1.3 135 1.3 c 3
 92.8 1.3 55.5 -2 49.2 -2 c 1
 46.9 25.6 l 1
242.8 272.5 m 0
 281.7 278.3 306.8 311.2 306.8 352.7 c 3
 306.8 382.3 290.6 461.9 230.4 461.9 c 3
 224.8 461.9 208.9 460.6 204.8 460 c 0
 189.1 456.4 189.2 439.9 187.5 429.9 c 0
 181 351.9 181.6 275.6 180.9 271.2 c 1
 234.2 271.2 239.1 271.5 242.8 272.5 c 0
227.9 248.2 m 3
 225.920101013 248.2 186.2 248.9 179.6 248.9 c 1
 179.9 183.294140625 179.9 119.766894532 181.9 79.9 c 0
 182.9 49.2 186.5 40 204.1 34.7 c 0
 209.2 32.7 241.6 27 255 27 c 3
 316.9 27 356.1 63.8197265625 356.1 125.5 c 3
 356.1 186.7609375 319.8 248.2 227.9 248.2 c 3
EndSplineSet
EndChar
StartChar: c.smcp
Encoding: 57673 57673 2031
GlifName: c.smcp
Width: 572
Flags: HW
AnchorPoint: "Top" 336 539 basechar 0
AnchorPoint: "Bottom" 325 -15 basechar 0
LayerCount: 2
Fore
SplineSet
52.1 244.4 m 3
 52.1 369.4453125 145.3 499.5 349 499.5 c 3
 385.8 499.5 413.1 498.3 451.8 486.9 c 0
 484.4 478 495.8 483.3 509.4 484.8 c 1
 530.8 472.9 l 1
 500.5 431.1 492.4 406.7 491.7 386.8 c 0
 491 367.5 487.9 366.1 465 366.1 c 1
 459.1 388.4 462.7 418.7 439.2 435.5 c 0
 404.1 457.7 377.2 468.6 334.3 468.6 c 3
 227.5 468.6 143.2 393.063574218 143.2 260.2 c 3
 143.2 115.5 248.3 26 348.4 26 c 3
 414 26 468.7 65.7 497.3 130.2 c 1
 520.1 123.6 l 1
 513.9 87.1 509.4 70.2 501.6 33 c 1
 456.8 11.1 396.6 -6.9 331.6 -6.9 c 3
 187.2 -6.9 52.1 93.1 52.1 244.4 c 3
EndSplineSet
EndChar
StartChar: d.smcp
Encoding: 57674 57674 2032
GlifName: d.smcp
Width: 629
Flags: HW
AnchorPoint: "Top" 308 539 basechar 0
AnchorPoint: "Bottom" 309 -15 basechar 0
LayerCount: 2
Fore
SplineSet
266.9 27.9 m 3
 410.9 27.9 491.2 106.3625 491.2 244.1 c 3
 491.2 377.055273437 394.5 466.5 264.4 466.5 c 3
 243.7 466.5 226.3 462.2 199.3 455.8 c 0
 181.391845605 451.430615202 180.1 440.8 180.1 427.8 c 0
 178.720769484 345.476462966 176.585152397 274.339062555 176.585152397 200.361707643 c 3
 176.585152397 158.49092282 177.22179445 115.788336125 179 69.9 c 0
 179 57.5 182.683860466 44.7580697669 200.2 39 c 0
 217.9 33.3 239.8 27.9 266.9 27.9 c 3
45.9 489.2 m 1
 76.3 487.9 102 485.3 132.4 485.3 c 3
 193.5 485.3 226.8 495.1 287.9 495.1 c 3
 466.5 495.1 577.5 380.682226563 577.5 248.5 c 3
 577.5 51.5154296875 413.3 -5.6 270.9 -5.6 c 3
 219.3 -5.6 189.6 -0.7 137.3 -0.7 c 3
 84.3 -0.7 70.5 -4.3 48.2 -7.9 c 1
 46.9 21 l 1
 79.5 23.6 96.3711669712 22.9099743898 98.8 57.6 c 0
 101.849048132 102.410041934 103.145170186 157.031522407 103.145170186 211.249008961 c 3
 103.145170186 298.244919589 99.8611448185 384.477194212 95.2 427.4 c 0
 91.8 459.9 88.1 457.3 45.6 458.7 c 1
 45.9 489.2 l 1
EndSplineSet
EndChar
StartChar: w.smcp
Encoding: 57693 57693 2051
GlifName: w.smcp
Width: 799
Flags: HW
AnchorPoint: "Top" 416 539 basechar 0
AnchorPoint: "Bottom" 418 -15 basechar 0
LayerCount: 2
Fore
SplineSet
791.3 492.8 m 1
 795.9 465.2 l 1
 738.1 446.096972656 736.6 414.012402344 699 323.6 c 1
 612.7 108.955859375 588.5 56.1267578125 576 29.4 c 0
 568.8 12.7 562.6 4.9 561.3 -10.8 c 1
 535.8 -11.8 l 1
 534.8 2 535.3 13.4 522.8 41.2 c 0
 485.601953125 123.572363282 455.001855469 205.227636718 419.1 287.6 c 1
 361.596972656 143.211816407 335.026660156 74.3629882812 312.6 16.7 c 0
 307.7 2.3 304.1 -4.9 303.8 -15.4 c 1
 276.6 -15.4 l 1
 274.7 -2.4 273.9 12.1 255.3 55.4 c 0
 178.9 242.634082031 101.9 395.320019531 90.1 408.8 c 0
 85.5 415.952148438 81.2 423.073925781 65.9 443.1 c 0
 49.7 462.9 27.4 463.7 7.1 465 c 1
 11.7 496.2 l 1
 36.6781758163 488.760086381 74.9480691504 485.289049808 113.871683711 485.289049808 c 1
 150.929293681 485.289049808 188.580436996 488.410696139 215.7 494.2 c 1
 221.6 467.9 l 1
 183.2 467.9 170 455.459375 170 429.9 c 1
 170 421.4 173 411.5 176.6 404 c 1
 175.9 409.096875 316.7 92.5782226563 316 103.5 c 1
 324.4 119.372363282 385.2 286.176367187 398.5 327.3 c 1
 361.028613281 415.872363282 340.21640625 435.521972656 336.6 442 c 1
 321.4 462.8 298 463.5 282.8 468.5 c 1
 287.4 491.2 l 1
 316.256353254 487.309873222 349.877910474 485.164878502 384.330093589 485.164878502 c 1
 422.470679846 485.164878502 461.687836158 487.784109682 496.4 493.5 c 1
 499.7 466.2 l 1
 497.2 466.2 470.1 465.2 462.2 465.6 c 0
 436.4 464.1 431.1 447.1 436.7 433.3 c 1
 436.7 430.432324218 575.3 95.562109375 571.8 105.6 c 1
 616.1 200.219335938 641.8 274.54375 668.7 365.2 c 0
 688.2 432.154394531 686 467.836523437 604.6 464.5 c 1
 604.6 489.2 l 1
 624.054575338 486.945662246 650.136696829 485.453102987 679.520234003 485.453102987 c 1
 714.016427647 485.453102987 753.063369637 487.508675507 791.3 492.8 c 1
EndSplineSet
EndChar
StartChar: eng.smcp
Encoding: 57763 57763 2057
GlifName: eng.smcp
Width: 674
Flags: HW
LayerCount: 2
Fore
SplineSet
495.4 -151.95 m 0
 461.255825266 -175.349428687 433.305185185 -194.2 385.1 -194.2 c 3
 359.709345794 -194.2 320.036448598 -186.45 300.2 -170.95 c 1
 301.185714286 -146.20703125 300.2 -146.20703125 348.5 -112.3 c 1
 374.120833334 -123.892857143 391.808314016 -139.35 419.45 -139.35 c 3
 495.184037604 -139.35 520.74296875 -88.0420303313 520.74296875 -1.46645507812 c 3
 520.74296875 34.0395162441 498.702896244 70.1429761321 476.6 92.2317871094 c 0
 373.359380908 194.219143217 267.62947037 295.634490744 159.05 393.35 c 1
 159.05 397.25 152 121.5 152.65 125.4 c 1
 151.835401141 49.5475797064 178.85 33.8361788618 242.55 25.25 c 1
 236.5 -10.35 l 1
 208.027909593 -2.27286244289 179.68318207 0.3442803405 152.649206303 0.3442803405 c 0
 114.763680726 0.3442803405 79.4374521622 -5.33724288921 50 -8.05 c 1
 45.65 26.2 l 1
 89.35 26.85 104.043742402 36.6098706212 106.75 81.3 c 0
 113.15 187.12397541 120.357047085 292.532015778 112.15 409.15 c 0
 109.2 446.95 79.4 467 44.5 471.2 c 1
 45.85 505.45 l 1
 81.6 500.8 125.750957932 499.4 159 499.4 c 0
 170.1 499.4 171.922368719 496.216656819 176.8 491 c 0
 285.705721321 375.734655938 387.561963112 274.040246467 499.5 174.974679526 c 0
 512.737084808 163.104237284 526.229521321 149.682214959 537.15 137.1 c 1
 544.85 222.193632793 544.297304388 292.294627353 543.9 383.8 c 0
 543.55 479.8 507.15 478.55 463.75 482.3 c 1
 466.8 511.85 l 1
 507.659171994 506.162390441 543.852789004 504.323505714 577.774479799 504.323505714 c 0
 599.215564459 504.323505714 619.754032085 505.111760832 639.95 506.15 c 1
 643.3 476.25 l 1
 608.6 472.2 594.911566681 471.581647563 590.75 430.9 c 0
 579.411177639 317.293488086 575.45600586 186.67954833 575.45600586 62.6 c 1
 575.45600586 45.2630473071 576.7 29.1475588491 576.7 5.2 c 3
 576.7 -81.0727668872 545.472178289 -117.605560447 495.4 -151.95 c 0
EndSplineSet
EndChar
StartChar: exclam.smcp
Encoding: 57797 57797 2155
GlifName: exclam.smcp
Width: 260
Flags: HW
LayerCount: 2
Fore
SplineSet
108.3 163.5 m 1
 108.3 252.2 107.7 318.7 97.9 383.9 c 0
 93.9 420.4 71.3 438.8 73.3 477.6 c 1
 133.3 484.8 191.7 514.2 196.7 482.5 c 1
 182.1 454.9 183.4 436.8 178.1 383.9 c 0
 167.1 298.8 148.4 253.8 148.4 162.5 c 1
 108.3 163.5 l 1
EndSplineSet
Refer: 48 46 N 0.885815 0 0 0.921985 36.924 -2.8 2
EndChar
StartChar: sigma.smcp
Encoding: 57858 57858 2216
GlifName: sigma.smcp
Width: 515
Flags: HW
LayerCount: 2
Fore
SplineSet
53.6671875 -3.54248046875 m 1
 46.5 19.641015625 l 1
 73.8895482181 34.406640625 96.5329357086 60.2821536752 114.622265625 81.5140625 c 0
 159.840234375 134.223339844 205.481835937 187.639453125 250.80078125 241.327441406 c 1
 206.304882813 297.092533691 155.184362451 362.884436045 111.017871094 416.385546875 c 0
 92.235926153 439.079296875 72.5492700361 461.383691406 52.35078125 466.094628906 c 1
 55.934375 489.990722656 l 1
 108.201122572 487.428384445 170.230989114 486.453488003 228.873614651 486.453488003 c 0
 331.148564737 486.453488003 423.120653878 489.418798415 435.030078125 492.1 c 1
 443.043643277 483.020049338 445.994447116 478.355568004 445.994447116 471.620934445 c 0
 445.994447116 459.289193541 436.083570556 439.979233488 429.330175781 374.023535156 c 1
 405.728613281 371.214257813 l 1
 400.284891876 393.144866973 409.380678807 430.482191217 379.4 443.1 c 1
 350.014188365 453.457786823 306.916459828 457.430759873 264.050885477 457.430759873 c 0
 235.406238429 457.430759873 206.334994622 455.232667425 180.940625 452.884179688 c 1
 225.71640625 397.833300781 270.154060152 342.72833291 315.043652344 287.731542969 c 0
 323.758203125 277.074121094 335.98671875 263.826171875 347.726367187 258.201660156 c 1
 347.726367187 238.51484375 l 1
 335.879003906 233.00390625 326.119028337 223.79665552 319.745800781 216.016113281 c 0
 267.884744763 152.266482511 217.338751597 95.261799982 166.1 34.7 c 1
 203.984166314 34.7 242.334738882 32.7 280.3 32.7 c 0
 304.216997253 32.7 335.754279614 35.1634480868 375.525976562 54.0344726563 c 0
 410.246808087 70.2588646997 423.63829874 89.5335150825 450.831738281 137.002929688 c 1
 473 131.381054688 l 1
 460.957858529 79.26910202 452.678793458 46.1074786544 443.647558594 -2.8451171875 c 1
 348.228165724 -1.7571254145 262.788159807 0.440747125316 185.63473362 0.440747125316 c 0
 137.656734915 0.440747125316 93.6371114861 -0.607814778318 53.6671875 -3.54248046875 c 1
EndSplineSet
EndChar
StartChar: upsilon.smcp
Encoding: 57859 57859 2217
GlifName: upsilon.smcp
Width: 553
Flags: HW
LayerCount: 2
Fore
SplineSet
320.5140625 272.55625 m 0
 314.811164875 243.439789846 313.991718787 210.744702462 314.133776085 178.102933122 c 0
 314.2723564 137.353646174 315.555974957 96.5465925768 317.971875 63.9259765625 c 0
 320.730794187 37.2797566364 335.552170328 28.5060312372 392.514941406 24.5221679688 c 1
 388.099414062 -7.787109375 l 1
 349.355171452 -2.75517578125 313.432194594 0.839013671875 277.321110079 0.839013671875 c 0
 241.210025565 0.839013671875 204.910833393 -2.25517578125 165.414160156 -10.3 c 1
 156.500585938 19.8909179687 l 1
 211.848502642 30.1553477595 232.471289063 39.0228654561 237.771289062 79.702734375 c 0
 239.700639308 94.5860464663 242.447208616 127.673633148 242.49405564 162.999999363 c 0
 242.506514026 208.453220548 241.125472573 257.30503178 237.3859375 273.274609375 c 0
 223.199151025 333.188899996 180.639371297 430.469140625 96.8716796875 430.469140625 c 3
 78.5574300824 430.469140625 60.2431804773 423.318942868 40.1862304687 409.017578125 c 1
 23.1 429.862988281 l 1
 36.4713867187 471.019702385 75.8432617188 503.3 106.299511719 503.3 c 3
 237.355935983 503.3 255.329277589 358.096386719 280.04296875 266.805273437 c 1
 303.619934678 358.096386719 321.303670482 503.3 450.242773437 503.3 c 3
 480.699707031 503.3 519.328613281 471.019702385 532.7 429.862988281 c 1
 515.613769531 409.017578125 l 1
 495.556819523 423.318942868 477.242569918 430.469140625 458.928320312 430.469140625 c 3
 376.412540392 430.469140625 331.986774762 333.588029505 320.5140625 272.55625 c 0
EndSplineSet
EndChar
StartChar: hairrule
Encoding: 58112 58112 1966
GlifName: hairrule
Width: 1000
Flags: HW
LayerCount: 2
Fore
SplineSet
0 -12 m 1
 0 12 l 1
 1000 12 l 1
 1000 -12 l 1
 0 -12 l 1
EndSplineSet
EndChar
